<svg id="Слой_1" data-name="Слой 1" xmlns="http://www.w3.org/2000/svg" viewBox="0 0 678 678"><defs><style>.cls-1{fill:#020202;}.cls-2{fill:#353535;}.cls-3{fill:#010101;}</style></defs><title>direct</title><path class="cls-1" d="M736.32,377.81v13.24a27.93,27.93,0,0,0,0,18.54v14.57c-1.39.43-1.23,1.61-1.29,2.67a287.22,287.22,0,0,1-5.51,40.56c-29.43,144.43-148.6,252.4-291.29,269.47-5.24.63-10.79-.17-15.74,2.47h-53c-.49-1.83-2-1.22-3.23-1.4-12.41-1.83-24.94-3.07-37.22-5.55C189.9,704.31,82.06,589.29,61.88,447.85c-1.13-7.9-.77-16-3.56-23.69V409.59a27.93,27.93,0,0,0,0-18.54V376.49c2-.81,1.2-2.61,1.32-4a330.15,330.15,0,0,1,6.54-43.73c31-139.51,141.21-242.18,283.06-263.94,6.77-1,13.83-.58,20.28-3.5h53c.22,1.06,1,1.23,1.92,1.3,52.25,3.95,101.14,19,145.71,46.45,91.18,56.07,145.65,137.08,162.55,243.06C734,360.68,733.8,369.44,736.32,377.81ZM397,107.54c-161.6.31-292.57,131.63-292.35,293.11s131.68,292.76,293,292.45C559.25,692.8,690.23,561.48,690,400S558.33,107.23,397,107.54Z" transform="translate(-58.32 -61.32)"/><path class="cls-2" d="M58.32,391.05a27.93,27.93,0,0,1,0,18.54Z" transform="translate(-58.32 -61.32)"/><path class="cls-2" d="M736.32,409.59a27.93,27.93,0,0,1,0-18.54Z" transform="translate(-58.32 -61.32)"/><path class="cls-3" d="M588.58,231.37c.13,4.26-1.1,8.22-2.66,12.13Q507,440.68,428.15,637.88c-5,12.38-12.75,18.33-23.35,18.06s-18.26-6.7-22.43-19.17Q355.58,556.67,329,476.5c-1.38-4.17-3.28-6.34-7.6-7.76-52.86-17.41-105.62-35.12-158.43-52.67-9.6-3.19-17.83-7.58-20.35-18.52-2.23-9.72,1.54-19.41,10-24.53a61,61,0,0,1,8.89-4.3q195-78.08,390.06-156.14c9.16-3.67,18.15-5.72,27,.35A22,22,0,0,1,588.58,231.37ZM231.73,390.31c40.22,13.42,78.77,26.41,117.41,39.11,9.82,3.23,16,9.24,19.14,19.12,6.83,21.36,14.08,42.59,21.18,63.87,5.79,17.35,11.61,34.69,17.91,53.5l117-292.69Z" transform="translate(-58.32 -61.32)"/></svg>