<svg id="Слой_1" data-name="Слой 1" xmlns="http://www.w3.org/2000/svg" viewBox="0 0 695.84 695.84"><defs><style>.cls-1{fill:#3b5997;}</style></defs><title>FB</title><path class="cls-1" d="M421.92,747.92H390c-.51-.87-1.37-.53-2.09-.57a345.8,345.8,0,0,1-74.66-12.51c-52.33-14.89-98.94-40.36-138.94-77.21Q72.73,564.06,61,426.12c-.21-2.52.28-5.16-1-7.56V382c.86-.51.53-1.38.57-2.09a335.37,335.37,0,0,1,13.41-77.72Q111.55,177.84,220.51,107c50.85-33,106.92-50.71,167.43-54.35.71,0,1.58.3,2.09-.57H425.4c.42.78,1.18.51,1.81.54a337.42,337.42,0,0,1,44,5.21C536.39,70,593.8,98.19,642.5,143.16c67.41,62.25,104.85,139.44,112.47,231,.23,2.82-.2,5.74,1,8.46v34.21c-.81.54-.5,1.4-.54,2.12a340,340,0,0,1-12.56,75.84A348.56,348.56,0,0,1,531,725.59c-3.2,1.22-3.21,1.22-3.21-2.26q0-113.07-.07-226.14c0-2.93.89-3.42,3.57-3.4,21.16.11,42.33,0,63.49.13,2.64,0,3.32-1,3.42-3.27.12-2.79.42-5.58.72-8.36,1.28-11.89,2.61-23.77,3.89-35.65,1.33-12.36,2.61-24.73,4-37.1.39-3.53.41-3.61-3.06-3.61-24.35,0-48.71,0-73.06,0-2.25,0-2.94-.55-2.91-2.87.16-14.21.15-28.41.22-42.62a113.19,113.19,0,0,1,.6-12.43c1.13-9.83,6.3-16.15,15.83-18.74a51,51,0,0,1,13.14-1.81c15.37-.07,30.73-.1,46.1,0,2.27,0,2.93-.58,2.92-2.89q-.12-41.17,0-82.34c0-2.37-.75-2.86-3-2.85-22,.08-44.07,0-66.1.08-17.4.1-34.65,1.56-51.38,6.87-28.54,9.05-47.49,27.71-56.62,56.3-4.82,15.11-6.6,30.69-6.83,46.44-.26,17.78-.17,35.56,0,53.34,0,3.09-.93,3.57-3.7,3.54-15.27-.13-30.54,0-45.81-.11-2.19,0-3,.44-3,2.83q.13,41.17,0,82.34c0,2.39.77,2.84,3,2.83,15.56-.09,31.12,0,46.68-.09,2,0,2.81.33,2.8,2.64q-.1,124.23-.05,248.47A4.27,4.27,0,0,1,421.92,747.92Z" transform="translate(-60.08 -52.08)"/></svg>