<svg id="Слой_1" data-name="Слой 1" xmlns="http://www.w3.org/2000/svg" viewBox="0 0 693 655.22"><title>дом пнг</title><path d="M147,747.77c.13-1.78.36-3.55.36-5.33q0-148.2,0-296.4c0-8.61,4.51-14.35,12.26-15.66a14.19,14.19,0,0,1,16.46,12.8c.16,1.91.07,3.85.07,5.77q0,130.69,0,261.37c0,8.65,0,8.65,8.84,8.65H312.45c8.19,0,8.2,0,8.2-8q0-86,0-172.07c0-2.41,0-4.82,0-7.45H493.91q0,3,0,6,0,88.15,0,176.3c0,5.22,0,5.25,5.15,5.25H633c5.29,0,5.3,0,5.3-5.23q0-126.07,0-252.14c0-8.67,2.74-13.41,9.26-16.06,8.61-3.5,18.76,2.74,19.48,12.05.19,2.43.1,4.87.1,7.31q0,139,0,277.93c0,1.65.24,3.3.36,4.94H465q0-91.82.09-183.64c0-3.16-.93-4.2-4.15-4.19q-53.51.14-107,0c-3.57,0-4.59,1.07-4.56,4.59.14,21.56.06,43.12.07,64.68q0,59.29.07,118.57Z" transform="translate(-60.77 -92.55)"/><path d="M60.77,425.91c9.71-10,19.16-20.21,29.17-29.87,28.24-27.25,56.72-54.26,85.09-81.37q45.89-43.87,91.76-87.77,51-48.81,102-97.64c12.69-12.14,25.4-24.25,38.46-36.71,4.32,4.11,8.57,8.12,12.8,12.16q43.39,41.47,86.78,83,48.1,46,96.18,92.06,48,45.88,96,91.73c16.22,15.51,32.49,31,48.59,46.63,2.5,2.43,4.17,5.71,6.22,8.6v7.7c-.42.42-1,.76-1.22,1.26-4.55,9.82-15.56,12.08-23.5,4.59C713.95,426,699,411.55,684,397.19L592.2,309.41,480.43,202.48q-35.45-33.91-70.9-67.82c-1.62-1.55-2.66-1.79-4.42-.11q-43.73,42-87.57,83.8-45.2,43.21-90.4,86.41-66.87,64-133.71,128c-2.78,2.66-5.54,5.35-8.45,7.86-8.05,6.92-18.24,4.73-23-4.84a7,7,0,0,0-1.23-1.38Q60.77,430.15,60.77,425.91Z" transform="translate(-60.77 -92.55)"/><path d="M638.15,141.39c.08,1.62.19,2.74.19,3.87q0,55,0,110.07c0,6.22-2.13,11.34-7.87,14.34a13.65,13.65,0,0,1-14.92-1c-4.78-3.29-6.27-8.18-6.27-13.73q0-39.83,0-79.66c0-5.08,0-5.1-5-5.1q-40.22,0-80.43,0c-10.12,0-16.36-7-15.18-16.82.69-5.79,6-11,12-11.82a30.26,30.26,0,0,1,3.84-.16H638.15Z" transform="translate(-60.77 -92.55)"/></svg>