<svg id="Слой_1" data-name="Слой 1" xmlns="http://www.w3.org/2000/svg" viewBox="0 0 698.58 691.14"><defs><style>.cls-1{fill:#c834ab;}.cls-2{fill:#feca52;}.cls-3{fill:#9731c5;}.cls-4{fill:#feb14c;}.cls-5{fill:#813ac9;}.cls-6{fill:#6849cb;}.cls-7{fill:#7342ca;}.cls-8{fill:#4b5fca;}.cls-9{fill:#d93d8a;}.cls-10{fill:#b42cb9;}.cls-11{fill:#e54472;}.cls-12{fill:#5e50cb;}.cls-13{fill:#ee4a5e;}.cls-14{fill:#cd3894;}.cls-15{fill:#dd4083;}.cls-16{fill:#fe8844;}.cls-17{fill:#bf2fb3;}.cls-18{fill:#fe7642;}.cls-19{fill:#b536a1;}.cls-20{fill:#f44e50;}.cls-21{fill:#a22dc1;}.cls-22{fill:#ea4668;}.cls-23{fill:#fa5145;}.cls-24{fill:#fea34a;}.cls-25{fill:#a336af;}.cls-26{fill:#fe9747;}.cls-27{fill:#fd533e;}.cls-28{fill:#fe6a40;}.cls-29{fill:#fe5e3e;}</style></defs><title>Insta</title><path class="cls-1" d="M753.94,180.41A122.47,122.47,0,0,1,756.06,193c2.5,16.43,1.69,33,1.82,49.5.52,68.54.26,137.09.3,205.63,0,2.8,0,5.61-.07,8.41-.76-.08-1-.79-1.34-1.28-2-3.3-3.88-6.75-6.05-10-1.53-2.26-2.51-4.82-4.21-7-2.07-2.63-3.74-5.57-5.61-8.35-2.61-3.87-4.52-8.19-7.93-11.55a12.5,12.5,0,0,1-2-2.47,39.69,39.69,0,0,0-3.24-5.09c-3.42-4.31-6.28-9-9.84-13.27-2.72-3.22-4.88-6.89-7.75-10-1.74-1.91-3-4.22-4.65-6.23s-3.28-3.85-4.8-5.88c-1.75-2.33-4.06-4.25-5.87-6.6-2.33-3-4.81-5.93-7.36-8.76-1.78-2-3.43-4-5.22-6-3.37-3.66-6.81-7.25-10.09-11a16.78,16.78,0,0,0-5.23-4.46c-.61-6.72-.4-13.46-.83-20.2-.87-13.57-.95-27.18-2.6-40.71a181.54,181.54,0,0,0-6.86-32.29,163,163,0,0,0-9.81-23.92c.81-.27,1.32-1,2.27-1.18,2.92-.62,5.55-2.11,8.38-3.06A72,72,0,0,0,665,214.2a45.4,45.4,0,0,1,5.39-1.85c5.56-1.78,10.91-4.1,16.38-6.1,6.08-2.22,12.13-4.51,18.15-6.9,3-1.19,6-2.53,9-3.62,3.22-1.16,6.32-2.6,9.52-3.77q6.93-2.53,13.75-5.33c3-1.25,6.14-2.31,9.11-3.74C748.7,181.73,751,180.11,753.94,180.41Z" transform="translate(-59.62 -57.62)"/><path class="cls-2" d="M388.29,748.64c-6.53,0-13.07.08-19.6.09q-20.24,0-40.48,0c-30.56-.1-61.12-.17-91.68-.38-9.86-.07-19.72-.37-29.54-1.33-7.43-.72-14.82-1.64-22.17-3a153.7,153.7,0,0,1-31.25-8.9,112.53,112.53,0,0,1-15-7.38c.71,0,.94-.55,1.25-1.06a130,130,0,0,1,16.88-21.74,114.39,114.39,0,0,1,15.22-13.31,127.58,127.58,0,0,1,31.89-17.48A123.66,123.66,0,0,1,246,666.78a94.07,94.07,0,0,1,10.44.55c4,.44,8.07.93,12.05,1.69a124.77,124.77,0,0,1,26.23,8.32c13.33,5.78,24.92,14.05,35.43,23.93a122.74,122.74,0,0,1,16.53,18.92A130.41,130.41,0,0,1,361.33,747a1.9,1.9,0,0,0,2.1,1.5c7.66-.06,15.31,0,23,0A3.19,3.19,0,0,1,388.29,748.64Z" transform="translate(-59.62 -57.62)"/><path class="cls-3" d="M603.41,58.67c4,.33,8,.51,12,1,5.51.63,11,1.24,16.5,2.16a151.37,151.37,0,0,1,31.21,8.72c5.48,2.19,11,4.28,16.07,7.4,0,1.58-1.35,1.95-2.31,2.55-4.16,2.61-8.49,4.93-12.75,7.36-5.68,3.25-11.34,6.53-17.07,9.68-5.54,3-11.14,6-16.76,8.9-7.95,4.12-15.9,8.22-23.91,12.22-4.91,2.45-9.94,4.68-14.89,7-4.35,2.07-8.65,4.26-13,6.26-6,2.73-12,5.35-18,8q-11.65,5.14-23.32,10.22c-.56.24-1.12.35-1.17,1.09l-.36,0-.52-.22c-3.6.06-7.12-.76-10.71-.83l-.52-.22c-.34,0-.69.07-1,0-7.58-.35-15.16-.79-22.74-1.05-8.81-.3-17.62-.59-26.44-.65-21.39-.14-42.78-.13-64.16-.19-.76,0-1.52,0-2.27-.08,0-.69.06-1.14.94-1.35,3.06-.72,5.75-2.8,9.11-2.44.15,0,.32-.13.48-.19,6.75-2.59,13.31-5.66,20-8.5,7.72-3.3,15.47-6.6,23-10.43,2.36-1.21,5-2,7.26-3.23,3.44-1.89,7-3.69,10.48-5.35,7.62-3.59,15-7.71,22.69-11.12,3-1.31,5.73-3.26,8.63-4.84q5.6-3.06,11.1-6.3c.71-.42,1.51-.24,2.18-.71,1.47-1,2.95-2.08,4.39-3.15,2.71-2,6.27-2.39,8.73-4.8a8.78,8.78,0,0,1,1.24-1c5.24-3.54,11.06-6.16,16-10.12a1.25,1.25,0,0,1,.47-.23,9.24,9.24,0,0,0,4.1-2.48c2.9-2.85,6.56-4.55,9.73-7a43,43,0,0,1,8.33-5.51,1.2,1.2,0,0,0,.65-1.32c6.68-.18,13.35.11,20,.37a1.4,1.4,0,0,0,1.7,0l1.81,0,.3,0a2.53,2.53,0,0,1,1.59.15Z" transform="translate(-59.62 -57.62)"/><path class="cls-4" d="M388.29,748.64a3.19,3.19,0,0,0-1.88-.2c-7.66,0-15.31,0-23,0a1.9,1.9,0,0,1-2.1-1.5,130.41,130.41,0,0,0-14.67-26.76,122.74,122.74,0,0,0-16.53-18.92c-10.52-9.88-22.11-18.16-35.43-23.93A124.77,124.77,0,0,0,268.47,669c-4-.76-8-1.25-12.05-1.69a94.07,94.07,0,0,0-10.44-.55,123.66,123.66,0,0,0-42.19,7.37,127.58,127.58,0,0,0-31.89,17.48,114.39,114.39,0,0,0-15.22,13.31,130,130,0,0,0-16.88,21.74c-.31.51-.54,1.05-1.25,1.06-7.47-3.41-14-8.3-20.43-13.26a89.54,89.54,0,0,1-9.71-8.5c.83,0,1.14-.69,1.53-1.28,1.7-2.57,3.39-5.15,5.15-7.68a168.32,168.32,0,0,1,16.53-20,171.67,171.67,0,0,1,14.91-13.43A143,143,0,0,1,173.11,646a156.52,156.52,0,0,1,34.19-13.09c2.89-.7,2.88-.75,2.88-3.56a30.7,30.7,0,0,1,2.72,1.51,128.6,128.6,0,0,0,30.31,15.38,159.28,159.28,0,0,0,25.42,6.85,305.5,305.5,0,0,0,40.85,4l21,.82c0,.73.61.92,1.09,1.24,1.79,1.2,3.64,2.3,5.35,3.61a159.64,159.64,0,0,1,22.58,20.75c4.27,4.84,8.53,9.67,12.38,14.85a164.94,164.94,0,0,1,14.74,24.5,147.6,147.6,0,0,1,7.18,16.86c1,2.89,2.34,5.72,2.63,8.83a23,23,0,0,1-4.94,0h-.29l-1.14,0a.63.63,0,0,0-.93,0Z" transform="translate(-59.62 -57.62)"/><path class="cls-5" d="M576.77,58a1.2,1.2,0,0,1-.65,1.32,43,43,0,0,0-8.33,5.51c-3.17,2.42-6.83,4.11-9.73,7a9.24,9.24,0,0,1-4.1,2.48,1.25,1.25,0,0,0-.47.23c-5,4-10.8,6.58-16,10.12a8.78,8.78,0,0,0-1.24,1c-2.46,2.41-6,2.8-8.73,4.8-1.44,1.06-2.92,2.11-4.39,3.15-.67.47-1.47.29-2.18.71q-5.49,3.25-11.1,6.3c-2.9,1.58-5.67,3.53-8.63,4.84-7.72,3.41-15.07,7.53-22.69,11.12-3.52,1.66-7,3.46-10.48,5.35-2.26,1.24-4.9,2-7.26,3.23-7.49,3.84-15.25,7.13-23,10.43-6.64,2.84-13.2,5.91-20,8.5-.16.06-.33.2-.48.19-3.36-.36-6.05,1.71-9.11,2.44-.88.21-1,.65-.94,1.35-.58,0-1.16.07-1.75.07q-20.63,0-41.25,0-23.11,0-46.21.8c-8.51.31-17,.81-25.52,1.23.58-.34,1.27-.49,1.6-1.23a1.07,1.07,0,0,1,1.44-.66c1.15.47,1.62-.18,1.87-1.15a.91.91,0,0,1,.62-.73,49.3,49.3,0,0,0,6.14-2.49c3-1.65,6.65-.45,9.54-2.43,1.75-1.2,4-1.48,5.6-3.05a7.93,7.93,0,0,1,2.82-1.71c5.8-2.07,11.23-5,17-7.22,1.07-.42,2.06-1.42,3.19-1.28,2.92.36,5.13-1.32,7.58-2.28,1.78-.7,3.47-1.62,5.21-2.42,2.79-1.28,5.66-2.4,8.36-3.85,4.81-2.59,9.83-4.73,14.71-7.16,6.49-3.23,12.78-6.82,19.28-10,3.7-1.82,7.28-3.9,10.87-5.94,3.84-2.18,7.66-4.39,11.41-6.71,4.4-2.71,8.73-5.55,13.08-8.34,3.18-2,6.4-4,9.51-6.17Q452,68.7,461,61.17c1.85-1.56,1.95-1.47.47-3.14-.07-.08-.05-.22-.08-.34.64,0,1.28-.06,1.93-.06,22.28,0,44.56,0,66.84.05,3.07,0,6.13-.13,9.2,0a86.51,86.51,0,0,0,13.92.06h1.07a32.92,32.92,0,0,1,6.44.14l.19.06C566.2,57.76,571.48,57.88,576.77,58Z" transform="translate(-59.62 -57.62)"/><path class="cls-6" d="M61.08,203.23c.43-6,1.35-11.91,2.27-17.83.15-1-.05-2,.54-2.88.35,0,.88.07,1-.12,1.09-1.59,2.79-2.11,4.44-2.79a4.4,4.4,0,0,1,2.46-.39c2.33.3,5,1.38,6.39-1.86a.86.86,0,0,1,.53-.4,113.35,113.35,0,0,0,10.94-3.2,24.76,24.76,0,0,1,6.94-1.17c1-.08,1.25-1.08,2.12-1.3,2.61-.66,5.08-1.75,7.72-2.39a99.35,99.35,0,0,0,14.17-4.81c.87-.36,1.94-.27,2.67-1,1.13,1.17,2.36-.19,3.54.13.41.11,1,.13,1.14-.5.26-1.28,1.23-1.23,2.17-1.22a4.4,4.4,0,0,0,3.38-1.11c1.72-1.7,4.47-.86,6.23-2.48a.34.34,0,0,1,.33,0c1,.87,1.75,0,2.48-.43a20.65,20.65,0,0,1,3.69-1.89c3.85-1.45,7.87-2.25,11.83-3.32a12.41,12.41,0,0,0,4.11-1.82c2.18-1.61,4.71-1,7-1.54a2.79,2.79,0,0,1,1.78.69c.52.69-1,2.66-2,2.38-1.71-.52-3.34.06-5,.06-.43,0-1.1-.19-1.17.43-.08.78.67.9,1.22.93a12.55,12.55,0,0,0,4-.09c1.57-.47,3.19-.16,4.69-.61a13.27,13.27,0,0,1,3.64-1.07c.86,0,1.87-.39.84-1.64a5.86,5.86,0,0,1-.5-1.11,1.59,1.59,0,0,0-2.59-.68c-.32.2-.51.69-1.14.42a2.69,2.69,0,0,1,1.49-2.64,2.56,2.56,0,0,1,2.78.41c.35.25.67,1.09,1.22.3a1.93,1.93,0,0,1,2.64-.43c1.2.58,1.85.38,2.34-.76a.71.71,0,0,1,1-.41c1.15.48,2.27-.71,2.69-.61,1.5.36,2.11-.69,3.13-1.11,1.59-.66,3.33-.9,4.75-2,1.25-1,2.72-1.67,4-2.57,1.65-1.12,3.84-.92,5.66-1.9,2.88-1.55,6.17-2.11,9.12-3.54,3.4-1.66,7.07-2.65,10.52-4.12,6.68-2.86,13.44-5.51,20.21-8.15,1.91-.74,3.93-1,5.83-1.75,4.51-1.88,8.84-4.13,13.24-6.24q7.06-3.39,14-7c9.22-4.87,18.15-10.25,27.11-15.58,5.55-3.3,10.75-7.15,16-11A133.94,133.94,0,0,0,332.46,70c2.56-2.35,5.21-4.59,7.7-7,1.36-1.33,2.33-3.06,4.11-4,.62-.32,1.34-.64,1.79-.21,1.59,1.49,2.24.21,3-.87h68.42a1,1,0,0,1-.57.81c-2,1.13-4.51,1.56-5.46,4.09a.29.29,0,0,1-.54,0c-1-1.48-1.07,0-1.35.47-.49.73-.28,1.79-1.31,2.33-1.73.9-3.87,1.39-4.32,3.79,0,.15-.37.24-.55.38-2.25,1.75-5.11,2.52-7.22,4.57a25.88,25.88,0,0,1-1.88,1.83c-1.87,1.46-4,2.58-5.85,4.09-3.25,2.58-6.95,4.6-10.45,6.87-2.19,1.42-4.73,2.49-6.76,4.08-2.68,2.11-5.9,3.07-8.71,4.9a70.9,70.9,0,0,1-7.95,4.54c-3.76,1.8-7.26,4.13-11,6.08-6.92,3.65-14,7-21,10.45-6.54,3.21-13.14,6.34-20,8.91-1.34.5-2.65,1.36-4,1.51a39.22,39.22,0,0,0-10.45,3.2c-7.9,3.28-15.67,6.87-23.84,9.49-1.16.37-2.35.11-3.53.58-1,.39-1.52,1.22-2.46,1.59-3.15,1.24-6.5,1.83-9.57,3.39-4.85,2.47-10.13,3.88-15.25,5.7-3.21,1.14-6.32,2.66-9.69,3.27-2,.37-3.76,1.46-5.67,2.08-4,1.31-8.38,1.28-12.18,3.35a10.94,10.94,0,0,1-2.93,1.24c-3.79.65-7.22,2.29-10.83,3.39-2.42.74-4.77,1.73-7.21,2.43a118.51,118.51,0,0,0-12.53,4c-.77.32-1.6,1.21-2.28-.22-.16-.33-.65-.1-.76.31a2.11,2.11,0,0,1-1.86,1.41c-1.45.27-2.76.91-4.16,1.25-3,.72-6,1.83-8.92,2.75-2.46.77-5.26,1.07-7.35,2.93-.41.36-1,.21-1.5.19-1.45-.06-3.12-.13-3.81,1.42-.87,1.93-2.8,2.1-4.29,2.61-1.16.4-2.57.45-3.86.82s-2.52,1.1-3.81,1.55c-1,.36-1-1-1.66-1.15-1-.18-.21,1.29-1.33,1.59-2.49.68-5,1.14-7.52,1.88-1.69.5-3.55.84-4.93,1.83-1.65,1.19-3.57,1.37-5.28,2.2-1.35.66-3,.07-4.16,2a5.34,5.34,0,0,1-4.61,2.51c-1.28-.06-2.72-.91-3.42,1-.08.21-.62.29-1,.35-2.18.39-4.4.27-6.59.69-1.63.31-3.31.2-5,.65s-3.26.93-5,.3a1.71,1.71,0,0,0-1.85.7,1.59,1.59,0,0,1-1.11.78,13,13,0,0,0-6.49,2,.93.93,0,0,1-1.29-.14c-.7-1.09-1.17-.37-1.77.09-1,.73-1.91,2.23-3.2.31-.14-.21-.78-.13-1.18-.09A1.54,1.54,0,0,1,61.08,203.23Zm103-48.77c-.19-.13-.3-.28-.42-.28s-.36.09-.39.19c-.08.28.14.39.38.37S163.92,154.58,164.11,154.45ZM345.77,60.87c0-.1-.05-.25-.12-.28s-.19.06-.29.1.05.25.12.28S345.68,60.91,345.77,60.87ZM163.3,155.72l0,.26s.09-.08.09-.12S163.33,155.76,163.3,155.72Z" transform="translate(-59.62 -57.62)"/><path class="cls-7" d="M61.08,203.23a1.54,1.54,0,0,0,1.49.7c.4,0,1-.12,1.18.09,1.3,1.92,2.23.42,3.2-.31.61-.45,1.07-1.18,1.77-.09a.93.93,0,0,0,1.29.14,13,13,0,0,1,6.49-2,1.59,1.59,0,0,0,1.11-.78,1.71,1.71,0,0,1,1.85-.7c1.74.63,3.42.13,5-.3s3.36-.34,5-.65c2.19-.42,4.41-.3,6.59-.69.34-.06.88-.14,1-.35.7-1.93,2.13-1.09,3.42-1a5.34,5.34,0,0,0,4.61-2.51c1.11-1.94,2.8-1.35,4.16-2,1.71-.83,3.63-1,5.28-2.2,1.37-1,3.24-1.33,4.93-1.83,2.47-.74,5-1.2,7.52-1.88,1.12-.31.3-1.77,1.33-1.59.62.11.62,1.51,1.66,1.15,1.3-.44,2.47-1.16,3.81-1.55s2.7-.42,3.86-.82c1.49-.51,3.42-.68,4.29-2.61.69-1.55,2.36-1.48,3.81-1.42.54,0,1.09.17,1.5-.19,2.09-1.86,4.89-2.16,7.35-2.93,3-.92,5.89-2,8.92-2.75,1.41-.34,2.72-1,4.16-1.25a2.11,2.11,0,0,0,1.86-1.41c.11-.41.6-.64.76-.31.68,1.43,1.51.54,2.28.22a118.51,118.51,0,0,1,12.53-4c2.43-.7,4.78-1.69,7.21-2.43,3.61-1.11,7-2.75,10.83-3.39a10.94,10.94,0,0,0,2.93-1.24c3.8-2.07,8.17-2,12.18-3.35,1.92-.63,3.63-1.71,5.67-2.08,3.36-.61,6.47-2.13,9.69-3.27,5.11-1.82,10.4-3.23,15.25-5.7,3.06-1.56,6.42-2.15,9.57-3.39.94-.37,1.5-1.2,2.46-1.59,1.18-.47,2.37-.21,3.53-.58,8.16-2.62,15.94-6.2,23.84-9.49a39.22,39.22,0,0,1,10.45-3.2c1.32-.16,2.64-1,4-1.51,6.83-2.56,13.43-5.7,20-8.91,7-3.45,14.1-6.8,21-10.45,3.69-1.95,7.2-4.28,11-6.08a70.9,70.9,0,0,0,7.95-4.54c2.81-1.82,6-2.79,8.71-4.9,2-1.59,4.57-2.66,6.76-4.08,3.5-2.27,7.2-4.29,10.45-6.87,1.89-1.51,4-2.63,5.85-4.09a25.88,25.88,0,0,0,1.88-1.83c2.11-2,5-2.82,7.22-4.57.18-.14.52-.22.55-.38.45-2.4,2.6-2.89,4.32-3.79,1-.54.83-1.59,1.31-2.33.28-.43.35-2,1.35-.47a.29.29,0,0,0,.54,0c1-2.53,3.47-3,5.46-4.09a1,1,0,0,0,.57-.81l.68-.27q14,0,28-.06c5.07,0,10.14,0,15.21.06,0,.11,0,.26.08.34,1.48,1.67,1.39,1.58-.47,3.14q-9,7.52-18.58,14.15c-3.11,2.14-6.33,4.13-9.51,6.17-4.35,2.79-8.68,5.63-13.08,8.34-3.76,2.32-7.58,4.53-11.41,6.71-3.59,2-7.17,4.12-10.87,5.94-6.5,3.19-12.8,6.78-19.28,10-4.88,2.43-9.9,4.57-14.71,7.16-2.7,1.45-5.57,2.57-8.36,3.85-1.74.8-3.43,1.72-5.21,2.42-2.45,1-4.67,2.64-7.58,2.28-1.13-.14-2.12.86-3.19,1.28-5.73,2.24-11.16,5.16-17,7.22a7.93,7.93,0,0,0-2.82,1.71c-1.6,1.57-3.85,1.85-5.6,3.05-2.89,2-6.54.78-9.54,2.43a49.3,49.3,0,0,1-6.14,2.49.91.91,0,0,0-.62.73c-.25,1-.72,1.61-1.87,1.15a1.07,1.07,0,0,0-1.44.66c-.33.74-1,.89-1.6,1.23-5.1.57-10.2,1.09-15.29,1.76a170.3,170.3,0,0,0-42.2,11.49c-12.18,5-23,12.11-33.18,20.4a81.47,81.47,0,0,0-9,8.56c-.8.88-2.26,1.05-2.54,2.44a5.72,5.72,0,0,0-3.71.27c-3.13,1-6.29,2-9.45,2.78-5.21,1.3-10.5,2.39-15.73,3.64-8.68,2.08-17.21,4.77-25.88,6.92-7.36,1.82-14.67,3.87-22,5.94-5.9,1.67-12,2.78-17.87,4.42-5.37,1.49-10.8,2.73-16.15,4.34-5.52,1.66-11.27,2.46-16.79,4.2a3.41,3.41,0,0,1-2.68.15c.18-6.34.34-12.68.56-19C60.74,206.7,60.94,205,61.08,203.23Z" transform="translate(-59.62 -57.62)"/><path class="cls-8" d="M70.11,158.55c1-2.46,1.88-4.93,2.87-7.36,7-17,16.49-32.37,29.34-45.52,9.81-10,20.5-19.11,32.93-25.81a167,167,0,0,1,32.09-13.74,172.36,172.36,0,0,1,31.28-6.24c6.63-.67,13.23-2,19.94-1.56,4.29,0,8.57,0,12.86,0,.61,0,1.28.21,1.83-.28L248.74,58l27.69,0c-.44,1.29-1.55,1-2.49,1a6.76,6.76,0,0,0-5.63,2.61c-1.56,2.1-3,4.29-4.69,6.3a102.23,102.23,0,0,1-12.87,12.52A123.43,123.43,0,0,1,237,90.55c-2.57,1.59-4.92,3.63-7.55,5-5.59,2.86-10.72,6.51-16.47,9.12a97.11,97.11,0,0,0-9.09,5c-1.15.68-2.44,1.07-3.62,1.73a64.65,64.65,0,0,1-7.55,3.61,19.29,19.29,0,0,0-3.77,1.77,7.64,7.64,0,0,1-2,1c-3.26,1-6.16,2.84-9.33,4s-5.85,2.74-9,3.71c-2.14.67-4.23,1.53-6.3,2.41-2.3,1-4.5,2.16-6.82,3.06-5.57,2.17-11.16,4.28-16.79,6.31-8.52,3.07-17.05,6.12-25.64,9-7.39,2.49-14.84,4.75-22.28,7.09-6.38,2-12.78,3.94-19.16,5.95C70.77,159.67,70.19,159.66,70.11,158.55Z" transform="translate(-59.62 -57.62)"/><path class="cls-9" d="M758,520.35a25.12,25.12,0,0,0-.16,6.06c.08,3.73.16,7.47.16,11.19,0,19.52-.09,39-.4,58.57a137.75,137.75,0,0,1-2.44,22.58c-.89,4.88-1.33,9.88-3,14.61-1.32-.47-.66-1.94-1.39-2.77a1.42,1.42,0,0,1,.18-2.16c.77-.75.5-1.51-.65-1.52-.74,0-.89-.34-1-.91a15.9,15.9,0,0,0-.46-2.21c-.25-.75-.72-1.32.19-2.1.64-.55.06-1.19-.71-1.29s-1.36-.64-1-1.43a2.58,2.58,0,0,0-.46-2.45c-1.49-2.65-2-5.66-3.09-8.45-.92-2.28-.83-4.94-2.49-7a1.28,1.28,0,0,1-.32-.8c.26-3.08-2.79-5.44-1.88-8.65a.35.35,0,0,0-.13-.31c-2-.61-1.93-2.64-2.53-4.06-.81-1.88-2.48-3.67-1.58-6,.11-.28.1-.57-.29-.68-1.55-.43-2.67-1.39-2.72-2.8-.1-2.81-1.74-5.11-2.47-7.72-.58-2.08-2.16-3.92-2.39-6.27-.07-.75.4-2.24-1.4-1.84-.09,0-.35-.33-.38-.53-.23-1.44-1.29-2.5-1.71-3.87-.27-.86-.84-1.61.63-2-2.52-1-5-5.94-4.08-7.9-1.19.23-1.59-.41-1.56-1.43a3.13,3.13,0,0,0-1-2.36c-.37-.38-.8-.87-.67-1.37.3-1.1-.38-1.62-1.06-2.16a4.61,4.61,0,0,1-1.13-1.53c-1.25-2.3-1.61-5.07-3.52-7-1.43-1.47-1.1-3.62-2.35-5.3-1.93-2.6-3.08-5.77-4.72-8.61-.66-1.15-.71-2.48-1.31-3.54-.75-1.32-2.45-2.39-2.41-3.85,0-1.72-2.55-2.07-1.61-3.95.1-.2-.23-.3-.49-.34-1.79-.3-2.4-1.24-2-3,.16-.81.51-1.71-.52-2.27-.59.45.28,1.06-.31,1.5-.76,0-1-.6-1.14-1.25-.52-1.85-2.27-3.87-3.24-5.55-1.09-1.89-3.31-3.48-2.43-6.13-.68-.28-.6,1-1.32.43a5.49,5.49,0,0,1-.87-4c-2.11.22-2.19-1.43-2.52-2.78-.08-.35.27-.79-.37-.93-1.7-.38-2-1.77-2.1-3.45,0-.15-.07,0-.09.12,0,.37.2,0,.29.1l.22-.36c-.09,0-.18-.07-.42.15a1,1,0,0,1-1.38-.52,7.66,7.66,0,0,0-2.44-4.33c-.21-.18,0-.85,0-1.3-1.48.4-1.39-1.09-2-1.69-1.82-1.66-2.78-4-4.38-5.79-1.39-1.58-1.48-4.34-4.22-4.69q0-1.4,0-2.81,1.43-.7,0-1.4c0-.35-.06-.7-.06-1q0-25,.07-50.06,0-10.76.07-21.52a4.56,4.56,0,0,1,2.21,1.9c2.83,3.46,5.56,7,8.45,10.42,4.66,5.5,9,11.22,13.46,16.9,2.43,3.11,4.61,6.44,7.09,9.49,2.9,3.57,5.49,7.34,8.18,11,5,7,9.66,14.2,14.42,21.35,4.15,6.22,7.8,12.76,11.92,19,3.51,5.34,6.27,11.16,9.52,16.67,2.82,4.78,5,9.86,7.81,14.66a13.14,13.14,0,0,1,1.71,5.43c.36,4,3,7,4.51,10.53.35-1.91.45-2.27.86-2.24C758.28,518.8,757.46,520,758,520.35ZM722.34,552c-.19-.15-.3-.29-.42-.31s-.24.12-.36.19c.1.11.19.27.32.31S722.13,552.08,722.34,552Zm10.1,22.22c0,.1-.14.22-.11.29s.18.09.28.13.14-.22.11-.28S732.54,574.24,732.44,574.2Z" transform="translate(-59.62 -57.62)"/><path class="cls-10" d="M703,93.77a34.29,34.29,0,0,1,5.21,4.63c1.81,2,4,3.51,5.88,5.45a172.45,172.45,0,0,1,17.72,21.74,147,147,0,0,1,9.29,16.14,3.89,3.89,0,0,1,.65,1.79,2,2,0,0,0-.65,2c.33,1.83-.89,2.08-2.06,2.58-1.82.77-3.61,1.6-5.41,2.43-1,.46-1.93,1.16-3.05.18-.26-.23-1.13-.37-1,.34.46,1.91-1.15,1.65-1.74,1.38-.93-.43-.83,0-1.08.56-.42,1-4.59,2.79-5.35,2.22-1-.77-1.67-.15-2.53.12.43.76,1.24-.33,1.51.53-.08.58-.6.69-1,.87-2.58,1.18-5.2,2.26-7.78,3.45-5.13,2.37-10.43,4.4-15.68,6.51-1,.41-1.95,1.73-3.31.58-.29-.24-.4.22-.55.45-1.19,1.8-3.54,1.5-5.07,2.76-.71.58-.8-1.33-1.55-.81-.47.32.07,1.45-.93,1.75-.42.13-.74.53-1.25.55a2.18,2.18,0,0,0-1,.26c-3.24,1.87-6.91,2.72-10.22,4.43-.53.28-1.69,1.54-2.31-.26-.11-.31-.73.16-.65.45.42,1.55-.8,1.55-1.67,1.85s-1.7.43-2.5.75c-7.48,3-14.88,6.23-22.46,9-3,1.09-5.69,3.71-9.33,2.67-.06,0-.19.12-.24.21-1.3,2.33-4,2-5.93,3.1-.13-.12-.27-.22-.39-.35a125.91,125.91,0,0,0-41.71-29.77c-5-2.22-10.16-4-15.27-6a15.29,15.29,0,0,1,1.37-.75c3.2-1.36,6.46-2.6,9.61-4.07s6.35-2.77,9.48-4.24c5-2.34,10.18-4.29,15.23-6.52,4.89-2.16,9.65-4.65,14.59-6.68,4.45-1.84,8.63-4.22,13.17-5.9,3.13-1.15,6.14-2.75,9.18-4.18q15.53-7.35,30.89-15.07c7.23-3.64,14.4-7.4,21.4-11.46C697.49,97.78,701.39,97.38,703,93.77Zm35.82,53.31c-.25,0-.55,0-.53.42a.16.16,0,0,0,.11.11c.39,0,.38-.28.42-.53.25,0,.55,0,.53-.42a.16.16,0,0,0-.11-.11C738.89,146.53,738.9,146.83,738.86,147.08Zm-82.2,34.8c-.8-.14-1.58-.25-2,1Zm48.11-84.48a.68.68,0,0,0-.46-.66c-.39-.11-.49.18-.51.49s0,.6.41.65S704.74,97.74,704.77,97.39Zm30.86,51.4c-.2-.12-.33-.25-.46-.25s-.43.14-.33.4c0,.1.27.17.41.16S735.47,148.94,735.63,148.8Zm-72.47,30.43c0-.1.14-.22.11-.29s-.18-.09-.28-.13-.14.22-.11.29S663.06,179.19,663.16,179.23Zm49.28-20.77-.13.29c.1,0,.22.14.29.11s.09-.18.13-.28Zm-39.7,16.6-.29-.13c0,.1-.14.22-.11.29s.18.09.28.13Zm-6,2.46-.29-.13c0,.1-.14.22-.11.29s.18.09.28.13Z" transform="translate(-59.62 -57.62)"/><path class="cls-11" d="M737.8,670.55c-3.77,7.67-9,14.36-14.27,21A134.8,134.8,0,0,1,701.15,714c-1,.82-2.21,1.47-3.32,2.2-.88-4.79-1.61-9.61-2.67-14.35-1.16-5.2-2-10.48-3.29-15.65-1.56-6.06-2.81-12.21-4.38-18.27-1.36-5.27-2.93-10.49-4.51-15.7-1.41-4.68-2.92-9.33-4.44-14s-3.16-9.38-4.85-14c-1.63-4.48-3.43-8.89-5-13.38-1.35-3.86-3.43-7.38-5-11.16-3-7.46-6.44-14.75-9.94-22-.51-1.07-.8-2.5-2.24-2.93.18-.49.34-1,.54-1.47,6.79-16.49,10.45-33.7,12.09-51.41.62-6.69.83-13.4,1.34-20.1,1.47-.14,1.84,1.11,2.38,2,7.39,12.08,14.31,24.43,21,36.93,4.4,8.29,8.24,16.85,12.38,25.27,5.19,10.56,9.47,21.54,13.64,32.53,4.23,11.16,8.19,22.43,11.57,33.89,3.57,12.1,7.38,24.13,10.31,36.41A2.28,2.28,0,0,0,737.8,670.55Z" transform="translate(-59.62 -57.62)"/><path class="cls-12" d="M70.11,158.55c.08,1.11.66,1.12,1.57.84,6.38-2,12.78-3.95,19.16-5.95,7.44-2.33,14.9-4.6,22.28-7.09,8.58-2.89,17.11-6,25.64-9,5.63-2,11.22-4.14,16.79-6.31,2.32-.9,4.52-2.09,6.82-3.06,2.07-.87,4.16-1.73,6.3-2.41,3.1-1,5.93-2.57,9-3.71s6.07-3,9.33-4a7.64,7.64,0,0,0,2-1,19.29,19.29,0,0,1,3.77-1.77,64.65,64.65,0,0,0,7.55-3.61c1.18-.66,2.47-1,3.62-1.73a97.11,97.11,0,0,1,9.09-5c5.75-2.62,10.88-6.26,16.47-9.12,2.63-1.35,5-3.39,7.55-5a123.43,123.43,0,0,0,13.75-10.11,102.23,102.23,0,0,0,12.87-12.52c1.71-2,3.13-4.2,4.69-6.3A6.76,6.76,0,0,1,273.94,59c.95,0,2,.27,2.49-1q15.64,0,31.28,0c.68,0,1.41.22,2-.24h.73c.11.15.22.15.34,0h.72c.11.15.22.15.34,0h.73a2.64,2.64,0,0,0,2.42,0h.73c.11.15.22.15.34,0h.72c.11.15.22.15.34,0h.73a1.43,1.43,0,0,0,1.72,0h.73c.11.15.22.15.34,0h.72c.11.15.22.15.34,0h.72c.11.15.22.15.34,0h.73c2.32.57,4.67.12,7,.24l18.59,0c-.77,1.07-1.42,2.36-3,.87-.45-.43-1.17-.12-1.79.21-1.77.92-2.75,2.66-4.11,4-2.49,2.43-5.14,4.68-7.7,7a133.94,133.94,0,0,1-11.68,9.4c-5.21,3.81-10.42,7.65-16,11-9,5.33-17.89,10.71-27.11,15.58q-6.92,3.66-14,7c-4.4,2.11-8.73,4.36-13.24,6.24-1.9.79-3.92,1-5.83,1.75-6.77,2.63-13.53,5.29-20.21,8.15-3.45,1.48-7.13,2.47-10.52,4.12-2.95,1.44-6.24,2-9.12,3.54-1.82,1-4,.78-5.66,1.9-1.33.9-2.8,1.58-4,2.57-1.42,1.14-3.16,1.37-4.75,2-1,.43-1.63,1.47-3.13,1.11-.42-.1-1.54,1.09-2.69.61a.71.71,0,0,0-1,.41c-.49,1.14-1.14,1.34-2.34.76a1.93,1.93,0,0,0-2.64.43c-.55.79-.87-.05-1.22-.3a2.56,2.56,0,0,0-2.78-.41,2.69,2.69,0,0,0-1.49,2.64c.63.27.82-.22,1.14-.42a1.59,1.59,0,0,1,2.59.68,5.86,5.86,0,0,0,.5,1.11c1,1.24,0,1.62-.84,1.64a13.27,13.27,0,0,0-3.64,1.07c-1.51.45-3.12.15-4.69.61a12.55,12.55,0,0,1-4,.09c-.55,0-1.31-.15-1.22-.93.07-.63.74-.43,1.17-.43,1.66,0,3.3-.58,5-.06.92.28,2.47-1.69,2-2.38a2.79,2.79,0,0,0-1.78-.69c-2.34.52-4.87-.07-7,1.54a12.41,12.41,0,0,1-4.11,1.82c-4,1.07-8,1.86-11.83,3.32a20.65,20.65,0,0,0-3.69,1.89c-.73.46-1.48,1.3-2.48.43a.34.34,0,0,0-.33,0c-1.77,1.62-4.52.78-6.23,2.48a4.4,4.4,0,0,1-3.38,1.11c-.94,0-1.92-.06-2.17,1.22-.13.63-.73.61-1.14.5-1.18-.32-2.41,1-3.54-.13-.74.76-1.8.67-2.67,1a99.35,99.35,0,0,1-14.17,4.81c-2.64.64-5.11,1.73-7.72,2.39-.88.22-1.09,1.23-2.12,1.3a24.76,24.76,0,0,0-6.94,1.17A113.35,113.35,0,0,1,78.72,177a.86.86,0,0,0-.53.4c-1.36,3.24-4.06,2.16-6.39,1.86a4.4,4.4,0,0,0-2.46.39c-1.65.69-3.36,1.2-4.44,2.79-.13.18-.66.09-1,.12a120.34,120.34,0,0,1,3.27-14.72A62.25,62.25,0,0,1,70.11,158.55Z" transform="translate(-59.62 -57.62)"/><path class="cls-13" d="M677.47,729.17c-3.93,1.93-7.88,3.81-11.94,5.5a153.65,153.65,0,0,1-17.9,6.18c-4.15,1.15-8.33,2.15-12.57,2.9-.94-5.65-1.49-11.34-2.8-16.95-1.53-6.54-2.55-13.2-3.93-19.78a419.87,419.87,0,0,0-10.88-40.9c-3.44-10.82-7.33-21.48-11.57-32-.45-1.11-.9-1.73-2.14-.94a.91.91,0,0,1-1.38-.25c.32-.25.62-.52,1-.75,13.13-8.75,24.08-19.8,33.84-32.1.69-.86,1.34-1.75,2-2.62.55,1.61,2.33,3,.88,5-.06.08.07.32.14.47.83,1.82,1.72,3.61,2.46,5.47.55,1.36,1.49,2.62,1.94,3.83.61,1.68,1.2,3.36,1.89,5,1.48,3.64,2.49,7.45,4.36,11,1,1.94.92,4.28,1.87,6.31a19.14,19.14,0,0,1,1.55,3.11c1.83,7,4.65,13.78,6.36,20.86.21.87,1,1.42,1.06,2.37a19.92,19.92,0,0,0,1.6,6.4,29.21,29.21,0,0,1,1.71,6c.32,1.9,2.29,3.59,1,5.76-.07.11.27.47.43.71.65.94,1.75,2.28,1.66,2.87-.32,2.06.87,3.71,1,5.61.06,1.07,0,2.42.79,3.14,1,.91.71,1.94.76,2.95,0,.38-.23.76,0,1.17,1,1.73,1,3.77,1.43,5.64,1,4.64,1.65,9.35,2.63,14S675.57,724.66,677.47,729.17Z" transform="translate(-59.62 -57.62)"/><path class="cls-14" d="M758,520.35c-.59-.39.24-1.55-.87-1.63-.41,0-.51.33-.86,2.24-1.53-3.5-4.15-6.49-4.51-10.53A13.14,13.14,0,0,0,750.1,505c-2.77-4.8-5-9.88-7.81-14.66-3.25-5.51-6-11.33-9.52-16.67-4.11-6.26-7.77-12.8-11.92-19-4.76-7.14-9.38-14.39-14.42-21.35-2.69-3.71-5.28-7.48-8.18-11-2.48-3-4.65-6.38-7.09-9.49-4.44-5.67-8.81-11.4-13.46-16.9-2.89-3.41-5.61-7-8.45-10.42a4.56,4.56,0,0,0-2.21-1.9c0-6.12-.08-12.23-.1-18.35q0-13.29-.07-26.57a16.78,16.78,0,0,1,5.23,4.46c3.29,3.73,6.73,7.32,10.09,11,1.79,1.94,3.45,4,5.22,6,2.55,2.83,5,5.75,7.36,8.76,1.82,2.35,4.12,4.26,5.87,6.6,1.52,2,3.19,4,4.8,5.88s2.91,4.32,4.65,6.23c2.87,3.14,5,6.8,7.75,10,3.56,4.23,6.42,9,9.84,13.27a39.69,39.69,0,0,1,3.24,5.09,12.5,12.5,0,0,0,2,2.47c3.4,3.36,5.32,7.68,7.93,11.55,1.88,2.78,3.54,5.72,5.61,8.35,1.7,2.17,2.68,4.73,4.21,7,2.17,3.22,4,6.67,6.05,10,.3.48.57,1.19,1.34,1.28,0,8.77,0,17.54,0,26.31q0,17.71,0,35.42C758.11,519,758.07,519.65,758,520.35Z" transform="translate(-59.62 -57.62)"/><path class="cls-15" d="M737.8,670.55a2.28,2.28,0,0,1-1.06-1.72c-2.93-12.28-6.74-24.31-10.31-36.41-3.38-11.46-7.34-22.73-11.57-33.89-4.17-11-8.45-22-13.64-32.53-4.14-8.42-8-17-12.38-25.27-6.64-12.51-13.56-24.85-21-36.93-.54-.88-.91-2.14-2.38-2,.15-6.33.47-12.65.9-19,.51-7.45.39-14.95.54-22.42,2.74.35,2.83,3.11,4.22,4.69,1.6,1.82,2.56,4.13,4.38,5.79.66.6.56,2.09,2,1.69,0,.44-.22,1.12,0,1.3a7.66,7.66,0,0,1,2.44,4.33,1.28,1.28,0,0,0,1.27.8c.25,1.4.51,2.8,2.22,3.17.64.14.28.59.37.93.33,1.35.41,3,2.52,2.78a5.49,5.49,0,0,0,.87,4c.73.57.65-.71,1.32-.43-.88,2.65,1.34,4.24,2.43,6.13,1,1.68,2.73,3.7,3.24,5.55.18.65.38,1.21,1.14,1.25.59-.43-.27-1,.31-1.5,1,.56.67,1.46.52,2.27-.35,1.79.26,2.73,2,3,.25,0,.59.14.49.34-.94,1.87,1.65,2.23,1.61,3.95,0,1.46,1.66,2.53,2.41,3.85.6,1.06.64,2.39,1.31,3.54,1.64,2.84,2.78,6,4.72,8.61,1.26,1.69.93,3.83,2.35,5.3,1.91,2,2.27,4.72,3.52,7a4.61,4.61,0,0,0,1.13,1.53c.67.53,1.36,1.06,1.06,2.16-.14.49.3,1,.67,1.37a3.13,3.13,0,0,1,1,2.36c0,1,.37,1.66,1.56,1.43-.91,2,1.55,6.88,4.08,7.9-1.47.42-.9,1.17-.63,2,.42,1.37,1.48,2.43,1.71,3.87,0,.2.29.54.38.53,1.79-.39,1.32,1.09,1.4,1.84.23,2.36,1.81,4.2,2.39,6.27.73,2.6,2.37,4.91,2.47,7.72.05,1.41,1.17,2.38,2.72,2.8.39.11.4.39.29.68-.89,2.37.77,4.16,1.58,6,.61,1.41.54,3.44,2.53,4.06a.35.35,0,0,1,.13.31c-.91,3.22,2.13,5.58,1.88,8.65a1.28,1.28,0,0,0,.32.8c1.66,2,1.57,4.7,2.49,7,1.12,2.78,1.6,5.8,3.09,8.45a2.58,2.58,0,0,1,.46,2.45c-.32.78.14,1.3,1,1.43s1.35.75.71,1.29c-.91.78-.44,1.35-.19,2.1a15.9,15.9,0,0,1,.46,2.21c.1.57.26.9,1,.91,1.16,0,1.42.77.65,1.52a1.42,1.42,0,0,0-.18,2.16c.73.83.07,2.3,1.39,2.77a103.27,103.27,0,0,1-4.41,15.2,155.29,155.29,0,0,1-9.42,21.15A7.41,7.41,0,0,1,737.8,670.55Z" transform="translate(-59.62 -57.62)"/><path class="cls-16" d="M80.32,669.84c-3.66-6.24-6.19-13-9.13-19.58C68.86,645,67.58,639.5,66,634.05c.63.1.89-.33,1.26-.74,2.73-3,5.4-6.09,8.26-9,4-4,7.82-8.3,12-12.19,6.28-5.81,12.72-11.39,19.54-16.55a230.8,230.8,0,0,1,38.71-23.9c5.4-2.61,10.91-5,16.36-7.48.33.8.67,1.59,1,2.39,1.45,3.7,2.69,7.5,4.39,11.08,2.73,5.74,6.15,11.12,9.33,16.62a3.51,3.51,0,0,1-2,1.62c-4.55,1.79-9.11,3.57-13.53,5.67A234.58,234.58,0,0,0,135,616.72c-9.95,6.43-18.85,14.18-27.48,22.25-4,3.7-7.75,7.53-11.33,11.61-4.92,5.59-9.62,11.34-14,17.4C81.74,668.66,81.48,669.76,80.32,669.84Z" transform="translate(-59.62 -57.62)"/><path class="cls-17" d="M627,194.44c2-1.05,4.63-.77,5.93-3.1.05-.09.18-.23.24-.21,3.65,1,6.33-1.58,9.33-2.67,7.57-2.75,15-6,22.46-9,.81-.32,1.68-.47,2.5-.75s2.1-.3,1.67-1.85c-.08-.3.54-.76.65-.45.62,1.79,1.77.53,2.31.26,3.31-1.71,7-2.56,10.22-4.43a2.18,2.18,0,0,1,1-.26c.51,0,.83-.42,1.25-.55,1-.3.47-1.43.93-1.75.75-.51.84,1.39,1.55.81,1.54-1.26,3.88-1,5.07-2.76.15-.23.26-.7.55-.45,1.37,1.14,2.28-.17,3.31-.58,5.25-2.11,10.55-4.14,15.68-6.51,2.58-1.19,5.2-2.27,7.78-3.45.4-.18.92-.29,1-.87-.27-.86-1.08.23-1.51-.53.86-.27,1.51-.88,2.53-.12.76.57,4.93-1.22,5.35-2.22.25-.6.15-1,1.08-.56.58.27,2.2.53,1.74-1.38-.17-.71.69-.57,1-.34,1.12,1,2.05.28,3.05-.18,1.79-.83,3.59-1.66,5.41-2.43,1.17-.5,2.4-.75,2.06-2.58a2,2,0,0,1,.65-2c1.64,2.36,2.53,5.08,3.62,7.69a149,149,0,0,1,8.49,28.34,5.9,5.9,0,0,1,0,.87c-2.92-.3-5.24,1.32-7.66,2.48-3,1.43-6.08,2.48-9.11,3.74q-6.82,2.82-13.75,5.33c-3.21,1.17-6.3,2.61-9.52,3.77-3,1.08-6,2.42-9,3.62-6,2.39-12.07,4.68-18.15,6.9-5.47,2-10.82,4.32-16.38,6.1A45.4,45.4,0,0,0,665,214.2a72,72,0,0,1-7.57,3.08c-2.83,1-5.47,2.44-8.38,3.06-1,.2-1.46.9-2.27,1.18-2.45-4.29-5-8.53-7.73-12.64C635.52,203.64,631.06,199.23,627,194.44Z" transform="translate(-59.62 -57.62)"/><path class="cls-18" d="M162.13,564.22c-5.46,2.49-11,4.87-16.36,7.48a230.8,230.8,0,0,0-38.71,23.9c-6.82,5.16-13.26,10.74-19.54,16.55-4.2,3.89-8,8.15-12,12.19-2.87,2.88-5.53,6-8.26,9-.36.4-.63.84-1.26.74a191.52,191.52,0,0,1-3.75-20.72A175.31,175.31,0,0,1,60.36,592c.9.13,1.36-.54,1.89-1.06,2.28-2.26,4.39-4.73,6.87-6.75,6.08-5,11.81-10.31,18.07-15,5.24-4,10.46-8,16-11.5s11.3-6.94,17.06-10.24a174.18,174.18,0,0,1,19.51-9.78c4.4-1.84,8.78-3.73,13.17-5.61.69-.3,1.44-.58,1.49-1.52a3,3,0,0,1,.23.65A181.06,181.06,0,0,0,158,550C159.07,554.78,160.73,559.47,162.13,564.22Z" transform="translate(-59.62 -57.62)"/><path class="cls-19" d="M59.72,323.55q0-16.42-.07-32.85c0-1.45.05-2.91.08-4.36.25-.16.65-.26.72-.47.69-2.06,2.46-2.11,4.17-2.42,1.19-.22,2.58-.09,3.37-1.47.23-.39,1-.28,1.5-.08a3.17,3.17,0,0,0,3.75-1.35c1.51-2,3.77-1.8,5.66-2.49.94-.34,2.38.93,3.2-.73.05-.11.65,0,1,.09,1.08.18,2.66.19,3-.35a4.55,4.55,0,0,1,3.77-1.82c1.71-.12,3.4-.18,4.81-1.18,2.24-1.6,4.94-.46,7.43-1.52a74.08,74.08,0,0,1,7.41-2.61,13.2,13.2,0,0,1,5.14-.71c1.71.16,3.35.19,4.41-1.59a1.68,1.68,0,0,1,1.45-.88c2.39.26,4.4-2.14,7-.81.88.44,2.26-.49,3.17-.51,2.37,0,4.39-1.33,6.87-1.22,2.08.09,4.38-.7,6.59-.88,1.48-.12,3-1,4.46-.26,2.45,1.19,4.11-.87,6.15-1.28a1.44,1.44,0,0,0,0-.32c-.35-.53-1.23.44-1.43-.49-.05-.24.09-.54.35-.49.54.1,1.45-.23,1.54.33.15.95,1.14,1,1.39,1.68a234.89,234.89,0,0,0-3.8,31.67c-.12,2.67-.35,5.33-.53,8a3.18,3.18,0,0,0-1.91-.46c-4.92.6-9.64,2.08-14.45,3.16-5.81,1.31-11.56,2.9-17.35,4.28-6,1.42-11.89,3-17.92,4.21-2.19.43-4.38,1.22-6.51,1.57a81.29,81.29,0,0,0-8.24,2c-3.12.85-6.14,2.07-9.25,2.91-3.3.9-6.69,1.43-10,2.2C64.36,322.62,62.21,323.92,59.72,323.55Z" transform="translate(-59.62 -57.62)"/><path class="cls-20" d="M602.36,632.92a.91.91,0,0,0,1.38.25c1.24-.78,1.69-.17,2.14.94,4.24,10.53,8.13,21.19,11.57,32A419.87,419.87,0,0,1,628.32,707c1.38,6.58,2.4,13.24,3.93,19.78,1.31,5.6,1.86,11.3,2.8,16.95a233.14,233.14,0,0,1-29.37,3.65l-4.35.26a2.54,2.54,0,0,0,.27-2c-.65-2.76-1-5.57-1.58-8.35-1.26-5.71-2.09-11.52-3.24-17.27-2.66-13.3-6.09-26.39-10.06-39.35-2.35-7.69-4.95-15.3-7.87-22.79-1.49-3.83-2.46-7.91-4.94-11.32A178,178,0,0,0,602.36,632.92Z" transform="translate(-59.62 -57.62)"/><path class="cls-16" d="M482.72,748.61q-14.29,0-28.58.07c-2.39,0-4.78-.07-7.18-.11a8.3,8.3,0,0,0-.14-1.39c-1.2-4.44-2.35-8.88-3.64-13.29-4-13.75-9.82-26.77-16.37-39.5a231.72,231.72,0,0,0-21-33.19c-.41-.54-.84-1-.49-1.71s1-.53,1.56-.53c3,0,6,0,8.94,0,.58,0,1.34.34,1.63-.57l15.46,0c1.87.6,3.79.23,5.68.23s3.7.36,5.51-.24h1.79l.69.28c.33,1,1.57,1,2.06,2,1.2,2.26,2.57,4.43,3.83,6.67,3.89,6.92,7.52,14,10.78,21.22,2.2,4.89,4.51,9.74,6.49,14.71a244.28,244.28,0,0,1,10.44,33.29c.95,4,2,7.89,2.54,11.92A.81.81,0,0,0,482.72,748.61Z" transform="translate(-59.62 -57.62)"/><path class="cls-21" d="M703,93.77c-1.64,3.61-5.54,4-8.45,5.7-7,4.06-14.17,7.82-21.4,11.46Q657.84,118.66,642.3,126c-3,1.44-6.05,3-9.18,4.18-4.54,1.67-8.72,4.06-13.17,5.9-4.94,2-9.7,4.52-14.59,6.68-5,2.23-10.23,4.18-15.23,6.52-3.14,1.47-6.34,2.78-9.48,4.24s-6.4,2.71-9.61,4.07a15.29,15.29,0,0,0-1.37.75,4.13,4.13,0,0,1-.69-.09,194.71,194.71,0,0,0-32.91-7c0-.74.61-.85,1.17-1.09q11.67-5.08,23.32-10.22c6-2.64,12-5.26,18-8,4.38-2,8.68-4.19,13-6.26,5-2.36,10-4.59,14.89-7,8-4,16-8.1,23.91-12.22,5.62-2.91,11.22-5.85,16.76-8.9,5.73-3.15,11.39-6.43,17.07-9.68,4.26-2.44,8.59-4.75,12.75-7.36,1-.6,2.35-1,2.31-2.55A115.25,115.25,0,0,1,696.5,88.83C698.69,90.46,701.12,91.77,703,93.77Z" transform="translate(-59.62 -57.62)"/><path class="cls-22" d="M677.47,729.17c-1.9-4.51-1.78-9.41-2.76-14.1s-1.64-9.36-2.63-14c-.4-1.86-.42-3.91-1.43-5.64-.24-.41,0-.79,0-1.17-.06-1,.26-2-.76-2.95-.81-.72-.73-2.07-.79-3.14-.1-1.9-1.29-3.54-1-5.61.09-.59-1-1.93-1.66-2.87-.16-.23-.49-.59-.43-.71,1.26-2.17-.71-3.86-1-5.76a29.21,29.21,0,0,0-1.71-6,19.92,19.92,0,0,1-1.6-6.4c0-.94-.85-1.5-1.06-2.37-1.71-7.08-4.53-13.82-6.36-20.86a19.14,19.14,0,0,0-1.55-3.11c-.95-2-.83-4.37-1.87-6.31-1.86-3.51-2.88-7.32-4.36-11-.69-1.69-1.28-3.37-1.89-5-.44-1.21-1.39-2.47-1.94-3.83-.74-1.85-1.64-3.65-2.46-5.47-.07-.15-.2-.39-.14-.47,1.44-2-.33-3.36-.88-5a153,153,0,0,0,12.38-22.69c1.45.43,1.73,1.86,2.24,2.93,3.49,7.25,6.91,14.54,9.94,22,1.53,3.78,3.61,7.3,5,11.16,1.57,4.49,3.38,8.9,5,13.38q2.54,7,4.85,14c1.52,4.65,3,9.3,4.44,14,1.57,5.21,3.14,10.43,4.51,15.7,1.57,6.06,2.81,12.21,4.38,18.27,1.33,5.17,2.13,10.44,3.29,15.65,1.06,4.75,1.79,9.57,2.67,14.35A125.1,125.1,0,0,1,680,728,8.69,8.69,0,0,1,677.47,729.17Z" transform="translate(-59.62 -57.62)"/><path class="cls-23" d="M59.78,503.54c0-3.55-.09-7.1-.09-10.65q0-13.62.08-27.24a5,5,0,0,0,1.31-.41c4.09-2.71,8.43-5,12.68-7.4a280.46,280.46,0,0,1,27.88-14.26c13.16-5.68,26.39-11.22,40.16-15.3,3-.9,6-2.33,9.28-2.28l.07,33.33c-5.27.85-10.21,2.87-15.14,4.71a319.43,319.43,0,0,0-47.11,21.66q-13.57,7.78-26.57,16.47C61.53,502.72,60.89,503.59,59.78,503.54Z" transform="translate(-59.62 -57.62)"/><path class="cls-20" d="M151.08,426c-3.29-.05-6.23,1.38-9.28,2.28-13.77,4.08-27,9.62-40.16,15.3a280.46,280.46,0,0,0-27.88,14.26c-4.25,2.43-8.59,4.69-12.68,7.4a5,5,0,0,1-1.31.41c0-4.89-.09-9.77-.09-14.66,0-6.69,0-13.38.08-20.08a3.25,3.25,0,0,0,1.94-.72c5-3.23,10.46-5.63,15.75-8.3q13.71-6.93,28-12.59a401.93,401.93,0,0,1,41.65-14c1.52-.42,3-.69,3.16-2.64,0-.13.48-.21.74-.31q.22,7.39,0,14.77a51.37,51.37,0,0,0,.05,10.81Z" transform="translate(-59.62 -57.62)"/><path class="cls-24" d="M210.18,629.39c0,2.81,0,2.86-2.88,3.56A156.52,156.52,0,0,0,173.11,646a143,143,0,0,0-26.6,17.52A171.67,171.67,0,0,0,131.61,677a168.32,168.32,0,0,0-16.53,20c-1.76,2.53-3.45,5.11-5.15,7.68-.39.59-.69,1.24-1.53,1.28A98,98,0,0,1,92.58,688.8c.7.11,1-.33,1.39-.84A160.11,160.11,0,0,1,105,673.18c3.46-3.91,6.66-8.07,10.3-11.83a173.53,173.53,0,0,1,23.37-20.67,202.14,202.14,0,0,1,26.46-16.56,198.05,198.05,0,0,1,23-9.7c2.11-.75,2.14-.82,1.3-2.89a12.33,12.33,0,0,1-.38-1.34c.93,1,1.88,1.89,2.77,2.87,5.39,5.91,11.66,10.8,17.93,15.68l.35.39A.33.33,0,0,1,210.18,629.39Z" transform="translate(-59.62 -57.62)"/><path class="cls-25" d="M156.65,262.5c-.26-.71-1.24-.73-1.39-1.68-.09-.56-1-.23-1.54-.33-.26,0-.4.25-.35.49.2.93,1.08,0,1.43.49a1.44,1.44,0,0,1,0,.32c-2,.41-3.71,2.47-6.15,1.28-1.44-.7-3,.14-4.46.26-2.21.18-4.51,1-6.59.88-2.47-.11-4.5,1.17-6.87,1.22-.91,0-2.29,1-3.17.51-2.61-1.32-4.63,1.07-7,.81a1.68,1.68,0,0,0-1.45.88c-1.06,1.78-2.7,1.75-4.41,1.59a13.2,13.2,0,0,0-5.14.71,74.08,74.08,0,0,0-7.41,2.61c-2.49,1.06-5.19-.08-7.43,1.52-1.4,1-3.1,1.07-4.81,1.18a4.55,4.55,0,0,0-3.77,1.82c-.38.54-2,.53-3,.35-.34-.06-.94-.2-1-.09-.83,1.67-2.26.4-3.2.73-1.89.68-4.16.47-5.66,2.49a3.17,3.17,0,0,1-3.75,1.35c-.46-.2-1.27-.31-1.5.08-.79,1.38-2.17,1.25-3.37,1.47-1.71.32-3.48.36-4.17,2.42-.07.21-.47.32-.72.47-.09-10.28-.22-20.57.17-30.85,1.42.06,2.24-1.28,3.65-1.44a77.53,77.53,0,0,0,14.21-3.21c1.36-.43,3-1.15,4.16-.76a3.6,3.6,0,0,0,3.16-.54,8.26,8.26,0,0,1,1.83-.78c3.86-1.07,7.84-1.56,11.74-2.44,1.88-.43,3.57-2.49,5.81-1.14.06,0,.21-.06.31-.11,2.26-1.25,4.45-2.73,7.26-2a.73.73,0,0,0,.57-.28c.6-.77,1.53-.73,2.3-1.06,1-.44,2.19.36,2.89-.42a1.68,1.68,0,0,1,2.09-.63,1.2,1.2,0,0,0,1.56-.4,1.37,1.37,0,0,1,1.39-.56,8.2,8.2,0,0,0,4.51-.95c1.31-.68,3.21.34,4.32-1.31.06-.09.5-.06.61.06.68.68,1.13,0,1.69-.19a9.44,9.44,0,0,0,2.07-1.2c1.36-.86,2.88.56,4.15-.61.44-.41,1.36-.49,1.85-.8,1.19-.75,2.17.21,3.24,0,2.17-.36,3.91-2.58,6.42-1.46.11,0,.31-.13.47-.21,1.63-.83,3.46-1.28,5.05-1.92,1.78-.72,3.63-.81,5.35-1.49a20.67,20.67,0,0,1,5.12-1.54c-1.63,4.13-3.32,8.24-4.86,12.41A173.6,173.6,0,0,0,156.65,262.5Z" transform="translate(-59.62 -57.62)"/><path class="cls-26" d="M417.48,658.38c-.29.91-1.05.57-1.63.57-3,0-6,0-8.94,0-.57,0-1.23-.12-1.56.53s.08,1.17.49,1.71a231.72,231.72,0,0,1,21,33.19c6.55,12.72,12.34,25.74,16.37,39.5,1.29,4.41,2.44,8.86,3.64,13.29a8.3,8.3,0,0,1,.14,1.39c-2.32,0-4.64.13-7,.12-6.92,0-13.84-.06-20.76-.1-.31-3.4-1.53-6.57-2.59-9.75-4.24-12.67-9.23-25-16.21-36.49-3.87-6.37-7.72-12.75-12.07-18.8A167.72,167.72,0,0,0,372.13,664c-.44-.45-.82-1.17-1.51-1.1-1.54.15-2.47-.88-3.56-1.61-.43-.29-1-.63-1-1.16s.7-.65,1.18-.82,1-.31,1.11-1h2.47c.49.46,1.11.28,1.67.28,3.38,0,6.75,0,10.13,0,.85,0,1.75.27,2.55-.25,2.85,0,5.71-.05,8.56,0Z" transform="translate(-59.62 -57.62)"/><path class="cls-13" d="M151,392.32c-.26.1-.73.19-.74.31-.19,1.95-1.64,2.22-3.16,2.64a401.93,401.93,0,0,0-41.65,14q-14.31,5.68-28,12.59c-5.29,2.67-10.74,5.08-15.75,8.3a3.25,3.25,0,0,1-1.94.72q0-12.92-.09-25.85c0-4,0-8,.07-12a64.56,64.56,0,0,0,12.71-3.5,91,91,0,0,1,11.42-3.74q9-2.14,17.92-4.31c5.84-1.43,11.75-2.6,17.56-4.19,1-.26,1.38-1.29,2.6-1.16a10.5,10.5,0,0,0,6-1.44c1.19-.61,2.82-.3,3.8-1.61a.87.87,0,0,1,.83,0c1.19.93,2.14.49,3.05-.42.47-.47,1.09-.35,1.66-.35,2.22,0,4.24-.85,6.33-1.4.58-.16.45-1.05,1.13-.91a8,8,0,0,0,6.35-1.54C151.19,376.42,151.24,384.37,151,392.32Z" transform="translate(-59.62 -57.62)"/><path class="cls-26" d="M189.09,610.19a12.31,12.31,0,0,0,.38,1.34c.84,2.07.81,2.14-1.3,2.89a198.05,198.05,0,0,0-23,9.7,202.14,202.14,0,0,0-26.46,16.56,173.53,173.53,0,0,0-23.37,20.67c-3.63,3.75-6.84,7.91-10.3,11.83A160.11,160.11,0,0,0,94,688c-.35.5-.69.94-1.39.84a110.28,110.28,0,0,1-12.26-19c1.16-.08,1.42-1.18,1.91-1.87,4.34-6.06,9-11.8,14-17.4,3.58-4.07,7.38-7.91,11.33-11.61,8.63-8.07,17.53-15.82,27.48-22.25a234.58,234.58,0,0,1,26.36-15.11c4.42-2.1,9-3.88,13.53-5.67a3.51,3.51,0,0,0,2-1.62A177.59,177.59,0,0,0,189.09,610.19Z" transform="translate(-59.62 -57.62)"/><path class="cls-27" d="M59.78,503.54c1.12,0,1.75-.82,2.56-1.36q13-8.69,26.57-16.47A319.43,319.43,0,0,1,136,464c4.93-1.85,9.87-3.87,15.14-4.71l.48,26.64a2.64,2.64,0,0,0-.52.09c-8.53,3.25-17.16,6.24-25.5,10-7.71,3.47-15.2,7.39-22.74,11.19-4.1,2.06-8,4.59-11.92,6.93-8.51,5.05-16.53,10.83-24.64,16.49-2.13,1.48-3.84,3.57-6.38,4.44,0-5.08-.11-10.15-.07-15.23s-.34-10,0-15l.05-.16-.12-.13Z" transform="translate(-59.62 -57.62)"/><path class="cls-28" d="M154.4,530.44c0,.95-.8,1.23-1.49,1.52-4.38,1.88-8.77,3.77-13.17,5.61a174.18,174.18,0,0,0-19.51,9.78c-5.75,3.3-11.47,6.67-17.06,10.24s-10.75,7.53-16,11.5c-6.26,4.74-12,10.1-18.07,15-2.48,2-4.59,4.49-6.87,6.75-.53.53-1,1.19-1.89,1.06C60,581.31,59.87,570.67,60,560a1.57,1.57,0,0,0,.93-.43c3.59-2.84,7-5.94,10.69-8.64,5.21-3.79,10.33-7.72,15.6-11.43A259.94,259.94,0,0,1,114,523.42a262.28,262.28,0,0,1,35.53-15.94c1.94-.7,3.06-1.56,2.8-3.7.56,2.47.31,5,.46,7.48C153.14,517.68,153.83,524.06,154.4,530.44Z" transform="translate(-59.62 -57.62)"/><path class="cls-23" d="M573.93,646.56c2.48,3.41,3.45,7.49,4.94,11.32,2.92,7.49,5.52,15.1,7.87,22.79,4,13,7.4,26.05,10.06,39.35,1.15,5.75,2,11.56,3.24,17.27.61,2.78.93,5.59,1.58,8.35a2.54,2.54,0,0,1-.27,2c-8.19.51-16.38.81-24.59.63-.49-2.44-.45-4.93-1-7.4-1-4.81-1.39-9.74-2.58-14.51-.73-2.91-1.12-5.88-2-8.78-1.44-4.92-2.11-10-3.85-14.91-1.61-4.51-2.86-9.15-4.16-13.76-.3-1.08-.94-2-1.15-3.1-.92-4.68-2.89-9-4.37-13.52-1.54-4.67-3.71-9.13-5.42-13.75-.68-1.83-1.82-3.54-1.84-5.6C558.35,651.12,566.22,649.15,573.93,646.56Z" transform="translate(-59.62 -57.62)"/><path class="cls-28" d="M533.26,748.44c-8.77.22-17.54.14-26.32,0-.14-1.21-.21-2.43-.43-3.62a273.74,273.74,0,0,0-9.08-34.3c-3-9.37-6.39-18.6-10.3-27.63-3-6.89-6.06-13.75-9.72-20.33-.77-1.39-1.85-2.69-2-4.38l1.83-.06a3.82,3.82,0,0,0,2.31-.05,5.43,5.43,0,0,1,2.2,0,1,1,0,0,0,1.36-.07h.72c.12.17.23.16.34,0l21.76-.7c-.36.18-.76.58-1.06.51-1.93-.46-1.59.65-1,1.56,1.4,2.18,1.55,5.21,4.33,6.48.18.08.28.37.37.58,1.22,2.83,2.48,5.65,3.65,8.5A324.64,324.64,0,0,1,524,708.26c2,6.91,3.78,13.89,5.39,20.91C530.89,735.56,532,742,533.26,748.44Z" transform="translate(-59.62 -57.62)"/><path class="cls-24" d="M368.36,658.33c-.08.66-.63.78-1.11,1s-1.18.18-1.18.82.56.87,1,1.16c1.09.73,2,1.76,3.56,1.61.69-.07,1.07.65,1.51,1.1a167.72,167.72,0,0,1,16.24,19.58c4.35,6.06,8.2,12.43,12.07,18.8,7,11.48,12,23.82,16.21,36.49,1.06,3.18,2.29,6.35,2.59,9.75-5.63,0-11.27.09-16.9.11-2,0-3.95-.06-5.92-.09-.29-3.12-1.61-5.95-2.63-8.83a147.6,147.6,0,0,0-7.18-16.86,164.94,164.94,0,0,0-14.74-24.5c-3.85-5.18-8.11-10-12.38-14.85a159.64,159.64,0,0,0-22.58-20.75c-1.7-1.31-3.56-2.41-5.35-3.61-.47-.32-1.09-.51-1.09-1.24l4.57,0c.92.86,2,.42,3,.25,1.37-.25,2.7.81,4,0l6.68,0,4.11,0Z" transform="translate(-59.62 -57.62)"/><path class="cls-27" d="M550.45,653c0,2.06,1.16,3.77,1.84,5.6,1.71,4.62,3.88,9.08,5.42,13.75,1.48,4.49,3.45,8.84,4.37,13.52.21,1.08.84,2,1.15,3.1,1.3,4.61,2.54,9.26,4.16,13.76,1.74,4.87,2.41,10,3.85,14.91.85,2.9,1.25,5.87,2,8.78,1.19,4.77,1.6,9.7,2.58,14.51.5,2.47.47,5,1,7.4-5.32.05-10.63.12-15.95.14-2.86,0-5.73,0-8.59-.06a15.15,15.15,0,0,0-.05-2.28c-1.44-8.41-2.92-16.83-5-25.1-3.85-15.48-8-30.87-14.36-45.57-2.51-5.76-4.76-11.65-7.24-17.43-.27-.62-.51-1.18,0-1.79l9.68-1C540.34,654.71,545.37,653.71,550.45,653Z" transform="translate(-59.62 -57.62)"/><path class="cls-18" d="M475.38,658.21c.17,1.69,1.25,3,2,4.38,3.66,6.58,6.73,13.44,9.72,20.33,3.91,9,7.3,18.26,10.3,27.63a273.74,273.74,0,0,1,9.08,34.3c.22,1.19.29,2.41.43,3.62l-7,.08H487l-4.23-.14c-.56-4-1.59-8-2.54-11.92a244.28,244.28,0,0,0-10.44-33.29c-2-5-4.29-9.83-6.49-14.71-3.26-7.24-6.89-14.3-10.78-21.22-1.26-2.23-2.63-4.41-3.83-6.67-.5-.93-1.73-.95-2.06-2l.34-.27,21-.13Z" transform="translate(-59.62 -57.62)"/><path class="cls-29" d="M152.29,503.79c.26,2.14-.86,3-2.8,3.7A262.28,262.28,0,0,0,114,523.42a259.94,259.94,0,0,0-26.74,16.1c-5.28,3.71-10.39,7.64-15.6,11.43-3.72,2.7-7.09,5.8-10.69,8.64A1.57,1.57,0,0,1,60,560l-.07-24.91c2.55-.87,4.26-3,6.38-4.44C74.42,525,82.44,519.24,91,514.18c4-2.35,7.82-4.87,11.92-6.93,7.54-3.8,15-7.72,22.74-11.19,8.35-3.75,17-6.75,25.5-10a2.64,2.64,0,0,1,.52-.09C152,491.91,152.27,497.84,152.29,503.79Z" transform="translate(-59.62 -57.62)"/><path class="cls-5" d="M60.13,227.45a3.41,3.41,0,0,0,2.68-.15c5.52-1.75,11.27-2.54,16.79-4.2,5.34-1.61,10.78-2.85,16.15-4.34,5.91-1.64,12-2.75,17.87-4.42,7.3-2.07,14.61-4.12,22-5.94,8.67-2.15,17.2-4.83,25.88-6.92,5.22-1.25,10.51-2.34,15.73-3.64,3.16-.79,6.32-1.79,9.45-2.78a5.72,5.72,0,0,1,3.71-.27,152.91,152.91,0,0,0-15.07,19.78c-2.87.59-5.77,1.05-8.59,1.81-5,1.36-10,3.1-15.08,4.32-5.4,1.29-10.66,3.1-16.15,4.06a53.45,53.45,0,0,0-6.22,1.55c-4.93,1.49-10,2.35-15,3.82-5.87,1.75-11.88,3-17.78,4.64-3.28.91-6.56,1.76-9.87,2.57-6,1.48-12.06,3-18.14,4.28-2.87.6-5.67,1.51-8.5,2.28Z" transform="translate(-59.62 -57.62)"/><path class="cls-29" d="M525.54,656.22c-.48.6-.24,1.16,0,1.79,2.48,5.78,4.73,11.67,7.24,17.43,6.4,14.7,10.52,30.09,14.36,45.57,2.06,8.28,3.54,16.69,5,25.1a15.15,15.15,0,0,1,.05,2.28l-18.95,0c-1.25-6.43-2.36-12.88-3.84-19.26-1.62-7-3.38-14-5.39-20.91a324.64,324.64,0,0,0-11.84-33.37c-1.18-2.85-2.43-5.67-3.65-8.5-.09-.21-.2-.5-.37-.58-2.78-1.27-2.93-4.3-4.33-6.48-.58-.91-.93-2,1-1.56.29.07.7-.33,1.06-.51Z" transform="translate(-59.62 -57.62)"/><path class="cls-9" d="M59.72,361.1q0-4.05,0-8.11a18.55,18.55,0,0,0,0-6.58q0-2.47,0-4.94a2.22,2.22,0,0,0,2.76-.11c1-1.6,2.79-.39,3.89-1.55.53-.56,1.72.22,2.68-.08A21.92,21.92,0,0,1,75,338.65a2.71,2.71,0,0,0,1.93-.69c.61-.61,1.2-.54,2-.47,3.72.29,4,.36,5.24-2.58a1.22,1.22,0,0,1,1.37-.82c3,.2,5.78-1.12,8.61-1.73a105.76,105.76,0,0,0,11.75-2.72c3.31-1.11,7-1.19,10-3,1.72-1,3.52-.53,5.28-.72,2-.22,3.87-1.11,5.85-1.52,4.73-1,10-.31,14.09-3.61a.59.59,0,0,1,.34,0,19.13,19.13,0,0,0,4-.44c2.12-.39,4.61.34,6.3-1.67-.09,3.95-.16,7.89-.28,11.84a38.81,38.81,0,0,1-.25,6.42c-2.32.51-4.65,1-6.95,1.54-8.83,2.25-17.67,4.48-26.47,6.85-4.64,1.25-9.22,2.69-13.93,3.74-6.63,1.48-13.17,3.35-19.75,5.06-5.34,1.38-10.71,2.68-16,4.17C65.28,359,62.52,360.14,59.72,361.1Z" transform="translate(-59.62 -57.62)"/><path class="cls-14" d="M151.77,318.64c-1.7,2-4.18,1.28-6.3,1.67a19.13,19.13,0,0,1-4,.44.59.59,0,0,0-.34,0c-4.13,3.31-9.36,2.65-14.09,3.61-2,.41-3.82,1.3-5.85,1.52-1.75.19-3.56-.28-5.28.72-3.09,1.8-6.74,1.88-10,3a105.76,105.76,0,0,1-11.75,2.72c-2.83.61-5.6,1.92-8.61,1.73a1.22,1.22,0,0,0-1.37.82c-1.23,2.94-1.52,2.87-5.24,2.58-.82-.06-1.41-.14-2,.47a2.71,2.71,0,0,1-1.93.69A21.92,21.92,0,0,0,69,339.73c-1,.3-2.15-.47-2.68.08-1.1,1.16-2.92-.05-3.89,1.55a2.22,2.22,0,0,1-2.76.11q0-1.79,0-3.58a7.5,7.5,0,0,0,0-4.13q0-5.11,0-10.21c2.49.37,4.64-.94,6.94-1.47,3.34-.77,6.73-1.31,10-2.2,3.12-.85,6.14-2.06,9.25-2.91a81.29,81.29,0,0,1,8.24-2c2.14-.35,4.33-1.14,6.51-1.57,6-1.18,12-2.79,17.92-4.21,5.8-1.38,11.54-3,17.35-4.28,4.81-1.08,9.52-2.56,14.45-3.16a3.18,3.18,0,0,1,1.91.46Z" transform="translate(-59.62 -57.62)"/><path class="cls-11" d="M59.72,361.1c2.8-1,5.56-2.06,8.41-2.85,5.32-1.48,10.68-2.78,16-4.17,6.58-1.7,13.12-3.58,19.75-5.06,4.71-1,9.28-2.49,13.93-3.74,8.8-2.36,17.63-4.6,26.47-6.85,2.3-.59,4.63-1,6.95-1.54l-.11,17.89a6.1,6.1,0,0,0-2-.26c-4.75,1.09-9.51,2.13-14.19,3.45-3.73,1.05-7.5,2-11.23,3-3.48,1-7.07,1.64-10.46,2.87a127.24,127.24,0,0,1-14.62,3.94c-4.35,1-8.81,1.69-13,3.08a86.29,86.29,0,0,1-13.37,3.75c-4.44.7-8.37,2.76-12.46,4.4Z" transform="translate(-59.62 -57.62)"/><path class="cls-22" d="M59.73,379c4.09-1.63,8-3.7,12.46-4.4a86.29,86.29,0,0,0,13.37-3.75c4.23-1.39,8.68-2.06,13-3.08a127.24,127.24,0,0,0,14.62-3.94c3.39-1.23,7-1.91,10.46-2.87,3.73-1,7.5-1.94,11.23-3,4.68-1.32,9.45-2.37,14.19-3.45a6.1,6.1,0,0,1,2,.26l-.05,13.68a8,8,0,0,1-6.35,1.54c-.68-.14-.55.76-1.13.91-2.09.56-4.11,1.41-6.33,1.4-.57,0-1.19-.12-1.66.35-.92.92-1.86,1.35-3.05.42a.87.87,0,0,0-.83,0c-1,1.3-2.62,1-3.8,1.61a10.5,10.5,0,0,1-6,1.44c-1.22-.13-1.65.9-2.6,1.16-5.81,1.59-11.71,2.77-17.56,4.19s-11.94,2.89-17.92,4.31a91,91,0,0,0-11.42,3.74A64.56,64.56,0,0,1,59.74,393a39.08,39.08,0,0,1,0-6,21.25,21.25,0,0,0,0-7Z" transform="translate(-59.62 -57.62)"/><path class="cls-3" d="M60,243.91c2.83-.77,5.63-1.68,8.5-2.28,6.09-1.27,12.11-2.81,18.14-4.28,3.31-.81,6.59-1.66,9.87-2.57,5.9-1.65,11.92-2.89,17.78-4.64,4.94-1.47,10-2.33,15-3.82a53.45,53.45,0,0,1,6.22-1.55c5.5-1,10.76-2.77,16.15-4.06,5.08-1.21,10-3,15.08-4.32,2.82-.76,5.72-1.22,8.59-1.81l-7.61,13.56a20.67,20.67,0,0,0-5.12,1.54c-1.72.68-3.57.77-5.35,1.49-1.59.64-3.42,1.08-5.05,1.92-.16.08-.36.25-.47.21-2.51-1.12-4.25,1.1-6.42,1.46-1.07.18-2-.78-3.24,0-.49.31-1.41.4-1.85.8-1.27,1.17-2.8-.25-4.15.61a9.44,9.44,0,0,1-2.07,1.2c-.56.18-1,.87-1.69.19-.12-.12-.56-.15-.61-.06-1.1,1.65-3,.63-4.32,1.31a8.2,8.2,0,0,1-4.51.95,1.37,1.37,0,0,0-1.39.56,1.2,1.2,0,0,1-1.56.4,1.68,1.68,0,0,0-2.09.63c-.7.78-1.89,0-2.89.42-.77.34-1.7.29-2.3,1.06a.73.73,0,0,1-.57.28c-2.81-.72-5,.76-7.26,2-.1.05-.25.15-.31.11-2.24-1.35-3.93.71-5.81,1.14-3.9.89-7.88,1.37-11.74,2.44a8.26,8.26,0,0,0-1.83.78,3.6,3.6,0,0,1-3.16.54c-1.18-.39-2.79.34-4.16.76a77.53,77.53,0,0,1-14.21,3.21c-1.41.16-2.23,1.5-3.65,1.44Q60,249.7,60,243.91Z" transform="translate(-59.62 -57.62)"/><path class="cls-5" d="M349.06,58l-18.59,0q0-.12,0-.24c.47,0,.93-.08,1.4-.08h85.07c.41,0,.82,0,1.22.06l-.68.27Z" transform="translate(-59.62 -57.62)"/><path class="cls-7" d="M309.75,57.71c-.63.46-1.36.24-2,.24q-15.64,0-31.28,0l-27.69,0a74.82,74.82,0,0,1,9.41-.22c17-.1,33.93-.08,50.9-.1C309.29,57.65,309.52,57.69,309.75,57.71Z" transform="translate(-59.62 -57.62)"/><path class="cls-6" d="M233.26,58c-.55.49-1.22.27-1.83.28-4.29,0-8.57,0-12.86,0A135.31,135.31,0,0,1,233.26,58Z" transform="translate(-59.62 -57.62)"/><path class="cls-25" d="M553.22,57.77a86.51,86.51,0,0,1-13.92-.06Z" transform="translate(-59.62 -57.62)"/><path class="cls-7" d="M330.47,57.71q0,.12,0,.24c-2.33-.11-4.69.34-7-.24Z" transform="translate(-59.62 -57.62)"/><path class="cls-11" d="M59.73,380.07a21.25,21.25,0,0,1,0,7Q59.73,383.55,59.73,380.07Z" transform="translate(-59.62 -57.62)"/><path class="cls-11" d="M59.72,346.41a18.55,18.55,0,0,1,0,6.58Q59.72,349.7,59.72,346.41Z" transform="translate(-59.62 -57.62)"/><path class="cls-19" d="M59.72,333.76a7.5,7.5,0,0,1,0,4.13Q59.72,335.83,59.72,333.76Z" transform="translate(-59.62 -57.62)"/><path class="cls-2" d="M482.75,748.4l4.23.14a12.84,12.84,0,0,1-4.26.07A.82.82,0,0,1,482.75,748.4Z" transform="translate(-59.62 -57.62)"/><path class="cls-7" d="M315,57.71a2.64,2.64,0,0,1-2.42,0Z" transform="translate(-59.62 -57.62)"/><path class="cls-25" d="M598.49,58.42a1.4,1.4,0,0,1-1.7,0Z" transform="translate(-59.62 -57.62)"/><path class="cls-7" d="M319.58,57.71a1.43,1.43,0,0,1-1.72,0Z" transform="translate(-59.62 -57.62)"/><path class="cls-25" d="M603.41,58.67l-1.23,0A1.25,1.25,0,0,1,603.41,58.67Z" transform="translate(-59.62 -57.62)"/><path class="cls-2" d="M389.12,748.63a.63.63,0,0,1,.93,0Z" transform="translate(-59.62 -57.62)"/><path class="cls-7" d="M317.13,57.71c-.11.15-.22.15-.34,0A.31.31,0,0,1,317.13,57.71Z" transform="translate(-59.62 -57.62)"/><path class="cls-7" d="M316.08,57.71c-.11.15-.22.15-.34,0A.31.31,0,0,1,316.08,57.71Z" transform="translate(-59.62 -57.62)"/><path class="cls-7" d="M311.87,57.71c-.11.15-.22.15-.34,0A.31.31,0,0,1,311.87,57.71Z" transform="translate(-59.62 -57.62)"/><path class="cls-7" d="M310.81,57.71c-.11.15-.22.15-.34,0A.31.31,0,0,1,310.81,57.71Z" transform="translate(-59.62 -57.62)"/><path class="cls-13" d="M59.77,504.61l.12.13-.05.16A.18.18,0,0,1,59.77,504.61Z" transform="translate(-59.62 -57.62)"/><path class="cls-25" d="M600.59,58.47l-.3,0A.23.23,0,0,1,600.59,58.47Z" transform="translate(-59.62 -57.62)"/><path class="cls-25" d="M560.91,58l-.19-.06.11,0Z" transform="translate(-59.62 -57.62)"/><path class="cls-25" d="M554.28,57.77H554A.21.21,0,0,1,554.28,57.77Z" transform="translate(-59.62 -57.62)"/><path class="cls-7" d="M322.74,57.71c-.11.15-.22.15-.34,0A.31.31,0,0,1,322.74,57.71Z" transform="translate(-59.62 -57.62)"/><path class="cls-2" d="M391.19,748.61h.29l-.15,0Z" transform="translate(-59.62 -57.62)"/><path class="cls-7" d="M321.69,57.71c-.11.15-.22.15-.34,0A.31.31,0,0,1,321.69,57.71Z" transform="translate(-59.62 -57.62)"/><path class="cls-2" d="M487.61,748.55H488A.26.26,0,0,1,487.61,748.55Z" transform="translate(-59.62 -57.62)"/><path class="cls-2" d="M488.66,748.55h.43A.26.26,0,0,1,488.66,748.55Z" transform="translate(-59.62 -57.62)"/><path class="cls-2" d="M489.72,748.55h.43A.26.26,0,0,1,489.72,748.55Z" transform="translate(-59.62 -57.62)"/><path class="cls-2" d="M490.77,748.55h.43A.26.26,0,0,1,490.77,748.55Z" transform="translate(-59.62 -57.62)"/><path class="cls-2" d="M491.82,748.55h.43A.26.26,0,0,1,491.82,748.55Z" transform="translate(-59.62 -57.62)"/><path class="cls-2" d="M492.87,748.55h.43A.26.26,0,0,1,492.87,748.55Z" transform="translate(-59.62 -57.62)"/><path class="cls-2" d="M493.93,748.55h.42A.26.26,0,0,1,493.93,748.55Z" transform="translate(-59.62 -57.62)"/><path class="cls-2" d="M495,748.55h.42A.26.26,0,0,1,495,748.55Z" transform="translate(-59.62 -57.62)"/><path class="cls-2" d="M496,748.55h.42A.26.26,0,0,1,496,748.55Z" transform="translate(-59.62 -57.62)"/><path class="cls-2" d="M497.09,748.55h.42A.26.26,0,0,1,497.09,748.55Z" transform="translate(-59.62 -57.62)"/><path class="cls-2" d="M498.14,748.55h.42A.26.26,0,0,1,498.14,748.55Z" transform="translate(-59.62 -57.62)"/><path class="cls-7" d="M320.64,57.71c-.11.15-.22.15-.34,0A.31.31,0,0,1,320.64,57.71Z" transform="translate(-59.62 -57.62)"/><path class="cls-2" d="M499.54,748.55H500A.26.26,0,0,1,499.54,748.55Z" transform="translate(-59.62 -57.62)"/><path class="cls-21" d="M535.7,151.2l-.52-.22Z" transform="translate(-59.62 -57.62)"/><path class="cls-21" d="M524.47,150.15l-.52-.22Z" transform="translate(-59.62 -57.62)"/><path class="cls-12" d="M164.11,154.45c-.19.13-.31.26-.43.28s-.45-.09-.38-.37c0-.1.26-.19.39-.19S163.93,154.32,164.11,154.45Z" transform="translate(-59.62 -57.62)"/><path class="cls-12" d="M345.77,60.87c-.1,0-.22.13-.29.1s-.08-.18-.12-.28.22-.13.29-.1S345.74,60.77,345.77,60.87Z" transform="translate(-59.62 -57.62)"/><path class="cls-12" d="M163.3,155.72s.07.09.07.14-.06.08-.09.12Z" transform="translate(-59.62 -57.62)"/><path class="cls-15" d="M667,457.58v-1.4Q668.4,456.88,667,457.58Z" transform="translate(-59.62 -57.62)"/><path class="cls-15" d="M722.34,552c-.21.1-.36.22-.46.19s-.21-.2-.32-.31c.12-.07.24-.2.36-.19S722.15,551.83,722.34,552Z" transform="translate(-59.62 -57.62)"/><path class="cls-15" d="M681.55,478.43l.3.13-.22.36c-.09-.07-.33.27-.29-.1A1.25,1.25,0,0,1,681.55,478.43Z" transform="translate(-59.62 -57.62)"/><path class="cls-15" d="M732.45,574.2c.1,0,.25.06.28.13s-.07.19-.11.28-.25-.06-.28-.13S732.4,574.29,732.45,574.2Z" transform="translate(-59.62 -57.62)"/><path class="cls-17" d="M656.66,181.88l-2,1C655.08,181.63,655.86,181.73,656.66,181.88Z" transform="translate(-59.62 -57.62)"/><path class="cls-21" d="M704.77,97.39c0,.34-.21.54-.56.48s-.42-.36-.41-.65.11-.6.51-.49A.67.67,0,0,1,704.77,97.39Z" transform="translate(-59.62 -57.62)"/><path class="cls-17" d="M735.63,148.8c-.16.14-.27.29-.38.31s-.37-.06-.41-.16c-.1-.26.09-.41.33-.4S735.43,148.68,735.63,148.8Z" transform="translate(-59.62 -57.62)"/><path class="cls-17" d="M663.16,179.23c-.1,0-.25-.06-.28-.13s.07-.19.11-.29.25.06.28.13S663.2,179.13,663.16,179.23Z" transform="translate(-59.62 -57.62)"/><path class="cls-17" d="M738.86,147.08c0,.25,0,.55-.42.53a.16.16,0,0,1-.11-.11c0-.39.28-.38.53-.42Z" transform="translate(-59.62 -57.62)"/><path class="cls-17" d="M712.45,158.45l.29.13c0,.1-.06.25-.13.28s-.19-.07-.29-.11Z" transform="translate(-59.62 -57.62)"/><path class="cls-17" d="M672.75,175.05l-.13.29c-.1,0-.25-.06-.28-.13s.07-.19.11-.29Z" transform="translate(-59.62 -57.62)"/><path class="cls-17" d="M666.78,177.51l-.13.29c-.1,0-.25-.06-.28-.13s.07-.19.11-.29Z" transform="translate(-59.62 -57.62)"/><path class="cls-17" d="M738.86,147.08c0-.25,0-.55.42-.53a.16.16,0,0,1,.11.11c0,.39-.28.38-.53.42Z" transform="translate(-59.62 -57.62)"/><path class="cls-26" d="M432.94,658.35h11.19c-1.81.6-3.67.24-5.51.24S434.81,658.95,432.94,658.35Z" transform="translate(-59.62 -57.62)"/><path class="cls-26" d="M445.91,658.35h1l-.34.27Z" transform="translate(-59.62 -57.62)"/><path class="cls-13" d="M151,407.1l.05,10.81A51.37,51.37,0,0,1,151,407.1Z" transform="translate(-59.62 -57.62)"/><path class="cls-4" d="M209.79,628.75l.35.39Z" transform="translate(-59.62 -57.62)"/><path class="cls-24" d="M370.83,658.33l14.35,0c-.8.53-1.7.25-2.55.25-3.38,0-6.75,0-10.13,0C371.94,658.61,371.32,658.79,370.83,658.33Z" transform="translate(-59.62 -57.62)"/><path class="cls-18" d="M477.21,658.15a5,5,0,0,1,2.31-.06A3.82,3.82,0,0,1,477.21,658.15Z" transform="translate(-59.62 -57.62)"/><path class="cls-18" d="M481.72,658.06l1.36-.07A1,1,0,0,1,481.72,658.06Z" transform="translate(-59.62 -57.62)"/><path class="cls-18" d="M483.79,658a.4.4,0,0,1,.34,0C484,658.14,483.91,658.15,483.79,658Z" transform="translate(-59.62 -57.62)"/><path class="cls-4" d="M335,658a39.9,39.9,0,0,1,7,.24c-1.33.82-2.67-.24-4,0C337.06,658.4,336,658.84,335,658Z" transform="translate(-59.62 -57.62)"/><path class="cls-4" d="M348.74,658.27a11.49,11.49,0,0,1,4.11,0Z" transform="translate(-59.62 -57.62)"/><path class="cls-19" d="M199.92,288a84.37,84.37,0,0,1,2.52-17.22c1.46-5.64,2.83-11.35,5.21-16.72a1.84,1.84,0,0,0,2.61.93c2.92-1.6,6.37-1.29,9.29-2.78a1.31,1.31,0,0,1,.67-.14c2.07.18,4-.66,6.1-.67,3,0,5.75-1.56,8.67-2.2a57.91,57.91,0,0,1,11.11-1.6,32.53,32.53,0,0,0,7.85-1.36c1.72-.48,3.51-1.25,5.22-1.14a15.41,15.41,0,0,0,5.25-.72c1.48-.41,3-1,4.58-.53a.87.87,0,0,0,1-.29,4,4,0,0,1,3-1.28,27.59,27.59,0,0,0,7.74-1.75,8.38,8.38,0,0,1,5-.22,7.84,7.84,0,0,0,3.58,0c2.82-.63,5.77-.77,8.43-2.05.3-.15.76-.33,1-.21,1.75.88,3.39-.18,4.84-.62a22.65,22.65,0,0,1,7.33-1.18,15.08,15.08,0,0,0,4.95-1.07,10.2,10.2,0,0,1,5.05-.47c.88.15,2.1.37,2.64-.08a4.2,4.2,0,0,1,3.34-1c3.35.12,6.57-1.17,9.8-2,3-.79,5.84-2.56,8.93-1.91,2.79.59,5.14-2.15,7.86-.58,1-1.53,2.69-.64,4-1.17a17.32,17.32,0,0,1,7.51-1.19,11.16,11.16,0,0,0,5.41-1.08,14.26,14.26,0,0,1,5.57-1.31c3.93-.14,7.84-.13,11.65-1.38,2.13-.7,4.4-1.55,6.64-1,3.82.86,7.27-1.32,11-1,.79.07,1.65-.8,2.46-.76a58.67,58.67,0,0,1,7.2.77c1.85.32,3.55.37,5.1-.84,2.7.2,5.42,1.3,8.07-.26.19-.11.55.13.83.12,1.77,0,3.12,1.53,5,1.24.55-.09.38.85,1.07.81.23-1.08,1.07-1.34,2.06-1.73,2.34-.94,4.63.43,6.95-.12a4,4,0,0,1,2.55-.15c2.12.91,4.27.53,6.4.16,2.6-.46,5.31.28,7.87-.72.26-.1.66.23,1,.23,1.45,0,3,1.29,4.34-.24.25-.28.5-.67,1-.57l.57,1.58c-.08,2.29,1.6,1.41,2.57,1.26,2.42-.37,4.78-.71,7.1.42.87.43,1,.9.23,1.56-.24.21-.69.28-.54.87a4.82,4.82,0,0,0,2.41-.69c.5-.23,1.22-.49,1.48-.15,1,1.3,2.68,1.12,3.86,2.06.88.7.7,1,0,1.53-.33.24-1.06.13-.85.85.15.5.71.27,1,.46a1.77,1.77,0,0,0,2-.26,2.91,2.91,0,0,1,2.65-.22,28.28,28.28,0,0,0,3.56.73c.38.07.84-.1,1.09.36s.27,1.11,1,.87-.11-1.1.53-1.49a6.17,6.17,0,0,0,5,.85c.62-.11,1-.11,1.28.48a2,2,0,0,1-1.75.58c-2-.39-3.73.5-5.52,1.1a12.75,12.75,0,0,1-7.81.51,2.64,2.64,0,0,0-1.86.2c-2.32,1-4.64,2.1-7.3,1.83a6.78,6.78,0,0,0-2.88.52c-2,.66-3.85,1.82-6,1.66a13.64,13.64,0,0,0-7.06,1.21c-.83.39-1.9,1.07-3,.74-1.5-.47-3-.17-4.52-.26-.47,0-1.05-.05-1.21.47-.21.69.56,1,.92,1.05,2.41.43,4.8,2.13,7.31.11a1.75,1.75,0,0,1,2.24.25,3.16,3.16,0,0,0,3.87.54c.75-.46,1.16,0,1.44.45a1.63,1.63,0,0,0,2.36.67,15.57,15.57,0,0,1,2-.67.71.71,0,0,1,.88.39.55.55,0,0,1-.39.82c-2.47.63-4.88,2-7.52.65-.23-.11-.68-.17-.82,0-1.65,1.61-3.94.83-5.83,1.57-.67.26-1.36.92-2.12.63a5.3,5.3,0,0,0-4.39.5,16.35,16.35,0,0,1-10.45,1.38c-.86-.14-1.76-.15-2.05,1.07-.17.71-.86.71-1.46.64-2.69-.3-5.3.84-8,.48-.36,0-.77.23-1.16.36-3.57,1.14-7.09,2.4-11,1.47-.74-.18-2.23-.45-2.86.87a6.36,6.36,0,0,0-2.89.51,8,8,0,0,1-4.63.49c-2-.34-4.16-.72-5.85.56-1.34,1-1.94.61-2.77-.42a1.66,1.66,0,0,0-2-.61c-1.64.85-3.48.71-5.16,1.24-1.39.44-2.72,1-4.24.39a1.79,1.79,0,0,0-1.93.57c-.78.89-1.59.68-2.52.37-1.6-.52-3.42-.75-4.75.17-1.91,1.33-3.62,1.12-5.53.36-.49-.19-1.15-.33-1.44.2-.72,1.31-2,.88-2.77.58a1.7,1.7,0,0,0-1.84.18c-1.89,1.36-4.23.66-6.28,1.43-1.89.71-4-.57-6,.25-.56.23-1.21.35-1.3,1s.69.46,1,.72c.53.41,1.55.85.37,1.44-1.54.76-3,1.73-5,1.56-1.59-.14-3.61-.24-4.76,1.1-1.43,1.67-3.34,1.74-5.14,2.36-2.7.93-5.74.76-8.16,2.78-.64.53-1.85.57-2.43,1.5-.06.1-.33.14-.48.1a16.42,16.42,0,0,0-6.58.16c-2.57.42-5.18.75-7.68,1.34-2.89.69-5.67,1.68-8.71,1.46a13.41,13.41,0,0,0-3.5.07c-5.06,1-10.21,1.56-15.1,3.34a9.33,9.33,0,0,1-2.4.42q-4.69.39-9.38.71c-3.09.21-5.87,1.71-9,2A46.3,46.3,0,0,0,262,281.1c-4.37.91-8.88,1-13.21,2.14-2.18.6-4.36,1.22-6.56,1.7-2.81.61-5.67.71-8.49,1.56a67.75,67.75,0,0,1-13.34,2.32c-6.85.63-13.43,2.5-20,4.29-.78.21-.77-.14-.85-.62a13,13,0,0,1,.12-3.33C200.05,288.82,199.94,288.39,199.92,288Zm146.17-26.51c-.07-.28-.29-.33-.53-.35a11.2,11.2,0,0,0-5.94,1.61.62.62,0,0,0-.23.91.72.72,0,0,0,1,.18c1.59-.89,3.47-.88,5.08-1.68C345.74,262,346.07,261.9,346.09,261.47Zm4.35-.32a1.28,1.28,0,0,0,1.91-1.22c0-1.12-1.25-.7-1.76-.72-.81,0-1.43,1-2.37,1.09-.07,0-.16.41-.14.62.05.44.42.55.78.51C349.42,261.37,350,261.24,350.44,261.16Z" transform="translate(-59.62 -57.62)"/><path class="cls-28" d="M200.33,522.49a53.62,53.62,0,0,1-1-8.84c-.51-6.51-.87-13-.88-19.58,7-.72,13.89-2,20.88-2.61,5.55-.52,11.12-1,16.67-1.17a257.59,257.59,0,0,1,31.79.9c6.12.61,12.23,1.21,18.31,2.15a262.77,262.77,0,0,1,31,6.52c.62.17,1.25.4,1.76-.23,2.44,1.72,4.54,3.85,6.87,5.7,2.89,2.3,5.79,4.62,8.87,6.63,3.9,2.54,8,4.71,12.17,6.9a119.93,119.93,0,0,0,22.74,9.41,158.85,158.85,0,0,0,22.66,5c1.4,1.32,2,4,4.84,2.92.2-.07.55.16.8.31,2,1.26,4.11,2.44,6.05,3.82A287.23,287.23,0,0,1,428,559.06c4.66,4.11,9.53,8,14,12.32,5.51,5.37,10.73,11,15.79,16.8s10.14,11.66,14.86,17.78c1.43,1.85,3.25,3.51,3.81,5.94l-18.83.12a67.6,67.6,0,0,0-9.53.12,31.63,31.63,0,0,1-5.31,0,2,2,0,0,0-.63-1.38c-3.5-4.75-8-8.63-12-12.92-3.74-4-7.7-7.82-11.79-11.49-2.38-2.14-4.71-4.34-7.16-6.41-5.24-4.43-10.78-8.47-16.29-12.55a233.08,233.08,0,0,0-32-19.91c-6.12-3.15-12.3-6.19-18.67-8.85a259,259,0,0,0-34.85-11.94,248.93,248.93,0,0,0-37-6.74c-6.19-.63-12.38-1.28-18.59-1.3-7.53,0-15.05-.31-22.59.23-3.88.28-7.79.41-11.65.84C213.16,520.47,206.75,521.56,200.33,522.49Z" transform="translate(-59.62 -57.62)"/><path class="cls-25" d="M419.93,220.06c-1.55,1.21-3.25,1.17-5.1.84a58.67,58.67,0,0,0-7.2-.77c-.81,0-1.67.83-2.46.76-3.73-.33-7.19,1.85-11,1-2.24-.51-4.51.35-6.64,1-3.82,1.25-7.73,1.24-11.65,1.38a14.26,14.26,0,0,0-5.57,1.31,11.16,11.16,0,0,1-5.41,1.08,17.32,17.32,0,0,0-7.51,1.19c-1.31.53-3-.36-4,1.17-2.72-1.57-5.07,1.17-7.86.58-3.09-.65-6,1.12-8.93,1.91-3.23.86-6.45,2.15-9.8,2a4.2,4.2,0,0,0-3.34,1c-.54.45-1.76.23-2.64.08a10.2,10.2,0,0,0-5.05.47,15.08,15.08,0,0,1-4.95,1.07,22.65,22.65,0,0,0-7.33,1.18c-1.45.44-3.08,1.51-4.84.62-.24-.12-.69.06-1,.21-2.66,1.28-5.61,1.42-8.43,2.05a7.84,7.84,0,0,1-3.58,0,8.38,8.38,0,0,0-5,.22,27.59,27.59,0,0,1-7.74,1.75,4,4,0,0,0-3,1.28.87.87,0,0,1-1,.29c-1.6-.47-3.09.12-4.58.53a15.41,15.41,0,0,1-5.25.72c-1.71-.11-3.49.66-5.22,1.14a32.53,32.53,0,0,1-7.85,1.36,57.91,57.91,0,0,0-11.11,1.6c-2.92.64-5.65,2.19-8.67,2.2-2.08,0-4,.85-6.1.67a1.31,1.31,0,0,0-.67.14c-2.92,1.49-6.37,1.19-9.29,2.78a1.84,1.84,0,0,1-2.61-.93,74.29,74.29,0,0,1,8.77-17.83A79,79,0,0,1,230.73,220c.33.09.73.36,1,.25,3.36-1.38,7.13-1,10.48-2.49,1.67-.75,3.59-1.59,5.31-1.44,3.77.33,7.08-1.45,10.71-1.76a60.27,60.27,0,0,0,9.34-1.74c.83-.21,1.69.51,2.33-.15,1.44-1.49,3.4-1.39,5.16-1.71,4.39-.79,8.59-2.37,13.09-2.84,3.14-.33,6.08-1.95,9.33-2.3,1.07-.11,2-1.26,3.24-.27.08.07.5-.09.58-.24.53-.91,1.39-.7,2.19-.72,3-.09,5.61-1.32,8.29-2.37,1.59-.63,2.81-2.83,4.9-1,.09.08.47,0,.61-.16,1.25-1.23,3-1.22,4.5-1.74.3-.1.73.1.74-.47,0-1.21,1.13-1.08,1.81-1.23,1.91-.42,3.82-.77,5.72-1.26s3.95-1.34,5.86.19c.5.4,1.22.49,1.19-.48,0-.74.75-1,.74-1.72l1.05,0c0,.23-.08.46-.14.68-.11.42-.5.95.06,1.21.39.18.75-.26.89-.66.32-.93,1.21-.83,1.89-1,1.39-.41,2.9.25,4.29-.38q20-.07,39.95-.14,14.64,0,29.27,0,30.14.08,60.28.2c3.5,0,7,.15,10.5.24,0,.23,0,.55.09.68,1.3,1.3,2.81,2.45,1.36,4.63-.37.56.39,1.13.77,1.64s.75.9.45,1.42-.86.05-1.26,0a6.57,6.57,0,0,0-5.13.75c-2.18,1.37-4.57,2.5-7.32,2.09-.42-.06-.73.28-1.09.42-1.94.75-3.74,1.88-5.89,2a19.68,19.68,0,0,1-4.51-.4c-1.64-.26-2.87.74-4.29,1.11-3.45.91-7.09,1-10.41,2.47a13.28,13.28,0,0,1-6.71,1.35c-1.21-.13-2.9-1.78-3.35.93,0,.06-.2.11-.31.11a3.29,3.29,0,0,0-2.88,2.4c-.26.62-.57,1-1.22.18a4.07,4.07,0,0,0-4.05-1.27c-3.56.65-6.57,2.74-9.86,4.1C419.87,219.27,420,219.71,419.93,220.06Zm15.32-6.37a.74.74,0,0,0-.8-.24.45.45,0,0,0-.41.47c0,.46.39.53.75.49S435.33,214.2,435.26,213.68Zm33.1-10.36c-.14-.11-.26-.28-.35-.27a.43.43,0,0,0-.28.3c0,.23.08.45.36.38C468.19,203.71,468.24,203.49,468.35,203.32Z" transform="translate(-59.62 -57.62)"/><path class="cls-14" d="M199.57,292.49c.08.49.06.84.85.62,6.6-1.79,13.18-3.66,20-4.29a67.75,67.75,0,0,0,13.34-2.32c2.82-.85,5.68-.94,8.49-1.56,2.21-.48,4.38-1.1,6.56-1.7,4.33-1.19,8.84-1.23,13.21-2.14a46.3,46.3,0,0,1,5.26-1.17c3.09-.27,5.87-1.77,9-2s6.25-.45,9.38-.71a9.33,9.33,0,0,0,2.4-.42c4.89-1.78,10-2.36,15.1-3.34a13.41,13.41,0,0,1,3.5-.07c3,.22,5.82-.77,8.71-1.46,2.51-.6,5.11-.92,7.68-1.34a16.42,16.42,0,0,1,6.58-.16c.15,0,.42,0,.48-.1.59-.93,1.8-1,2.43-1.5,2.42-2,5.46-1.84,8.16-2.78,1.8-.62,3.71-.69,5.14-2.36,1.15-1.34,3.17-1.24,4.76-1.1,2,.18,3.43-.79,5-1.56,1.18-.58.16-1-.37-1.44-.34-.26-1.12-.1-1-.72s.74-.74,1.3-1c2-.82,4.11.46,6-.25,2.05-.77,4.39-.07,6.28-1.43a1.7,1.7,0,0,1,1.84-.18c.76.3,2,.73,2.77-.58.29-.53,1-.39,1.44-.2,1.91.76,3.62,1,5.53-.36,1.33-.92,3.15-.69,4.75-.17.93.3,1.73.52,2.52-.37a1.79,1.79,0,0,1,1.93-.57c1.52.6,2.85,0,4.24-.39,1.69-.53,3.53-.39,5.16-1.24a1.66,1.66,0,0,1,2,.61c.83,1,1.43,1.44,2.77.42,1.69-1.28,3.87-.9,5.85-.56a8,8,0,0,0,4.63-.49,6.36,6.36,0,0,1,2.89-.51c1.67,1.09,3.89.37,5.51,1.65a.52.52,0,0,0,.49,0c1-1.36,2.7-.48,3.93-1.22a2.39,2.39,0,0,1,3.25.66,1.26,1.26,0,0,0,1.37.47c3.47-.72,7.1-.16,10.51-1.47a3.57,3.57,0,0,1,2.59.1c1.9.82,3.75.4,5.62-.08a1.92,1.92,0,0,1,1.84.2c.53.46.25.93-.09,1.39-.19.25-.29.56.12.69a.68.68,0,0,0,.86-.42c.16-.33-.2-1.11.67-.78,1.78.68,3.92,0,5.5,1.46a.54.54,0,0,0,.49,0c1.78-1,3.72-.78,5.63-1,4-.54,8,.44,12-.2,1.69-.27,3.21.61,5.22,0s4.56-1.33,6.92-.66a10.36,10.36,0,0,0,4.65,0c1.32-.22,2.66-1.1,3.91.24.1.11.59,0,.8-.13,1-.72,2.09-.43,3.19-.28,1.54.22,3.1.9,4.65.39,1.78-.58,3.69-.47,5.45-1.16a2.91,2.91,0,0,1,2.22,0c1.72,1,3.88.68,5.47,2-.22.54-.4,1.09-.66,1.61a24.27,24.27,0,0,0-2.3,8,31.94,31.94,0,0,0,.87,12.17c-.75,0-1.5.13-2.25.2-1.75.16-3.43.52-5.3,0-2.43-.67-5.06-.57-7.58-.93-1.11-.16-1.85,1.13-3,.59a2.86,2.86,0,0,0-2.35.18c-1.21.45-2.6.78-3.62-.22a2,2,0,0,0-2.64-.44c-1.82,1-3.9,1-5.84,1.54-.95.24-2.37.78-2.61-1.2-.08-.69-1.06-.59-1.47-.25-1.46,1.21-3.25.88-4.89,1.18-1.1.2-2.54-.43-3.36.07a8.3,8.3,0,0,1-6.22.83c-2.75-.53-5.31.07-7.92.73-.88.22-2,.61-2.52-.42s-1.27-.85-2-.71c-1.82.33-3.63.81-5.46.08-.89-.36-1.3.14-1.6.86-.4-.08-.8-.15-1.19-.25a139.76,139.76,0,0,0-38.58-4.77A136,136,0,0,0,367,278.87a127.28,127.28,0,0,0-27.67,12.92c-.41-.73-1.12-.46-1.73-.51-3.79-.31-7.22,1.74-11,1.6-3-.11-5.75,1.36-8.75,1.21a22.05,22.05,0,0,0-8.79,1,9.94,9.94,0,0,1-2.93.37,24.93,24.93,0,0,0-5.36.55,26.12,26.12,0,0,1-6,1.09c-5.11.19-9.93,1.81-14.93,2.45-2.52.33-5,1.28-7.51,1.44a66.07,66.07,0,0,0-12.73,1.81c-3.88,1-7.95,1-11.81,2.15a47.29,47.29,0,0,1-12,2.14c-1.76.05-3.49.81-5.26,1.08-2.88.44-5.55,1.68-8.45,2a149.35,149.35,0,0,0-15.28,2.42c-2.83.64-5.63,1.36-8.5,1.78q.49-10.74,1-21.49C199.35,292.79,199.49,292.64,199.57,292.49Z" transform="translate(-59.62 -57.62)"/><path class="cls-18" d="M200.33,522.49c6.43-.93,12.83-2,19.28-2.73,3.86-.43,7.77-.56,11.65-.84,7.53-.54,15.06-.25,22.59-.23,6.21,0,12.4.67,18.59,1.3a248.93,248.93,0,0,1,37,6.74,259,259,0,0,1,34.85,11.94c6.37,2.65,12.55,5.69,18.67,8.85a233.08,233.08,0,0,1,32,19.91c5.51,4.08,11.06,8.11,16.29,12.55,2.44,2.07,4.78,4.27,7.16,6.41,4.08,3.67,8,7.48,11.79,11.49,4,4.29,8.45,8.17,12,12.92a2,2,0,0,1,.63,1.38l-26.69.06c-2.08-.6-4.2-.1-6.3-.27,0-.74-.6-1.1-1-1.55a96.33,96.33,0,0,0-8.85-8.19c-4.36-3.48-8.57-7.15-13-10.6a201.47,201.47,0,0,0-22.36-15.2c-5.63-3.31-11.31-6.53-17.15-9.45a241.89,241.89,0,0,0-24.66-10.3,216.24,216.24,0,0,0-30.37-8.55,222.14,222.14,0,0,0-23-3.61c-6.19-.64-12.39-1-18.59-1.29a224.53,224.53,0,0,0-24.45.7c-3.64.25-7.24,1-10.87,1.27-3.3.29-6.5,1.3-9.85,1.15-.35-1-.7-2.09-1-3.13a105.79,105.79,0,0,1-4.23-19A12.85,12.85,0,0,1,200.33,522.49Z" transform="translate(-59.62 -57.62)"/><path class="cls-15" d="M620.24,398.29q0,18.11.05,36.21c0,5.37,0,10.73,0,16.1,0,1.05-.43,2.09-.1,3.15-.69,1.38.1,3-.59,4.64A30.5,30.5,0,0,0,616.4,454c-3.57-4.2-7.12-8.43-10.72-12.61a104.68,104.68,0,0,0-7.4-7.85c-2.66-2.51-4.92-5.43-7.48-8.06-4.24-4.35-8.65-8.53-12.85-12.92-5-5.19-10.43-9.82-15.75-14.61-4.88-4.39-9.89-8.64-14.93-12.83a60,60,0,0,0-8-6.18,140.42,140.42,0,0,0-6.38-21.86c-7-17.88-17.05-33.75-30.8-47.14a140.41,140.41,0,0,0-17.33-14.34c.93-1,1.73-.17,2.42.29a95.16,95.16,0,0,0,8.31,4.65c3.12,1.67,6,4.43,10,4.11a1,1,0,0,1,.95.92c.14,1.48,1.21,2,2.34,2.56a72.76,72.76,0,0,1,8.06,4.66c2.24,1.39,4,3.52,6.86,3.78.09,0,.2.13.25.22,1.34,2.27,3.77,3.17,5.77,4.61,1.42,1,2.83,2.1,4.77,1.76.46-.08.9.2.72.7-.44,1.17.41,1.62,1.13,2.05a54.9,54.9,0,0,1,8.19,5.9c.31.28.67.62.93,0,.16-.41.38-.55.79-.35s.76.48.53.94c-.37.75.28,1.06.58,1.49.62.89,1.67,1.25,2.49,1.89s1.44,1,2.07-.61c-.12,2.48,1.08,3.5,3.13,3.15.44-.08,1,0,.9.52-.36,1.72,1,2.17,2,2.9,1.42,1.1,2.62,2.91,4.33,3.07s2.78.14,2.44,2.23c0,.16.45.36.59.6.73,1.18,2.18,1.2,3.11,1.94,2.35,1.85,4.1,4.5,7.25,5.29.23.06.33.58.53.85.87,1.15,1.8,3.06,2.93,3,1.68-.11,1.87.85,2.36,1.72.76,1.36,2.27,2,3.1,3.14,1.4,1.93,3.4,3.16,5.1,4.68s3,3.16,4.79,4.33,2.89,3.71,5.69,3.3c.47-.07,1.16.51,1,1-.79,2.09,1.15,2.38,2.07,3.31.26.26.65.3.92.7,2.36,3.54,5.89,6,8.6,9.22,1.24,1.47,3,2.35,4,4.13A10.75,10.75,0,0,0,620.24,398.29Z" transform="translate(-59.62 -57.62)"/><path class="cls-16" d="M205.6,546.34c3.34.15,6.55-.86,9.85-1.15,3.63-.32,7.24-1,10.87-1.27a224.53,224.53,0,0,1,24.45-.7c6.2.24,12.4.65,18.59,1.29a222.14,222.14,0,0,1,23,3.61,216.24,216.24,0,0,1,30.37,8.55A241.89,241.89,0,0,1,347.41,567c5.84,2.92,11.52,6.14,17.15,9.45a201.47,201.47,0,0,1,22.36,15.2c4.38,3.45,8.59,7.12,13,10.6a96.33,96.33,0,0,1,8.85,8.19c.44.45,1,.81,1,1.55-2.45.17-4.92-.32-7.35.28l-32-.07c-.53-.35-1.17-.29-1.74-.71q-9.23-6.76-19.07-12.61A218.74,218.74,0,0,0,322,585.35a192,192,0,0,0-31.64-9.82,183.43,183.43,0,0,0-21.6-3.64c-5.37-.56-10.74-1.13-16.13-1.29a198.71,198.71,0,0,0-34.48,1.73,57.81,57.81,0,0,1-6.43-10.49A86.31,86.31,0,0,1,205.6,546.34Z" transform="translate(-59.62 -57.62)"/><path class="cls-20" d="M591.18,582.2a72.09,72.09,0,0,1-17.36,13.69,98.1,98.1,0,0,1-15.3,6.91,4.23,4.23,0,0,0-.64-2.67q-5.7-9.81-11.76-19.41a345.71,345.71,0,0,0-21.42-29.47c-7.92-10-16.07-19.87-25.29-28.78-3.78-3.65-7.45-7.42-11.16-11.15a6,6,0,0,0-2.11-1.52c.44-.37.86-.77,1.33-1.11a164.72,164.72,0,0,0,16.46-14,134.66,134.66,0,0,0,10.36-11.82,1.8,1.8,0,0,1,1.32.77c5.22,5.34,10.52,10.61,15.62,16.07,1.32,1.41,2.86,2.54,4.1,4,5.57,6.55,11.32,12.94,16.61,19.73,6.75,8.66,13.37,17.43,19.71,26.4,5.34,7.56,10.17,15.47,14.84,23.46C588.17,576.17,590.31,578.86,591.18,582.2Z" transform="translate(-59.62 -57.62)"/><path class="cls-9" d="M620.24,398.29a10.75,10.75,0,0,1-3.43-4c-1.05-1.78-2.8-2.66-4-4.13-2.71-3.22-6.24-5.68-8.6-9.22-.27-.4-.66-.44-.92-.7-.92-.94-2.86-1.22-2.07-3.31.19-.51-.5-1.09-1-1-2.8.41-3.85-2.12-5.69-3.3s-3.19-2.91-4.79-4.33-3.7-2.74-5.1-4.68c-.83-1.15-2.34-1.78-3.1-3.14-.48-.87-.68-1.83-2.36-1.72-1.13.08-2.06-1.83-2.93-3-.2-.27-.3-.79-.53-.85-3.15-.78-4.89-3.44-7.25-5.29-.94-.73-2.38-.76-3.11-1.94-.15-.24-.62-.44-.59-.6.35-2.09-.69-2.07-2.44-2.23s-2.91-2-4.33-3.07c-1-.73-2.36-1.18-2-2.9.1-.5-.45-.6-.9-.52-2,.36-3.25-.67-3.13-3.15-.63,1.65-1.34,1.19-2.07.61s-1.87-1-2.49-1.89c-.3-.43-.95-.74-.58-1.49.23-.46-.13-.75-.53-.94s-.63-.07-.79.35c-.26.66-.63.31-.93,0a54.9,54.9,0,0,0-8.19-5.9c-.71-.44-1.56-.88-1.13-2.05.19-.5-.26-.78-.72-.7-1.94.34-3.35-.74-4.77-1.76-2-1.44-4.43-2.34-5.77-4.61-.06-.09-.16-.21-.25-.22-2.86-.27-4.62-2.39-6.86-3.78a72.76,72.76,0,0,0-8.06-4.66c-1.14-.52-2.2-1.09-2.34-2.56a1,1,0,0,0-.95-.92c-4,.32-6.92-2.45-10-4.11a95.16,95.16,0,0,1-8.31-4.65c-.69-.46-1.49-1.28-2.42-.29a136.57,136.57,0,0,0-21.2-11.85c-5.72-2.5-11.59-4.59-17.5-6.57.29-.73.71-1.22,1.6-.86,1.83.73,3.64.25,5.46-.08.78-.14,1.51-.35,2,.71s1.64.64,2.52.42c2.6-.66,5.17-1.26,7.92-.73a8.3,8.3,0,0,0,6.22-.83c.82-.5,2.26.13,3.36-.07,1.64-.3,3.44,0,4.89-1.18.41-.34,1.39-.44,1.47.25.24,2,1.66,1.44,2.61,1.2,1.95-.5,4-.51,5.84-1.54a2,2,0,0,1,2.64.44c1,1,2.41.67,3.62.22a2.86,2.86,0,0,1,2.35-.18c1.13.53,1.87-.75,3-.59,2.52.36,5.15.27,7.58.93,1.87.51,3.55.15,5.3,0,.74-.07,1.49-.17,2.25-.19a32.36,32.36,0,0,0,10.09,15.46c3.75,3.18,8.18,4.87,12.77,6.29.15,1.07.74.39,1.18.29l2,.22a1.73,1.73,0,0,0,1.06,1.8c3.13,2,6.19,4,9.31,6,1.84,1.15,3.38,2.66,5.09,4,3.67,2.79,7.22,5.71,11.09,8.27,4.1,2.71,7.82,6,11.66,9.09,3.42,2.76,6.69,5.71,10.16,8.4,4.4,3.42,8.44,7.24,12.73,10.79a155.69,155.69,0,0,1,13.36,12.47,5.48,5.48,0,0,0,3,1.52Q620.23,379,620.24,398.29Z" transform="translate(-59.62 -57.62)"/><path class="cls-22" d="M618.81,506a170.6,170.6,0,0,1-3.63,30.55,93,93,0,0,1-6.13,19.27c-1,.16-1.3-.55-1.73-1.18-2.55-3.75-4.8-7.69-7.33-11.46-9.43-14.07-18.91-28.09-29.76-41.12-4.13-5-8.39-9.81-12.62-14.67q-3.67-4.22-7.51-8.28c-5.51-5.86-10.76-12-17-17.14-1.36-1.13-2.33-2.8-4.17-3.34.09-.27.17-.55.28-.82,2.82-6.7,5.89-13.31,7.74-20.39,1.5-5.73,2.57-11.55,3.52-17.39,1.27-.09,2,.86,2.81,1.57C549.2,427,555,432.5,560.82,437.93c3.15,2.94,6,6.21,9.06,9.21,5.73,5.54,10.84,11.68,16.12,17.65s10.41,12.51,15.67,18.71c4.8,5.67,9,11.81,13.36,17.87C616.17,503,616.94,505,618.81,506Z" transform="translate(-59.62 -57.62)"/><path class="cls-26" d="M218.15,572.33a198.71,198.71,0,0,1,34.48-1.73c5.38.15,10.76.73,16.13,1.29a183.43,183.43,0,0,1,21.6,3.64A192,192,0,0,1,322,585.35a218.74,218.74,0,0,1,27.63,13.49q9.85,5.85,19.07,12.61c.57.41,1.21.36,1.74.71-7.65.26-15.3-.06-22.95-.15-8.71-.1-17.42-.18-26.11-.54-11-.45-22-.64-32.86-2-15.64-1.93-30.74-5.66-44.52-13.64A82.05,82.05,0,0,1,218.15,572.33Z" transform="translate(-59.62 -57.62)"/><path class="cls-14" d="M620.21,359.69a5.48,5.48,0,0,1-3-1.52,155.69,155.69,0,0,0-13.36-12.47c-4.29-3.54-8.33-7.37-12.73-10.79-3.47-2.69-6.74-5.64-10.16-8.4-3.83-3.1-7.56-6.37-11.66-9.09-3.86-2.56-7.42-5.48-11.09-8.27-1.71-1.3-3.26-2.8-5.09-4-3.13-2-6.18-4-9.31-6a1.73,1.73,0,0,1-1.06-1.8A30.65,30.65,0,0,0,569,288.2c8.27-8.34,10.27-18.61,7.48-29.9,1.24-.62,2.24,0,3.21.65,2.33,1.62,4.76,3.12,6.93,4.93,3.48,2.9,7.35,5.25,10.87,8.08,2.75,2.2,5.76,4.07,8.48,6.29,3.78,3.07,7.77,5.91,11.14,9.46.58.61.62.08.73-.33a3.42,3.42,0,0,1,.25,1.8c-.22,0-.48.07-.47.36s.28.3.5.34c.69,5,.74,10.11,1,15.18.34,6.52.61,13,.73,19.58C620.05,336.31,620.42,348,620.21,359.69Z" transform="translate(-59.62 -57.62)"/><path class="cls-13" d="M529,458.61c1.83.54,2.81,2.21,4.17,3.34,6.2,5.16,11.45,11.28,17,17.14q3.83,4.08,7.51,8.28c4.24,4.87,8.5,9.71,12.62,14.67,10.85,13,20.33,27.05,29.76,41.12,2.53,3.77,4.78,7.71,7.33,11.46.43.63.78,1.34,1.73,1.18-2.06,5.26-4.38,10.45-7.9,14.85-2.74,3.42-5.28,7.08-8.66,10-.54.46-.59,1.29-1.32,1.57-.86-3.34-3-6-4.7-8.93-4.67-8-9.5-15.9-14.84-23.46-6.34-9-13-17.74-19.71-26.4-5.29-6.79-11-13.19-16.61-19.73-1.24-1.46-2.79-2.6-4.1-4-5.1-5.46-10.39-10.73-15.62-16.07a1.8,1.8,0,0,0-1.32-.77c2-2.82,3.94-5.6,5.84-8.45A154.12,154.12,0,0,0,529,458.61Z" transform="translate(-59.62 -57.62)"/><path class="cls-27" d="M535,608.74c-11.46,1.7-23,2.18-34.56,2.53-.41,0-.81,0-1.22,0a3.63,3.63,0,0,0-.81-1.72q-2.91-4.15-5.78-8.31a288.1,288.1,0,0,0-33-39.2c-3.86-3.9-7.83-7.69-11.81-11.46-2.36-2.24-4.78-4.43-7.29-6.51-3.85-3.18-7.81-6.24-11.69-9.37-.52-.42-1.15-.85-1.16-1.67a8.3,8.3,0,0,1,1.17-.32,111.37,111.37,0,0,0,12.5-2.38,147,147,0,0,0,23.5-8.24,1.91,1.91,0,0,0,.88,1.45c1.75,1.53,3.6,3,5.25,4.59,9.75,9.62,19.34,19.37,28.23,29.81,3.43,4,6.88,8,10.15,12.18,9.2,11.73,17.19,24.29,25.16,36.85A2.75,2.75,0,0,1,535,608.74Z" transform="translate(-59.62 -57.62)"/><path class="cls-11" d="M618.81,506c-1.87-1-2.64-3-3.79-4.63-4.31-6.06-8.55-12.2-13.36-17.87-5.26-6.2-10.27-12.61-15.67-18.71s-10.39-12.11-16.12-17.65c-3.1-3-5.91-6.27-9.06-9.21C555,432.5,549.2,427,543.33,421.58c-.76-.71-1.54-1.66-2.81-1.57a188,188,0,0,0,.89-19.34A144,144,0,0,0,539.3,379a60,60,0,0,1,8,6.18c5,4.2,10.05,8.44,14.93,12.83,5.32,4.79,10.8,9.41,15.75,14.61,4.19,4.39,8.61,8.57,12.85,12.92,2.56,2.62,4.82,5.55,7.48,8.06a104.68,104.68,0,0,1,7.4,7.85c3.6,4.18,7.14,8.41,10.72,12.61a30.5,30.5,0,0,1,3.21,4.34c.69-1.68-.1-3.26.59-4.64.08,10.87-.19,21.72-.57,32.58C619.4,492.88,619.08,499.44,618.81,506Z" transform="translate(-59.62 -57.62)"/><path class="cls-20" d="M197.55,416.18q0-12.84-.06-25.68c0-5,0-10,.06-15a17.51,17.51,0,0,1,4.64-.64c6.45-.72,12.91-1.35,19.38-1.78,6.15-.4,12.31-.58,18.47-.73,9.26-.22,18.51.29,27.75.7,3.48.15,6.95.45,10.42.71.65,0,1.28.24,1.4,1.05-.17,1-.33,2-.53,3.05a128.84,128.84,0,0,0-2.3,19.61c-.2,5.54-.09,11.08.25,16.62-3.19.45-6.34-.08-9.5-.32-6.15-.48-12.33-.34-18.5-.67-3.47-.19-7,.11-10.47.18-6.64.15-13.27.45-19.89.83-2.89.16-5.78.5-8.67.79C205.85,415.29,201.73,416,197.55,416.18Z" transform="translate(-59.62 -57.62)"/><path class="cls-1" d="M617.83,287.38c-.11.41-.15.93-.73.33-3.37-3.55-7.36-6.39-11.14-9.46-2.73-2.22-5.74-4.09-8.48-6.29-3.53-2.83-7.4-5.17-10.87-8.08-2.17-1.81-4.6-3.31-6.93-4.93-1-.68-2-1.27-3.21-.65-2-5.83-5-10.9-10.06-14.79-7.47-5.8-15.72-8.2-25.05-6.61a30,30,0,0,0-15.14,7,34.66,34.66,0,0,0-7.39,9.48c-1.59-1.28-3.75-1-5.47-2a2.91,2.91,0,0,0-2.22,0c-1.77.69-3.67.58-5.45,1.16-1.55.5-3.1-.17-4.65-.39-1.1-.16-2.17-.44-3.19.28-.21.15-.69.24-.8.13-1.24-1.34-2.59-.46-3.91-.24a10.36,10.36,0,0,1-4.65,0c-2.36-.67-4.95,0-6.92.66s-3.53-.23-5.22,0c-4,.64-8-.33-12,.2-1.91.25-3.85.06-5.63,1a.54.54,0,0,1-.49,0c-1.58-1.45-3.72-.78-5.5-1.46-.87-.33-.51.45-.67.78a.68.68,0,0,1-.86.42c-.4-.14-.3-.44-.12-.69.34-.45.62-.92.09-1.39a1.92,1.92,0,0,0-1.84-.2c-1.87.47-3.72.9-5.62.08a3.57,3.57,0,0,0-2.59-.1c-3.41,1.31-7,.75-10.51,1.47a1.26,1.26,0,0,1-1.37-.47,2.39,2.39,0,0,0-3.25-.66c-1.24.75-2.92-.14-3.93,1.22a.52.52,0,0,1-.49,0c-1.62-1.28-3.84-.56-5.51-1.65.63-1.32,2.12-1,2.86-.87,3.9.93,7.42-.33,11-1.47.39-.12.8-.41,1.16-.36,2.7.36,5.31-.78,8-.48.6.07,1.29.07,1.46-.64.29-1.22,1.19-1.21,2.05-1.07A16.35,16.35,0,0,0,453,245.37a5.3,5.3,0,0,1,4.39-.5c.76.28,1.45-.37,2.12-.63,1.89-.74,4.18,0,5.83-1.57.14-.13.59-.08.82,0,2.65,1.32,5.06,0,7.52-.65a.55.55,0,0,0,.39-.82.71.71,0,0,0-.88-.39,15.57,15.57,0,0,0-2,.67,1.63,1.63,0,0,1-2.36-.67c-.29-.46-.69-.91-1.44-.45a3.16,3.16,0,0,1-3.87-.54,1.75,1.75,0,0,0-2.24-.25c-2.5,2-4.89.32-7.31-.11-.36-.06-1.13-.36-.92-1.05.16-.52.75-.5,1.21-.47,1.51.09,3-.21,4.52.26,1.08.33,2.15-.35,3-.74a13.64,13.64,0,0,1,7.06-1.21c2.15.16,4-1,6-1.66a6.78,6.78,0,0,1,2.88-.52c2.66.27,5-.79,7.3-1.83a2.64,2.64,0,0,1,1.86-.2,12.75,12.75,0,0,0,7.81-.51c1.79-.6,3.49-1.49,5.52-1.1a2,2,0,0,0,1.75-.58c2.12-1.43,4.69-.73,6.85-.74,2.33,0,4.66.36,7-.26.73-.19,1.5-.2,1.66.95.1.71.7.93,1.34.52,1.49-1,3-.67,4.69-.59,2.29.11,4.56,1.28,7-.08,1-.54,2.76-1.06,3.48-.81,1.39.49,2.86.77,4.2,1.35a3.14,3.14,0,0,0,3.16,0c1.31-1,2.8-.63,4.18-.92a4.71,4.71,0,0,1,3.52.47c1.39,1.17,2.38.47,3.63.1s3.15-.66,4.1.15c1.38,1.17,2.75.84,4.17.94a6.6,6.6,0,0,1,2.08.18,7.8,7.8,0,0,0,5.16.25c1.34-.37,2.77-.67,4.07.58a2.85,2.85,0,0,0,2.8.65c1.59-.53,2.92,0,4.32.67,1.11.53,2.19,1,3.6.31.9-.45,2.43-.81,3,1,.23.71.87.69,1.43.25.94-.74,2.44.3,3.22-1,0,0,.5.13.57.29.5,1.17,1.42,1.14,2.52,1.23a9.43,9.43,0,0,0,3.08-.1c.65-.16,1.67-.39,2,.23.71,1.44,1.85,1.08,3,1.07,6.21,9.24,10.09,19.48,12.68,30.21a104.4,104.4,0,0,1,2.7,15.56C617.32,284,617.66,285.67,617.83,287.38Zm-139-46.61c-.6-.47-1-.43-1.81,0A1.45,1.45,0,0,0,478.86,240.77Z" transform="translate(-59.62 -57.62)"/><path class="cls-23" d="M197.55,416.18c4.18-.16,8.3-.89,12.45-1.31,2.89-.29,5.77-.62,8.67-.79,6.63-.37,13.25-.68,19.89-.83,3.49-.08,7-.37,10.47-.18,6.16.34,12.34.2,18.5.67,3.17.25,6.32.77,9.5.32.33,1.64.26,3.32.46,5a130.24,130.24,0,0,0,3.37,17.34c1.24,4.73,2.9,9.32,4.38,14l.26.55.09.34c-1.07,1.34-2.52,1.16-4,1-2.7-.32-5.39-.75-8.1-1-5.55-.42-11.12-1-16.68-1-8.39,0-16.78-.27-25.18.21-6.72.38-13.44.73-20.13,1.46-4.66.51-9.32,1-13.95,1.77q-.06-13-.12-26C197.48,423.87,197.53,420,197.55,416.18Z" transform="translate(-59.62 -57.62)"/><path class="cls-23" d="M535,608.74a2.75,2.75,0,0,0-.53-1.79c-8-12.57-16-25.13-25.16-36.85-3.26-4.16-6.72-8.16-10.15-12.18-8.89-10.45-18.48-20.2-28.23-29.81-1.65-1.63-3.5-3.05-5.25-4.59a1.91,1.91,0,0,1-.88-1.45,126.88,126.88,0,0,0,12-6.28c3.12-2,6.22-4,9.33-6a6,6,0,0,1,2.11,1.52c3.71,3.73,7.38,7.49,11.16,11.15,9.21,8.91,17.36,18.74,25.29,28.78a345.71,345.71,0,0,1,21.42,29.47q6.06,9.6,11.76,19.41a4.23,4.23,0,0,1,.64,2.67A114.2,114.2,0,0,1,535,608.74Z" transform="translate(-59.62 -57.62)"/><path class="cls-29" d="M318.91,499.63c-.52.63-1.14.4-1.76.23a262.77,262.77,0,0,0-31-6.52c-6.08-.94-12.19-1.54-18.31-2.15a257.59,257.59,0,0,0-31.79-.9c-5.55.14-11.12.64-16.67,1.17-7,.66-13.9,1.9-20.88,2.61-.6-2.46-.2-5-.29-7.43a.58.58,0,0,0,0-.27l0-1.43,0-.81q0-.24,0-.49l0-.4L198,482.1a2,2,0,0,0-.07-2v-.78a.6.6,0,0,0,0-1l0-3.89c4.28-.78,8.61-1.19,12.91-1.81a218.65,218.65,0,0,1,23.93-1.94c7.68-.26,15.39-.3,23.1.18,6.49.4,13,.75,19.45,1.45,5.71.62,11.39,1.38,17,2.39.94.17,2.13.58,2.83-.66,2.25,3.05,4.3,6.25,6.81,9.12,3.05,3.49,5.76,7.3,9.12,10.51Q316.1,496.55,318.91,499.63Z" transform="translate(-59.62 -57.62)"/><path class="cls-29" d="M427.65,533c0,.82.64,1.25,1.16,1.67,3.89,3.14,7.84,6.19,11.69,9.37,2.51,2.08,4.93,4.27,7.29,6.51,4,3.77,8,7.56,11.81,11.46a288.1,288.1,0,0,1,33,39.2q2.87,4.17,5.78,8.31a3.63,3.63,0,0,1,.81,1.72c-7.59.49-15.2.65-22.81.66-.56-2.43-2.38-4.09-3.81-5.94-4.72-6.11-9.78-12-14.86-17.78s-10.28-11.44-15.79-16.8c-4.45-4.34-9.33-8.21-14-12.32a287.23,287.23,0,0,0-24.08-18.7c-1.94-1.38-4-2.56-6.05-3.82-.24-.15-.59-.38-.8-.31-2.86,1.06-3.44-1.6-4.84-2.92a117.76,117.76,0,0,0,12,.82,7.86,7.86,0,0,0,4.09.13h1.92a6.73,6.73,0,0,0,3.74-.13C418.53,534,423.08,533.4,427.65,533Z" transform="translate(-59.62 -57.62)"/><path class="cls-10" d="M419.93,220.06c0-.34-.06-.79.31-.94,3.3-1.35,6.31-3.45,9.86-4.1a4.07,4.07,0,0,1,4.05,1.27c.65.81,1,.44,1.22-.18a3.29,3.29,0,0,1,2.88-2.4c.11,0,.3-.06.31-.11.45-2.7,2.14-1.05,3.35-.93a13.28,13.28,0,0,0,6.71-1.35c3.32-1.43,7-1.57,10.41-2.47,1.42-.37,2.66-1.37,4.29-1.11a19.68,19.68,0,0,0,4.51.4c2.15-.15,4-1.28,5.89-2,.36-.14.67-.49,1.09-.42,2.76.41,5.14-.71,7.32-2.09a6.57,6.57,0,0,1,5.13-.75c.4.08.94.58,1.26,0s-.15-1-.45-1.42-1.14-1.09-.77-1.64c1.44-2.18-.06-3.33-1.36-4.63-.13-.13-.06-.45-.09-.68,15,.47,30,.66,44.9,2.45a121.71,121.71,0,0,1,35.32,9.45,54.79,54.79,0,0,1,9.26,4.85c0,.35,0,.7,0,1.05,0,1.94-.7,2.34-2.44,1.44a4.68,4.68,0,0,0-3.26-.29c-3.6.84-7.28-.08-10.87.63a2.23,2.23,0,0,1-1.64-.51c-1.17-.79-2.48-.57-3.74-.77-2-.31-3.41,1-5.2,1-2.17.06-4.31.93-6.53.36a.77.77,0,0,0-.9.39c-.73,1.31-1.79,1.09-2.87.61a4.75,4.75,0,0,0-2-.38c-2.21,0-4.37.08-6.39,1.27-1.28.76-2.57-.18-3.85-.37a16.82,16.82,0,0,0-7.72.18c-2.17.68-4.5,1.58-6.9.37-1.11-.56-2.25,0-3.36.29a14.39,14.39,0,0,1-4.55,1.08,60.87,60.87,0,0,0-15.82,1.33c-.35.08-.79.11-.93-.26-.67-1.7-1.93-1.08-3.09-.84-1.8.37-3.65,1.31-5.34,1.23a19.55,19.55,0,0,0-8,1.11,7.11,7.11,0,0,1-2.25.22l-.57-1.58c-.55-.1-.8.29-1,.57-1.37,1.53-2.89.24-4.34.24-.33,0-.74-.33-1-.23-2.56,1-5.27.26-7.87.72-2.13.37-4.29.75-6.4-.16a4,4,0,0,0-2.55.15c-2.32.55-4.61-.81-6.95.12-1,.39-1.83.65-2.06,1.73-.7,0-.53-.9-1.07-.81-1.84.29-3.19-1.29-5-1.24-.28,0-.65-.23-.83-.12C425.35,221.36,422.63,220.25,419.93,220.06Zm70.45-21.14c.61-.16,1.18-.35,1.06-.88a2.53,2.53,0,0,0-1.75-1.8c-.57-.19-1,.13-1,.83C488.74,198.26,490.19,198,490.38,198.92Z" transform="translate(-59.62 -57.62)"/><path class="cls-13" d="M279.6,374.8c-.12-.81-.75-1-1.4-1.05-3.47-.26-6.94-.56-10.42-.71-9.25-.41-18.49-.92-27.75-.7-6.16.15-12.32.32-18.47.73-6.47.42-12.93,1.06-19.38,1.78a17.51,17.51,0,0,0-4.64.64V358.64c1.87-.38,4-.15,5.35-1.92.19-.25.54,0,.77.2a2,2,0,0,0,2.94-.1c.52-.5,1.39-.48,2.13-.66,2.61-.64,5.34-.49,7.93-1.3,2.87-.9,5.76-1.79,8.69-2.47,5.24-1.21,10.69-1.4,15.85-2.92,7.3-2.15,15-1.49,22.31-3.4,5.2-1.35,10.67-1.19,15.93-2.48,3.14-.77,6.39-1.08,9.52-2a3.87,3.87,0,0,1,3,0,121.93,121.93,0,0,0-8.79,20.89C281.81,366.52,280.77,370.68,279.6,374.8Z" transform="translate(-59.62 -57.62)"/><path class="cls-27" d="M297.16,474c-.7,1.24-1.88.83-2.83.66-5.65-1-11.33-1.77-17-2.39-6.47-.7-13-1.05-19.45-1.45-7.71-.47-15.42-.44-23.1-.18a218.65,218.65,0,0,0-23.93,1.94c-4.3.62-8.63,1-12.91,1.81l-.21-12.7a5.3,5.3,0,0,0,0-3,28.14,28.14,0,0,1,0-5c4.63-.73,9.29-1.26,13.95-1.77,6.7-.73,13.41-1.08,20.13-1.46,8.4-.48,16.79-.24,25.18-.21,5.56,0,11.12.59,16.68,1,2.71.21,5.4.64,8.1,1,1.44.17,2.9.35,4-1A186.16,186.16,0,0,0,297.16,474Z" transform="translate(-59.62 -57.62)"/><path class="cls-17" d="M467.65,220.41a7.11,7.11,0,0,0,2.25-.22,19.55,19.55,0,0,1,8-1.11c1.69.08,3.54-.86,5.34-1.23,1.16-.24,2.43-.86,3.09.84.14.37.59.34.93.26a60.87,60.87,0,0,1,15.82-1.33,14.39,14.39,0,0,0,4.55-1.08c1.11-.34,2.25-.85,3.36-.29,2.39,1.21,4.73.31,6.9-.37a16.82,16.82,0,0,1,7.72-.18c1.28.19,2.57,1.13,3.85.37,2-1.19,4.18-1.26,6.39-1.27a4.75,4.75,0,0,1,2,.38c1.07.48,2.14.7,2.87-.61a.77.77,0,0,1,.9-.39c2.22.58,4.36-.3,6.53-.36,1.79,0,3.2-1.33,5.2-1,1.26.2,2.57,0,3.74.77a2.23,2.23,0,0,0,1.64.51c3.59-.71,7.27.22,10.87-.63a4.68,4.68,0,0,1,3.26.29c1.73.9,2.39.5,2.44-1.44,0-.35,0-.7,0-1.05a65.33,65.33,0,0,1,12.25,9.23,123,123,0,0,1,13.31,14.75c.32.4.57.85.85,1.28-1.11,0-2.26.38-3-1.07-.3-.61-1.32-.39-2-.23a9.43,9.43,0,0,1-3.08.1c-1.1-.08-2-.06-2.52-1.23-.07-.16-.56-.31-.57-.29-.78,1.31-2.28.26-3.22,1-.56.44-1.2.47-1.43-.25-.57-1.79-2.1-1.43-3-1-1.41.71-2.49.22-3.6-.31-1.4-.67-2.73-1.2-4.32-.67a2.85,2.85,0,0,1-2.8-.65c-1.29-1.25-2.73-.94-4.07-.58a7.8,7.8,0,0,1-5.16-.25,6.6,6.6,0,0,0-2.08-.18c-1.42-.1-2.79.22-4.17-.94-1-.81-2.74-.55-4.1-.15s-2.24,1.07-3.63-.1a4.71,4.71,0,0,0-3.52-.47c-1.38.28-2.87,0-4.18.92a3.14,3.14,0,0,1-3.16,0c-1.34-.58-2.82-.86-4.2-1.35-.72-.26-2.53.27-3.48.81-2.42,1.36-4.69.2-7,.08-1.66-.08-3.2-.38-4.69.59-.64.41-1.24.19-1.34-.52-.16-1.15-.93-1.14-1.66-.95-2.35.62-4.67.25-7,.26-2.16,0-4.73-.7-6.85.74-.27-.58-.66-.59-1.28-.48a6.17,6.17,0,0,1-5-.85c-.64.39.27,1.24-.53,1.49s-.81-.44-1-.87-.71-.28-1.09-.36a28.28,28.28,0,0,1-3.56-.73,2.91,2.91,0,0,0-2.65.22,1.77,1.77,0,0,1-2,.26c-.33-.19-.9,0-1-.46-.21-.72.52-.61.85-.85.7-.51.87-.82,0-1.53-1.17-.94-2.87-.76-3.86-2.06-.26-.35-1-.08-1.48.15a4.82,4.82,0,0,1-2.41.69c-.15-.58.31-.66.54-.87.75-.66.65-1.13-.23-1.56-2.31-1.13-4.68-.78-7.1-.42C469.25,221.82,467.57,222.7,467.65,220.41Z" transform="translate(-59.62 -57.62)"/><path class="cls-11" d="M197.64,345.31l.26-14.73c2.17.6,4.23-.31,6.31-.61,2.59-.38,5.09-1.36,7.68-1.82,3.33-.6,6.73-.84,10.07-1.44,3-.55,6.05-1,9.05-1.7,5.26-1.16,10.56-2.16,15.87-3.08,2.06-.36,4-1.3,6-1.42,2.64-.17,5.29-.05,7.93-.43,4.07-.59,8.17-1,12.22-1.68,3.76-.62,7.26-2.19,11.2-2.41a110.73,110.73,0,0,0,14.64-1.88c2-.38,4.1-.34,6-1,3-1.05,6.19-.76,9.24-1.41-2,2.26-4.14,4.47-6.11,6.8-2.87,3.4-5.64,6.88-8.46,10.33-1.31-.63-2.62,0-3.93,0-4.73,0-9.27,1.38-13.91,2-4.18.58-8.21,1.95-12.52,2a20.79,20.79,0,0,0-5,.35c-5,1.28-10.22,1.86-15.28,3-3.1.73-6.22,1.44-9.36,1.9-1.33.2-2.61.59-4,.68-2.56.16-5.21.22-7.64,1.27-.41.18-.68.32-1.1,0-1.18-.77-2.22-.14-3.19.47-.33.21-.56.55-1,.55-2.14,0-4.18.7-6.27,1-4.25.61-8.41,1.71-12.65,2.3C201.66,344.68,199.82,346.26,197.64,345.31Z" transform="translate(-59.62 -57.62)"/><path class="cls-9" d="M198.35,314.43c2.87-.42,5.68-1.14,8.5-1.78a149.35,149.35,0,0,1,15.28-2.42c2.9-.34,5.57-1.58,8.45-2,1.77-.27,3.5-1,5.26-1.08a47.29,47.29,0,0,0,12-2.14c3.86-1.13,7.93-1.13,11.81-2.15A66.07,66.07,0,0,1,272.35,301c2.52-.16,5-1.12,7.51-1.44,5-.64,9.83-2.27,14.93-2.45a26.12,26.12,0,0,0,6-1.09,24.93,24.93,0,0,1,5.36-.55,9.94,9.94,0,0,0,2.93-.37,22.05,22.05,0,0,1,8.79-1c3,.15,5.77-1.32,8.75-1.21,3.77.14,7.21-1.91,11-1.6.61.05,1.32-.22,1.73.51a105.18,105.18,0,0,0-9.62,6.19,55.4,55.4,0,0,1-5.13,3.84,2,2,0,0,0-1.33-.14c-2.93.51-5.71,1.59-8.74,1.88-3.2.31-6.3,1.53-9.6,1.4a21.85,21.85,0,0,0-4.26-.07c-3.62.55-7.14,1.58-10.69,2.41-5.28,1.23-10.75,1-16,2.53-2.5.75-5.2.52-7.77.89-4.93.7-9.66,2.4-14.68,2.79-5.61.43-10.92,2.59-16.55,3.19-4.74.5-9.34,1.94-14.06,2.71-5.26.86-10.52,1.75-15.71,3-2.36.58-4.76,1-7.14,1.47Z" transform="translate(-59.62 -57.62)"/><path class="cls-22" d="M197.64,345.31c2.19,1,4-.63,6-.91,4.24-.59,8.39-1.69,12.65-2.3,2.09-.3,4.13-1,6.27-1,.46,0,.69-.35,1-.55,1-.61,2-1.23,3.19-.47.42.28.7.13,1.1,0,2.43-1.06,5.08-1.11,7.64-1.27,1.38-.09,2.66-.48,4-.68,3.15-.47,6.26-1.18,9.36-1.9,5.06-1.18,10.23-1.77,15.28-3a20.79,20.79,0,0,1,5-.35c4.31,0,8.35-1.38,12.52-2,4.64-.64,9.18-2,13.91-2,1.31,0,2.62-.6,3.93,0l-7.66,12.74a3.87,3.87,0,0,0-3,0c-3.13.92-6.38,1.23-9.52,2-5.26,1.29-10.73,1.13-15.93,2.48-7.33,1.91-15,1.24-22.31,3.4-5.16,1.52-10.61,1.71-15.85,2.92-2.93.68-5.81,1.57-8.69,2.47-2.59.81-5.32.66-7.93,1.3-.73.18-1.61.16-2.13.66a2,2,0,0,1-2.94.1c-.23-.18-.58-.45-.77-.2-1.39,1.77-3.48,1.54-5.35,1.92l.06-8.11a.65.65,0,0,0,0-1Z" transform="translate(-59.62 -57.62)"/><path class="cls-15" d="M198,323.91c2.38-.49,4.78-.89,7.14-1.47,5.19-1.28,10.45-2.17,15.71-3,4.72-.77,9.32-2.21,14.06-2.71,5.63-.6,10.94-2.76,16.55-3.19,5-.39,9.76-2.09,14.68-2.79,2.57-.36,5.27-.13,7.77-.89,5.21-1.58,10.69-1.3,16-2.53,3.55-.83,7.07-1.85,10.69-2.41a21.85,21.85,0,0,1,4.26.07c3.3.13,6.4-1.08,9.6-1.4,3-.29,5.81-1.37,8.74-1.88a2,2,0,0,1,1.33.14c-.54,1.11-1.69,1.53-2.52,2.31-2.66,2.49-5.27,5-7.89,7.56-3,.65-6.21.36-9.24,1.41-1.88.65-4,.61-6,1A110.73,110.73,0,0,1,284.27,316c-3.94.22-7.44,1.79-11.2,2.41-4.06.67-8.15,1.08-12.22,1.68-2.64.38-5.3.27-7.93.43-2,.13-4,1.06-6,1.42-5.31.93-10.61,1.92-15.87,3.08-3,.67-6,1.15-9.05,1.7-3.33.61-6.73.84-10.07,1.44-2.59.47-5.09,1.44-7.68,1.82-2.08.3-4.14,1.21-6.31.61l.08-5.29s.09-.06.09-.09A1.17,1.17,0,0,0,198,325Z" transform="translate(-59.62 -57.62)"/><path class="cls-3" d="M337.84,194.41c0,.67-.76,1-.74,1.72,0,1-.7.87-1.19.48-1.91-1.54-4-.66-5.86-.19s-3.81.84-5.72,1.26c-.68.15-1.78,0-1.81,1.23,0,.57-.44.37-.74.47-1.52.51-3.24.51-4.5,1.74-.14.13-.52.24-.61.16-2.09-1.85-3.31.35-4.9,1-2.68,1.06-5.33,2.28-8.29,2.37-.8,0-1.66-.19-2.19.72-.09.15-.5.31-.58.24-1.22-1-2.17.15-3.24.27-3.26.35-6.19,2-9.33,2.3-4.5.47-8.69,2-13.09,2.84-1.75.32-3.72.22-5.16,1.71-.63.66-1.5-.06-2.33.15a60.27,60.27,0,0,1-9.34,1.74c-3.63.31-6.94,2.09-10.71,1.76-1.72-.15-3.64.69-5.31,1.44-3.35,1.5-7.12,1.11-10.48,2.49-.25.1-.65-.16-1-.25a69.37,69.37,0,0,1,16.12-11.24c11.69-6.27,24.3-9.64,37.36-11.49A187.56,187.56,0,0,1,307,195.42c6-.11,11.94-.51,17.91-.72C329.24,194.56,333.54,194.43,337.84,194.41Z" transform="translate(-59.62 -57.62)"/><path class="cls-26" d="M402.41,612.22c2.43-.59,4.9-.1,7.35-.28,2.1.17,4.22-.33,6.3.27Z" transform="translate(-59.62 -57.62)"/><path class="cls-3" d="M345.88,194.18c-1.39.62-2.9,0-4.29.38-.68.2-1.56.1-1.89,1-.14.4-.5.84-.89.66-.57-.26-.17-.79-.06-1.21.06-.22.09-.45.14-.68A48.71,48.71,0,0,1,345.88,194.18Z" transform="translate(-59.62 -57.62)"/><path class="cls-26" d="M448.06,612.14a67.6,67.6,0,0,1,9.53-.12A55.69,55.69,0,0,1,448.06,612.14Z" transform="translate(-59.62 -57.62)"/><path class="cls-23" d="M197.64,458.68a5.3,5.3,0,0,1,0,3A10.27,10.27,0,0,1,197.64,458.68Z" transform="translate(-59.62 -57.62)"/><path class="cls-16" d="M197.94,480.07a2,2,0,0,1,.07,2Z" transform="translate(-59.62 -57.62)"/><path class="cls-1" d="M618.11,289.87c-.22,0-.49-.06-.5-.34s.25-.32.47-.36Z" transform="translate(-59.62 -57.62)"/><path class="cls-14" d="M199.92,288c0,.41.13.84-.23,1.18A1.6,1.6,0,0,1,199.92,288Z" transform="translate(-59.62 -57.62)"/><path class="cls-11" d="M197.62,349.55a.65.65,0,0,1,0,1Q197.62,350,197.62,349.55Z" transform="translate(-59.62 -57.62)"/><path class="cls-16" d="M197.92,478.31a.6.6,0,0,1,0,1Z" transform="translate(-59.62 -57.62)"/><path class="cls-16" d="M198.14,484.14l0,.81A.63.63,0,0,1,198.14,484.14Z" transform="translate(-59.62 -57.62)"/><path class="cls-9" d="M198,325a1.17,1.17,0,0,1,.06.22s-.06.06-.09.09A.24.24,0,0,1,198,325Z" transform="translate(-59.62 -57.62)"/><path class="cls-16" d="M198.1,483.25l0,.4a1.68,1.68,0,0,1-.11-.27S198.07,483.29,198.1,483.25Z" transform="translate(-59.62 -57.62)"/><path class="cls-16" d="M198.2,486.38a.58.58,0,0,1,0,.27l-.09-.13Z" transform="translate(-59.62 -57.62)"/><path class="cls-14" d="M346.09,261.47c0,.43-.35.52-.66.68-1.62.8-3.5.78-5.08,1.68a.72.72,0,0,1-1-.18.62.62,0,0,1,.23-.91,11.2,11.2,0,0,1,5.94-1.61C345.79,261.14,346,261.19,346.09,261.47Z" transform="translate(-59.62 -57.62)"/><path class="cls-14" d="M350.44,261.16c-.46.08-1,.22-1.58.28-.36,0-.73-.06-.78-.51,0-.21.06-.61.14-.62.94-.11,1.56-1.11,2.37-1.09.51,0,1.8-.4,1.76.72A1.28,1.28,0,0,1,350.44,261.16Z" transform="translate(-59.62 -57.62)"/><path class="cls-10" d="M435.26,213.68c.07.52-.15.69-.46.72s-.72,0-.75-.49a.45.45,0,0,1,.41-.47A.74.74,0,0,1,435.26,213.68Z" transform="translate(-59.62 -57.62)"/><path class="cls-10" d="M468.35,203.32c-.11.17-.17.38-.27.41-.28.07-.39-.15-.36-.38a.43.43,0,0,1,.28-.3C468.1,203,468.22,203.21,468.35,203.32Z" transform="translate(-59.62 -57.62)"/><path class="cls-14" d="M539.58,296.89a1.45,1.45,0,0,1,1.18.29C540.32,297.28,539.73,298,539.58,296.89Z" transform="translate(-59.62 -57.62)"/><path class="cls-19" d="M478.86,240.77a1.45,1.45,0,0,1-1.81,0C477.81,240.35,478.26,240.3,478.86,240.77Z" transform="translate(-59.62 -57.62)"/><path class="cls-27" d="M285.25,450.36l.26.55Z" transform="translate(-59.62 -57.62)"/><path class="cls-26" d="M404.18,534.13a18.08,18.08,0,0,1,4.1.13A7.86,7.86,0,0,1,404.18,534.13Z" transform="translate(-59.62 -57.62)"/><path class="cls-26" d="M410.19,534.26a15.27,15.27,0,0,1,3.74-.13A6.73,6.73,0,0,1,410.19,534.26Z" transform="translate(-59.62 -57.62)"/><path class="cls-25" d="M490.38,198.92c-.2-.91-1.64-.66-1.67-1.85,0-.7.41-1,1-.83a2.53,2.53,0,0,1,1.75,1.8C491.56,198.57,491,198.76,490.38,198.92Z" transform="translate(-59.62 -57.62)"/><path class="cls-13" d="M493.13,420a84.67,84.67,0,0,1-19.45,39.33,8.61,8.61,0,0,1-.77.7,1.31,1.31,0,0,0-.75-1.09c-1.4-.94-2.76-1.93-4.14-2.89-6.87-4.79-13.69-9.65-20.74-14.19-10.3-6.63-21.1-12.37-31.9-18.11-5.51-2.93-11.21-5.46-16.91-8-8.93-4-17.94-7.83-27.15-11.09a334.79,334.79,0,0,0-37.26-11.18,84.2,84.2,0,0,0-10.2-2.19c2.16-16.64,9.12-31,20.19-43.56,4.49,1.14,8.87,2.61,13.39,3.68s9,2.67,13.48,4.08c11.49,3.61,22.75,7.85,33.92,12.34,5.39,2.16,10.56,4.86,15.9,7.17,5,2.17,9.83,4.76,14.8,7s9.76,5.45,14.69,8.08c7,3.75,13.7,8.13,20.52,12.23,7.08,4.25,13.73,9.19,20.5,13.94.85.6,2.29,1,1.39,2.68C492.53,419.14,493,419.64,493.13,420Z" transform="translate(-59.62 -57.62)"/><path class="cls-20" d="M323.86,391.27a84.2,84.2,0,0,1,10.2,2.19,334.79,334.79,0,0,1,37.26,11.18c9.22,3.27,18.22,7.08,27.15,11.09,5.69,2.56,11.4,5.1,16.91,8,10.8,5.74,21.6,11.48,31.9,18.11,7.05,4.54,13.87,9.4,20.74,14.19,1.38,1,2.74,2,4.14,2.89a1.31,1.31,0,0,1,.75,1.09c-3.7,4.55-8.38,8-13,11.55a75.4,75.4,0,0,1-15.77,9.25,3.44,3.44,0,0,1-1.78.58c0-.75-.63-1-1.14-1.43-4-3.06-8.37-5.49-12.6-8.17a291,291,0,0,0-25.26-14.59c-5.17-2.59-10.34-5.17-15.58-7.6-4.81-2.23-9.64-4.43-14.58-6.35a352.42,352.42,0,0,0-35.71-12.12c-3.46-.94-6.88-2.16-10.53-2.33a69.07,69.07,0,0,1-3.45-15.7A81.72,81.72,0,0,1,323.86,391.27Z" transform="translate(-59.62 -57.62)"/><path class="cls-22" d="M493.13,420c-.17-.36-.6-.87-.49-1.07.9-1.64-.54-2.09-1.39-2.68-6.77-4.75-13.41-9.69-20.5-13.94-6.83-4.1-13.48-8.48-20.52-12.23-4.93-2.63-9.63-5.76-14.69-8.08s-9.79-4.86-14.8-7c-5.34-2.31-10.51-5-15.9-7.17-11.17-4.48-22.43-8.72-33.92-12.34-4.48-1.41-8.92-3-13.48-4.08s-8.9-2.54-13.39-3.68a74,74,0,0,1,11.89-11.5,68.87,68.87,0,0,1,11.53-7.51,66.81,66.81,0,0,1,9.18-4.15,8.86,8.86,0,0,0,2.36,1.09c2.2.68,4.85.57,5.89,3.35.17.45.76.48,1.2.64,4.44,1.59,8.87,3.23,13.32,4.79,13,4.57,25.51,10.28,37.95,16.13,7.92,3.72,15.67,7.8,23.3,12.11,6.79,3.84,13.67,7.51,20.2,11.8,2.78,1.82,5.61,3.55,8.4,5.36.64.41,1.12.77,1.25-.37,0-.35.36-.42.65-.46l.41,1.38c-.6.48-.25.64.26.73A85,85,0,0,1,493.13,420Z" transform="translate(-59.62 -57.62)"/><path class="cls-23" d="M327,428.81c3.64.17,7.06,1.4,10.53,2.33a352.42,352.42,0,0,1,35.71,12.12c4.94,1.92,9.77,4.11,14.58,6.35,5.24,2.43,10.41,5,15.58,7.6a291,291,0,0,1,25.26,14.59c4.23,2.68,8.62,5.11,12.6,8.17.52.4,1.09.69,1.14,1.43A71.88,71.88,0,0,1,423.67,487a86,86,0,0,1-35.78-1.32,91.18,91.18,0,0,1-17.34-6.44c-14.49-7-25.6-17.66-34.42-31a86,86,0,0,1-9-18.72A3.07,3.07,0,0,1,327,428.81Z" transform="translate(-59.62 -57.62)"/><path class="cls-11" d="M491.17,379c-.3,0-.61.11-.65.46-.13,1.14-.61.78-1.25.37-2.79-1.81-5.62-3.54-8.4-5.36-6.53-4.28-13.41-8-20.2-11.8-7.63-4.31-15.38-8.39-23.3-12.11-12.44-5.85-25-11.57-37.95-16.13-4.45-1.56-8.88-3.2-13.32-4.79-.44-.16-1-.19-1.2-.64-1-2.78-3.68-2.68-5.89-3.35a8.86,8.86,0,0,1-2.36-1.09,68,68,0,0,1,17.72-5.17,87.14,87.14,0,0,1,47.57,5.23,88.14,88.14,0,0,1,24.22,15.17c11.85,10.15,19.76,22.83,24.64,37.52A3.2,3.2,0,0,1,491.17,379Z" transform="translate(-59.62 -57.62)"/><path class="cls-11" d="M491.83,381.1c-.51-.1-.86-.25-.26-.73A.71.71,0,0,1,491.83,381.1Z" transform="translate(-59.62 -57.62)"/></svg>