<svg id="Слой_1" data-name="Слой 1" xmlns="http://www.w3.org/2000/svg" viewBox="0 0 682 682"><defs><style>.cls-1{fill:#0084fe;}.cls-2{fill:#9acefe;}.cls-3{fill:#3fa1fe;}.cls-4{fill:#7ec0fe;}.cls-5{fill:#bedffe;}.cls-6{fill:#3fa2fe;}.cls-7{fill:#fefefe;}.cls-8{fill:#0184fe;}</style></defs><title>massanger</title><path class="cls-1" d="M626.12,743.65h-4.58c-1.25-1-2.72-.64-4.1-.64q-24.86,0-49.71,0c-9.59,0-19.18.1-28.77.15-3.7-.05-7.41-.15-11.11-.15l-105.31.07q-27.74,0-55.47-.07-30.18,0-60.37.08c-1.31,0-2.61-.09-3.92-.09-36.19,0-72.38.05-108.58,0-9.47,0-18.93.11-28.38-1.11-51.62-6.69-94.2-46.14-104.58-97.09-1-4.75-1.72-9.55-2.57-14.33q0-63.49,0-127c1-1.36.64-2.94.64-4.43q0-53.65,0-107.29c0-1.42-.1-2.83-.15-4.25.05-.87.15-1.74.15-2.61q0-55.78,0-111.56c0-.76-.09-1.52-.14-2.28,0-14.94.13-29.88.14-44.82,0-14.72-.08-29.45-.13-44.17a143.37,143.37,0,0,1,2-19.13c8.37-47.79,46-87.31,93.21-98.1,5.8-1.32,11.72-1.78,17.49-3.16H299.51c1.36,1,2.94.64,4.43.64q41.54,0,83.08,0c9.7,0,19.41-.07,29.11-.11.44,0,.87,0,1.31,0l200.22.13c.87,0,1.74-.09,2.61-.14a119.23,119.23,0,0,1,14.63,1.27c51.44,7.3,93.24,47.06,103.29,98.09,1,4.85,1,9.85,2.46,14.61v3.27c-.86.76-.64,1.8-.64,2.75q0,40.86,0,81.71,0,17.95,0,35.9,0,40.3.08,80.61,0,28.14-.07,56.28,0,30.1.08,60.21c0,1.31-.09,2.61-.09,3.92q0,54.6,0,109.19c0,11.66-.34,23.26-2.53,34.79-9,47.26-49.12,87.39-96.45,96.21C636.05,742,631.08,742.79,626.12,743.65ZM249.77,599.81q0,19.63,0,39.26c0,3.74,0,3.74,3.33,1.91q37.74-20.85,75.47-41.72a6.53,6.53,0,0,1,5.25-.69,251.68,251.68,0,0,0,122.3,2.27c54-12.4,99.62-39.19,134.29-82.7,43.45-54.52,58-116.39,41.37-184.3C618,277.37,584.67,234,536.24,202.55c-56.65-36.72-118.81-47.9-184.93-35.48-58.63,11-107.63,39.37-144.43,86.6C164.58,308,151,369.29,167.44,436.31c12.11,49.32,40.09,88.64,79.92,119.74a5.69,5.69,0,0,1,2.47,5.15C249.72,574.07,249.77,586.94,249.77,599.81Z" transform="translate(-58.65 -61.65)"/><path class="cls-2" d="M620.22,61.65a1.61,1.61,0,0,0,0,.57c-.87,0-1.74.14-2.61.14l-200.22-.13c-.44,0-.87,0-1.31,0a2.91,2.91,0,0,0-.12-.54Z" transform="translate(-58.65 -61.65)"/><path class="cls-3" d="M416,61.65a2.91,2.91,0,0,1,.12.54c-9.7,0-19.41.11-29.11.11q-41.54,0-83.08,0c-1.49,0-3.07.4-4.43-.64Z" transform="translate(-58.65 -61.65)"/><path class="cls-4" d="M740.08,380.44q0-40.3-.08-80.61,0-17.95,0-35.9l.31,0h.31V380.4Z" transform="translate(-58.65 -61.65)"/><path class="cls-4" d="M59.16,271c0,.76.14,1.52.14,2.28q0,55.78,0,111.56c0,.87-.1,1.74-.15,2.61a.92.92,0,0,0-.5.12V271.1l.25-.09Z" transform="translate(-58.65 -61.65)"/><path class="cls-5" d="M740.08,380.44l.57,0V496.9a2.91,2.91,0,0,1-.57,0q0-30.1-.08-60.21Q740,408.58,740.08,380.44Z" transform="translate(-58.65 -61.65)"/><path class="cls-4" d="M422.52,743.08,527.84,743c3.7,0,7.41.1,11.11.15a2.37,2.37,0,0,0,.12.5H422.56A3,3,0,0,0,422.52,743.08Z" transform="translate(-58.65 -61.65)"/><path class="cls-3" d="M58.65,387.6a.92.92,0,0,1,.5-.12c.05,1.42.15,2.83.15,4.25q0,53.65,0,107.29c0,1.49.4,3.07-.64,4.43Z" transform="translate(-58.65 -61.65)"/><path class="cls-5" d="M422.52,743.08a3,3,0,0,1,0,.57H306.71a3,3,0,0,0,0-.57q30.18,0,60.37-.08Q394.79,743,422.52,743.08Z" transform="translate(-58.65 -61.65)"/><path class="cls-5" d="M59.16,271l-.26,0-.25.09v-89a.58.58,0,0,1,.52,0c0,14.72.13,29.45.13,44.17C59.3,241.15,59.21,256.09,59.16,271Z" transform="translate(-58.65 -61.65)"/><path class="cls-6" d="M740.65,263.9h-.31l-.31,0q0-40.86,0-81.71c0-1-.22-2,.64-2.75Z" transform="translate(-58.65 -61.65)"/><path class="cls-3" d="M539.07,743.65a2.37,2.37,0,0,1-.12-.5c9.59-.05,19.18-.13,28.77-.15q24.86,0,49.71,0c1.38,0,2.86-.34,4.1.64Z" transform="translate(-58.65 -61.65)"/><path class="cls-7" d="M249.77,599.81c0-12.87-.05-25.74.05-38.61a5.69,5.69,0,0,0-2.47-5.15c-39.83-31.1-67.81-70.42-79.92-119.74-16.45-67-2.86-128.35,39.44-182.63,36.81-47.23,85.8-75.59,144.43-86.6,66.11-12.42,128.28-1.24,184.93,35.48C584.67,234,618,277.37,631.78,333.84c16.6,67.91,2.08,129.78-41.37,184.3-34.67,43.51-80.28,70.3-134.29,82.7a251.68,251.68,0,0,1-122.3-2.27,6.53,6.53,0,0,0-5.25.69Q290.87,620.17,253.1,641c-3.32,1.84-3.33,1.84-3.33-1.91Q249.77,619.45,249.77,599.81ZM550.62,324.54c-.88.43-1.78.81-2.63,1.29q-54,30-107.86,60.14c-2.85,1.6-4.34,1.24-6.47-1q-28.08-29.71-56.36-59.22c-2.94-3.08-3-3.07-5.86,0L253.87,451.33c-2.44,2.6-4.82,5.26-7.57,8.28,2.32,0,3.48-1.15,4.77-1.86q54.27-29.8,108.48-59.7c2.12-1.17,3.32-1.3,5.16.69,18.78,20.34,37.72,40.54,56.56,60.83,1.46,1.57,2.2,2,3.93.14q53.41-57.27,107-114.41C538.48,338.54,545,332,551,324.89c.27-.11.63-.19.39-.58C551.32,324.26,550.87,324.46,550.62,324.54Z" transform="translate(-58.65 -61.65)"/><path class="cls-8" d="M551,324.89C545,332,538.48,338.54,532.16,345.3q-53.47,57.21-107,114.41c-1.73,1.85-2.47,1.43-3.93-.14-18.84-20.29-37.78-40.49-56.56-60.83-1.84-2-3-1.87-5.16-.69q-54.2,29.93-108.48,59.7c-1.29.71-2.45,1.81-4.77,1.86,2.76-3,5.14-5.67,7.57-8.28L371.44,325.76c2.91-3.11,2.93-3.12,5.86,0q28.21,29.58,56.36,59.22c2.13,2.26,3.62,2.62,6.47,1Q494,355.76,548,325.83c.85-.47,1.75-.86,2.63-1.29Z" transform="translate(-58.65 -61.65)"/><path class="cls-8" d="M550.62,324.54c.26-.08.7-.29.74-.23.24.39-.12.47-.39.58Z" transform="translate(-58.65 -61.65)"/></svg>