<svg id="Слой_1" data-name="Слой 1" xmlns="http://www.w3.org/2000/svg" viewBox="0 0 691.09 691.07"><defs><style>.cls-1{fill:#010101;}.cls-2{fill:#020202;}</style></defs><title>Phone</title><path class="cls-1" d="M429.54,52.71c3.4,1.43,7.06.87,10.58,1.2Q573.88,66.12,665.39,164.38c42.65,45.82,70.29,99.78,83.58,161a336.22,336.22,0,0,1,6.86,97.37C749.9,500.31,721.5,568.61,670,626.91,622,681.24,562.49,717,492,734.15a333.5,333.5,0,0,1-109.81,8.25q-134.33-12.19-226-111.24c-44-47.63-71.9-103.74-84.29-167.47a347.4,347.4,0,0,1-5.54-43.29c0-.64.24-1.46-.71-1.75V378.46c1.06-.44.64-1.4.69-2.14a327.36,327.36,0,0,1,8.05-55.66C92,246.38,129.68,184.18,187.85,134.78c56-47.56,120.9-74.33,194.14-80.85,2.92-.26,6,.29,8.78-1.22ZM722.15,398.32c.1-171.42-139.34-311-310.84-311.06s-311,139.36-311.06,310.83S239.59,709,411.09,709.15,722.05,569.79,722.15,398.32Z" transform="translate(-65.71 -52.71)"/><path class="cls-1" d="M210.74,283.32c-1-9.8,3.17-18.44,10.86-26,18.61-18.28,37-36.83,55.41-55.27.5-.5,1-1,1.5-1.49,4.4-4.16,8.38-3.67,11.49,1.58q17.29,29.21,34.49,58.47,8.13,13.79,16.24,27.58c3.58,6.11,2.82,12.31-2.16,17.33-7.94,8-16,15.94-23.91,24-7,7.07-9.51,15.25-6.67,25.09,4.22,14.63,11.39,27.77,20.18,40,26.47,36.74,58,68.36,96.28,92.86a112.56,112.56,0,0,0,31.26,14.14c9.2,2.49,17,0,23.6-6.36,6.89-6.56,13.51-13.41,20.26-20.12,5.64-5.6,11.51-6.48,18.51-2.76l87.2,46.36c.62.33,1.26.63,1.87,1,5,2.89,5.66,6.7,1.61,10.85-6.89,7.07-13.92,14-20.89,21q-18.69,18.71-37.38,37.41a30.84,30.84,0,0,1-23,9.58c-22.5-.24-43.84-5.83-64.64-13.86-33.12-12.79-62.93-31.31-90.59-53.31C326.16,494.64,285.74,452.63,253.66,403c-17.48-27-31.31-55.75-38.73-87.28A144.35,144.35,0,0,1,210.74,283.32Z" transform="translate(-65.71 -52.71)"/><path class="cls-2" d="M399.18,217.89c0-3.64.25-7.3-.07-10.92-.28-3.13.91-3.57,3.7-3.45,20.68.88,40.88,4.51,60,12.21C537,245.51,585.74,298.37,606.73,376c3.35,12.39,4.58,25.13,5.24,37.94.13,2.51-.74,2.9-2.93,2.86-7.52-.11-15-.15-22.55,0-2.38.05-2.94-.81-3.1-3-3.95-50.9-24.65-93.91-61.75-128.79-30.35-28.53-66.48-45.48-107.8-51.17-4.18-.58-8.39-1-12.6-1.29-1.78-.11-2.1-.79-2.07-2.35C399.23,226.11,399.18,222,399.18,217.89Z" transform="translate(-65.71 -52.71)"/><path class="cls-2" d="M531.16,416.77c-4,0-8-.07-12,0-1.81,0-2.7-.32-2.91-2.41C510.85,359.69,470.06,314.29,417,302a97.13,97.13,0,0,0-15.25-2.54c-1.92-.13-2.6-.72-2.57-2.72.11-8,.14-16,0-24,0-2.36.69-2.58,2.78-2.38q54.26,5.2,94.12,42.32c26.26,24.51,42.19,54.72,48.19,90.14.67,3.93.92,7.93,1.48,11.87.23,1.61-.32,2.06-1.85,2C539.62,416.73,535.39,416.77,531.16,416.77Z" transform="translate(-65.71 -52.71)"/><path class="cls-2" d="M399.18,337.08c40.57,5.65,71.28,34.91,78.8,74.79a19.62,19.62,0,0,0,.29,2.09c.77,2.51-.42,2.9-2.62,2.86-6.1-.12-12.21-.18-18.31,0-2.41.08-3.12-.93-3.76-3q-12.37-39.54-52.05-51.58c-1.52-.46-2.41-.85-2.39-2.72C399.24,352.19,399.18,344.8,399.18,337.08Z" transform="translate(-65.71 -52.71)"/></svg>