<svg id="Слой_1" data-name="Слой 1" xmlns="http://www.w3.org/2000/svg" viewBox="0 0 676.72 678.11"><defs><style>.cls-1{fill:#249ad6;}.cls-2{fill:#34abdf;}.cls-3{fill:#2ea4dc;}.cls-4{fill:#2ca3db;}.cls-5{fill:#fdfefe;}.cls-6{fill:#cadfed;}.cls-7{fill:#a7c5de;}</style></defs><title>Telega</title><path class="cls-1" d="M730.73,463.21c-1,5.41-1.54,10.95-3.1,16.19-1.12,3.77-1.43,7.86-3.08,11.26-1,2.05,2.08,3,.13,4.54a6.11,6.11,0,0,0-2.49,3.86c-.69,3.56-2.5,6.88-3.43,10.41-2,7.54-6,14.33-8,21.85-3.14,11.8-9.89,22-15.26,32.76A132.43,132.43,0,0,1,684.73,582c-4.06,5.66-7.74,11.65-11.57,17.48s-8.93,11.3-13.73,16.67c-2.57,2.87-4.29,6.34-7.29,8.93s-5.14,5.72-7.66,8.56c-4.21,4.72-8.13,10-14,13.09-1.77.94-3.15,2.77-4.46,4.38-3.8,4.66-9,7.78-13.41,11.67-4.26,3.72-9.36,6.69-13.77,10.23-6.25,5-13.26,8.81-19.53,13.68a89.09,89.09,0,0,1-8.94,5.52,253.09,253.09,0,0,1-26.29,14c-10.37,4.7-21.14,8.52-31.75,12.69-6,2.38-12.48,3.65-18.51,5.9s-12.47,2.12-18.07,5.25c-3.06-.93-5.55,2.08-8.47,1.37-3.13-.75-5.62,1.21-8.49,1.59-7.52,1-14.89,3.21-22.6,2.66-4.49,2.52-9.4,1.46-14.08,1.27-5.29-.2-10.15,2.18-15.5,1.63a74.3,74.3,0,0,0-15.34,0c-4.24.45-7.89-1.8-12-1.57s-8.51.72-12.54-.1c-6.57-1.33-13.36-1.21-19.78-2.82-5.77-1.44-11.68-1.82-17.41-3.39-5.48-1.5-11.41-1.63-16.7-3.57-10.32-3.78-20.92-6.66-31.24-10.52C266,710.79,251.18,703.43,236.39,696a216.48,216.48,0,0,1-26.14-16.15c-7.84-5.48-15.39-11.32-23-17.16-14.08-10.87-26.57-23.39-38.6-36.3a306.49,306.49,0,0,1-35.06-46.19A332.67,332.67,0,0,1,90.4,536,185.71,185.71,0,0,1,82.26,515C81,510.87,79,507,77.9,502.8c-1.52-6.08-3.63-12-5.23-18.06-1.23-4.64-1.85-9.45-3.15-14.07-1.19-4.26-2.6-8.51-2.38-12.92.14-2.84-1.82-5-1.56-7.81.24-2.54.05-5.12.05-7.68,1,.21,2.86-.62,2.69,1.09-.25,2.42,1.07,4.27,1.49,6.41,1.27,6.46,1.25,6.47,7.31,6.47H284.72c.28-6.11.05-6.47-2.32-11.8a6.79,6.79,0,0,0-3.27-3.71c-6.65-3.76-14-5.43-21.06-8.12-8.64-3.31-17.62-5.74-26.47-8.49-1.72-.53-.89-1.82-1.09-2.82a4.6,4.6,0,0,1,1.39,0q20.81,7,41.61,13.95c4.29,1.43,8.6,2.8,12.9,4.2-.29,3.68,2.1,6.64,2.73,10,1.64,8.78,6.21,16.72,7.12,25.68,5.07,10.33,7.29,21.64,10.84,32.47,3.63,11.06,6.82,22.33,10.19,33.5,1.58,5.24,2.5,11.29,8.25,14.3,4,3,4.16,3.19,5.21,2.41,2.1-1.58,4.83-1.94,6.77-3.86,7.14-7.08,15.28-13.11,22-20.63a44.53,44.53,0,0,1,6.91-6.83c8.45-6,15.09-13.81,22-21.39.86.19,1.72-.26,2.61.46,4,3.2,8.21,6.13,12.11,9.44,6.66,5.64,13.73,10.8,20.67,16,8.85,6.64,17.38,13.71,26.48,20,7.13,5,13.55,11,20.58,16.12,5.35,3.91,10.94,7.18,18.27,6.58a20.25,20.25,0,0,0,12-4.75c4.13-3.53,7.06-7.72,7.57-13.62.44-5.16,2.13-10.23,3.33-15.32,1.6-6.77,3.85-13.45,4.72-20.31.73-5.73,3.58-11,3.13-16.89,3.63-8.72,4.17-18.2,6.52-27.25,1.57-6.07,3.32-12.42,3.37-18.91,0-.17.74-.33,1.14-.49,2.89.79,2.78,3.06,2.82,5.41.1,5.59,1.74,7.16,7.41,7.16q88.27,0,176.54.05a11.52,11.52,0,0,0,9-3.67C727.77,464,728.81,462.71,730.73,463.21Z" transform="translate(-61.2 -60.55)"/><path class="cls-2" d="M102,241a6,6,0,0,1,.9-3.13,309.51,309.51,0,0,1,19-31.17c5.18-7.25,10.8-14.29,16.45-21.25a376.16,376.16,0,0,1,26.33-28.85c8.67-8.66,18.33-16.11,27.8-23.84,8.46-6.89,17.57-12.77,26.34-19.16a83.27,83.27,0,0,1,8.39-5.14c12-6.75,24.32-13.12,36.85-18.9,9-4.14,18.39-7.34,27.74-10.58,6.33-2.19,12.78-4.05,19.27-5.83s13.07-3,19.47-5.17c3.16-1.07,7-1.15,10.53-1.43,2.75-.22,4.9-2.14,7.8-1.71,2.36.35,5,.77,7.11-1.28.12-.12.45,0,.68,0,6.65.81,13-1.86,19.68-1.51,10.06.52,20-1.89,30.16-1.49,4.13.17,7.87,1.88,12,1.65s8.57-.81,12.52.17c3.6.89,7.25.42,10.6,1.35,3.58,1,7.28.42,10.6,1.39,5.74,1.67,11.69,1.82,17.42,3.4,5.48,1.52,11.41,1.64,16.71,3.55,11.76,4.24,23.9,7.22,35.51,12.07,9.94,4.15,20,8.11,29.53,13q13.32,6.82,26.09,14.7c5.54,3.43,11,7.06,16.55,10.48,4.72,2.89,8.93,6.61,13.35,10,13.92,10.63,26,23.29,38.4,35.52,8.43,8.28,15.53,17.6,22.79,26.87,5.74,7.33,11,15,16.07,22.72a274.83,274.83,0,0,1,19.66,35.16c1.43,3.08,3.22,5.83,2.69,9.37v7c0,2.56.48,5.23-.13,7.63s2.41,3.91,1.2,6.36H611q-17.77,0-35.54,0c-2.42,0-3.93-1.87-2.49-3.17,2.81-2.53.39-4.54-.4-5.84-1.15-1.9-2.69-3.38-2.86-5.86-.07-1-1.62-.31-2.48-.5-.66-2.16,1.79-3.44,1.47-5.64s.08-4.6-.11-6.89c-.3-3.57-1.1-7.33-4.37-9.09a19.77,19.77,0,0,0-7.37-2.25c-3.71-.36-6.79,1.9-10.48,1.73a10,10,0,0,0-5.36,1.74c-1.55,1.09-3,.63-4.52.84-.61-2.53-2.53-1.59-3.74-1.05a60.88,60.88,0,0,1-10.31,3.53c-4.5,1.08-8.28,3.8-12.8,4.52-1.77.28-.89,1.78-1.1,2.78h-2.79c-4.51-.23-8.65.9-13,2.22-5.83,1.76-11.89,3.38-18.16,3.38q-185.57,0-371.14,0a38.08,38.08,0,0,1-4.18,0c-2.14-.24-3-1.94-2.1-4.25,1.95-5.24,3.93-10.46,5.9-15.69C103.51,242.26,103.75,241.18,102,241Z" transform="translate(-61.2 -60.55)"/><path class="cls-3" d="M102,241c1.78.14,1.55,1.22,1.11,2.38-2,5.23-4,10.46-5.9,15.69-.86,2.31,0,4,2.1,4.25a38.08,38.08,0,0,0,4.18,0q185.57,0,371.14,0c6.27,0,12.33-1.62,18.16-3.38,4.35-1.31,8.5-2.45,13-2.22-.09,1.26.37,2.29-1.76,2.93-7.41,2.22-14.69,4.92-22,7.55-6.87,2.49-13.67,5.18-20.54,7.66-5.66,2-11.38,4-16.94,6.26-9,3.59-18,7-27.1,10.33-9.5,3.48-18.67,7.73-28.16,11.19q-11.51,4.19-23,8.58-11.14,4.25-22.22,8.66c-5.39,2.15-10.69,4.51-16.07,6.68-8.16,3.3-16.47,6.29-24.51,9.86-7.27,3.23-14.62,6.39-22,9.24-10,3.88-19.78,8.4-29.8,12.29-7.78,3-15.39,6.65-23.07,10q-16.83,7.33-33.71,14.6c-4.11,1.76-7.5,4.58-7.89,9.79-.12,1.61-1.91,3-1.16,5,.56,1.48,8.76,10.76,10.24,11.74,5.71,3.79,12.48,4.68,18.74,7,3.69,1.35,7.24,3.33,11.4,2.8a1.18,1.18,0,0,0,1.4,1.4h2.79c.21,1-.62,2.28,1.09,2.82,8.85,2.75,17.83,5.17,26.47,8.49,7,2.69,14.41,4.36,21.06,8.12a6.79,6.79,0,0,1,3.27,3.71c2.37,5.33,2.6,5.69,2.32,11.8H77.13c-6.06,0-6,0-7.31-6.47-.42-2.14-1.74-4-1.49-6.41.17-1.71-1.69-.88-2.69-1.09.2-1.16-1.36-1.41-1.35-2.21.13-5.44-1.83-10.61-1.57-16.15.48-10.49-1.95-20.89-1.44-31.47.21-4.31,2.13-8.25,1.66-12.66-.44-4.13-.75-8.48.05-12.5,1.36-6.79,1.45-13.73,2.78-20.44,2-9.81,3.81-19.64,6.24-29.38,2-8,5-15.72,6.42-23.91.7-4.05,3.22-7.9,4.67-11.95a329,329,0,0,1,18.19-40.53C101.34,241,101.73,241,102,241Z" transform="translate(-61.2 -60.55)"/><path class="cls-4" d="M567.25,267.59c.86.19,2.41-.49,2.48.5.17,2.48,1.7,4,2.86,5.86.79,1.3,3.22,3.31.4,5.84-1.44,1.29.08,3.16,2.49,3.17q17.77,0,35.54,0h97c1.22-2.45-1.82-3.94-1.2-6.36s.13-5.08.13-7.63v-7c3.74,1.22,3.08,5.63,5.59,7.74,1.41,7.48,5.41,14,7.57,21.3,2.78,9.34,5.35,18.72,8,28.08,2.08,7.34,2.43,15.07,5.38,22.16-1,4.84,2.25,9.25,1.4,14.07-.61,3.45,1.82,6.37,1.52,9.9-.28,3.27-.9,6.74,1.18,9.94.64,1,.1,2.73.1,4.12,0,13.49-.17,27,.11,40.46.08,3.71-1.77,6.9-1.61,10.59.16,3.53.92,7.23-1.22,10.63-.52.83-.08,2.28-.08,3.44,0,6.26-2,12.2-3,18.28,0,.23-.75.34-1.15.5-1.92-.5-3,.77-4.08,2a11.52,11.52,0,0,1-9,3.67q-88.27-.09-176.54-.05c-5.67,0-7.31-1.57-7.41-7.16,0-2.35.07-4.62-2.82-5.41-.05-2.47,1-4.84,1.19-7.11.8-8.4,4-16.32,4.4-24.75,2.78-2.42,1.11-5.93,2.05-8.89a66.71,66.71,0,0,0,3.32-14.62c.51-6.48,3.32-12.52,3-19.05,3.39-7,2.74-15,5.59-22.1-1-3.94.78-7.65,1.65-11.22s.11-7.59,2.54-10.76c-1-3.5,1.42-6.48,1.51-9.88.08-3.05,1.91-6,1.29-9.19,3-2.48-.19-6.82,2.79-9.31.93-6.12,1.64-12.29,2.88-18.36.67-3.3.87-6.68,1.6-9.83a25.08,25.08,0,0,0,1.06-6.46C565.73,272.17,568,270.19,567.25,267.59Z" transform="translate(-61.2 -60.55)"/><path class="cls-5" d="M567.25,267.59c.73,2.6-1.52,4.58-1.44,7.1a25.08,25.08,0,0,1-1.06,6.46c-.73,3.15-.93,6.54-1.6,9.83-1.24,6.06-2,12.23-2.88,18.36-3,2.48.22,6.83-2.79,9.31.62,3.23-1.2,6.14-1.29,9.19-.09,3.4-2.5,6.38-1.51,9.88-2.44,3.17-1.68,7.2-2.54,10.76s-2.68,7.27-1.65,11.22c-2.85,7.12-2.2,15.12-5.59,22.1.3,6.54-2.5,12.58-3,19.05a66.71,66.71,0,0,1-3.32,14.62c-.94,3,.73,6.47-2.05,8.89-.39,8.43-3.6,16.35-4.4,24.75-.22,2.28-1.25,4.65-1.19,7.11-.4.16-1.14.33-1.14.49,0,6.49-1.79,12.84-3.37,18.91-2.34,9-2.89,18.53-6.52,27.25.45,5.89-2.4,11.17-3.13,16.89-.87,6.86-3.12,13.54-4.72,20.31-1.2,5.09-2.89,10.15-3.33,15.32-.51,5.9-3.44,10.09-7.57,13.62a20.25,20.25,0,0,1-12,4.75c-7.34.61-12.93-2.67-18.27-6.58-7-5.14-13.45-11.14-20.58-16.12-9.09-6.34-17.63-13.41-26.48-20-6.94-5.21-14-10.37-20.67-16-3.9-3.31-8.12-6.24-12.11-9.44-.9-.72-1.76-.27-2.61-.46a10.62,10.62,0,0,0-4.48-5c-9.36-5.93-17.4-13.59-26.5-19.88-7.09-4.9-13.47-10.84-20.71-15.6,0-1.14-.1-2.17,1-3.12,2.69-2.41,5.63-4.59,8.22-7,9.33-8.74,19.06-17,28.5-25.63,8.59-7.83,17.11-15.71,26-23.17,4.89-4.09,9.07-9,14.19-12.9,5.41-4.16,10.08-9.28,15.14-13.89,7.46-6.81,15.64-12.88,22.31-20.54a6.61,6.61,0,0,1,2-1.93c3.74-1.57,6.21-4.65,8.7-7.52s6.3-4.45,8.89-7.33c6.77-7.55,15.45-13.08,22.15-20.72a5.18,5.18,0,0,1,2.11-1.62c3.35-1.27,5.14-4.22,6.62-7.23,1.34-2.73-.08-4.91-3-5.3-3.1-.41-5.63.76-8.08,2.44-3.62,2.49-7.23,5-10.92,7.35-6.8,4.35-13.69,8.56-20.48,12.91-8.47,5.43-16.67,11.32-25.38,16.33-7,4-13.68,8.55-20.45,12.89-8.48,5.43-16.92,11-25.43,16.33S372,385.82,363.47,391.16c-8.33,5.25-16.63,10.59-24.9,15.91-6.93,4.45-13.86,9-21,13.18-10.54,6.14-20.26,13.62-31.15,19.21-4.3-1.4-8.61-2.76-12.9-4.2q-20.81-7-41.61-13.95a4.6,4.6,0,0,0-1.39,0h-2.79a1.18,1.18,0,0,0-1.4-1.4c-4.16.53-7.7-1.46-11.4-2.8-6.26-2.28-13-3.17-18.74-7-1.48-1-9.68-10.27-10.24-11.74-.75-2,1-3.35,1.16-5,.39-5.21,3.78-8,7.89-9.79q16.88-7.23,33.71-14.6c7.67-3.34,15.29-7,23.07-10,10-3.89,19.77-8.41,29.8-12.29,7.35-2.85,14.71-6,22-9.24,8-3.57,16.35-6.56,24.51-9.86,5.38-2.18,10.68-4.53,16.07-6.68q11.07-4.43,22.22-8.66,11.45-4.37,23-8.58c9.49-3.46,18.66-7.71,28.16-11.19,9.06-3.32,18.12-6.74,27.1-10.33C450.12,280,455.83,278,461.5,276c6.87-2.48,13.67-5.18,20.54-7.66,7.28-2.63,14.56-5.34,22-7.55,2.13-.64,1.67-1.67,1.76-2.93h2.79c1.31-.24,2.58.07,4-.38,5.07-1.63,10-3.66,14.94-5.58,3-1.17,6.74-.95,9-3.82,1.5-.21,3,.25,4.52-.84a10,10,0,0,1,5.36-1.74c3.69.16,6.78-2.09,10.48-1.73a19.77,19.77,0,0,1,7.37,2.25c3.27,1.76,4.07,5.53,4.37,9.09.19,2.28-.22,4.64.11,6.89S566.59,265.44,567.25,267.59Z" transform="translate(-61.2 -60.55)"/><path class="cls-6" d="M286.4,439.45c10.89-5.59,20.61-13.07,31.15-19.21,7.15-4.16,14.08-8.72,21-13.18,8.28-5.32,16.57-10.66,24.9-15.91,8.48-5.34,16.85-10.88,25.34-16.21s17-10.9,25.43-16.33c6.77-4.34,13.44-8.87,20.45-12.89,8.71-5,16.91-10.9,25.38-16.33,6.79-4.36,13.68-8.56,20.48-12.91,3.7-2.36,7.31-4.86,10.92-7.35,2.45-1.68,5-2.85,8.08-2.44,2.91.39,4.33,2.57,3,5.3-1.48,3-3.28,6-6.62,7.23a5.18,5.18,0,0,0-2.11,1.62c-6.7,7.64-15.38,13.17-22.15,20.72-2.59,2.89-6.29,4.35-8.89,7.33s-5,6-8.7,7.52a6.61,6.61,0,0,0-2,1.93c-6.68,7.66-14.85,13.73-22.31,20.54-5.06,4.62-9.73,9.74-15.14,13.89-5.12,3.94-9.3,8.81-14.19,12.9-8.93,7.46-17.44,15.34-26,23.17-9.44,8.6-19.17,16.89-28.5,25.63-2.58,2.42-5.53,4.6-8.22,7-1.06.95-1,2-1,3.12-.47,1-1.32,1.93-1.33,2.91,0,4.74-.92,9.42-1.2,14.07-.37,6.1-2.65,12-1.67,18.22.07.45.21,1.1,0,1.36-1.87,2.12-1.58,4.71-1.29,7.1.35,2.84-1.62,5.23-1.37,7.78.57,6-2.44,11.59-1.51,17.55.07.45.21,1.1,0,1.37-2.64,3-1,6.6-1.32,9.9-.38,3.54-2.33,6.86-1.44,10.56-5.75-3-6.67-9.06-8.25-14.3-3.36-11.18-6.56-22.44-10.19-33.5-3.56-10.83-5.77-22.14-10.84-32.47-.91-9-5.48-16.9-7.12-25.68C288.5,446.09,286.12,443.13,286.4,439.45Z" transform="translate(-61.2 -60.55)"/><path class="cls-7" d="M325.52,555.43c-.89-3.7,1.06-7,1.44-10.56.35-3.3-1.31-6.89,1.32-9.9.23-.26.09-.91,0-1.37-.93-6,2.08-11.56,1.51-17.55-.24-2.55,1.72-4.94,1.37-7.78-.29-2.39-.58-5,1.29-7.1.23-.26.09-.91,0-1.36-1-6.19,1.3-12.12,1.67-18.22.28-4.65,1.17-9.33,1.2-14.07,0-1,.86-1.94,1.33-2.91,7.24,4.76,13.62,10.7,20.71,15.6,9.1,6.29,17.14,13.95,26.5,19.88a10.62,10.62,0,0,1,4.48,5c-6.88,7.58-13.52,15.38-22,21.39a44.53,44.53,0,0,0-6.91,6.83c-6.75,7.52-14.88,13.55-22,20.63-1.93,1.92-4.66,2.28-6.77,3.86C329.68,558.62,329.54,558.4,325.52,555.43Z" transform="translate(-61.2 -60.55)"/><path class="cls-3" d="M536.51,248c-2.29,2.87-6,2.66-9,3.82-4.93,1.92-9.87,4-14.94,5.58-1.39.45-2.67.14-4,.38.21-1-.67-2.49,1.1-2.78,4.52-.73,8.29-3.44,12.8-4.52A60.88,60.88,0,0,0,532.77,247C534,246.44,535.9,245.5,536.51,248Z" transform="translate(-61.2 -60.55)"/><path class="cls-1" d="M226.32,419.89a1.18,1.18,0,0,1,1.4,1.4A1.18,1.18,0,0,1,226.32,419.89Z" transform="translate(-61.2 -60.55)"/></svg>