<svg id="Слой_1" data-name="Слой 1" xmlns="http://www.w3.org/2000/svg" viewBox="0 0 696 696.04"><defs><style>.cls-1{fill:#27a9e0;}.cls-2{fill:#c1e6f6;}</style></defs><title>Tweter</title><path class="cls-1" d="M378.17,52h54.69c9.49,1.7,19.14,2.12,28.68,3.53A345.74,345.74,0,0,1,677.92,178.1q62.34,75.72,76.31,172.84c.78,5.41,0,11.16,2.76,16.25V433.8c-2.92,4.45-2.08,9.7-2.76,14.53A346.49,346.49,0,0,1,649.31,652.07a348.4,348.4,0,0,1-74.59,54.28C525.83,732.77,473.39,746.2,418,747.92c-17.15.53-34.25-.74-51.32-2.75a340.65,340.65,0,0,1-105.11-30A348.9,348.9,0,0,1,83.84,523.45a351.68,351.68,0,0,1-21.78-99.63c-.66-6.27,1.12-12.67-1.06-18.86V395c2.18-6.18.4-12.59,1.06-18.86.59-8,1.48-16,2.55-24A347.13,347.13,0,0,1,187.21,131.7Q263.73,68.62,362,54.78C367.36,54,373.1,54.78,378.17,52ZM319.81,492.57C279.9,513,238.4,520.87,194,509.22a12,12,0,0,0,5.22,7.07A359.92,359.92,0,0,0,240.94,542c18.76,9.92,39,16.12,59.73,20.66,29.54,6.47,59.23,9.37,89.27,3.38,31.39-6.26,61.89-14.68,89.16-32.43,30.77-20,57.2-44.42,75.71-76.26,19.36-33.31,33.82-68.62,37.77-107.47.16-1.6.4-2.94,2-3.61,12.27-5,22.32-13.32,32.15-21.93a76.56,76.56,0,0,0,14.74-16.57c-16,4.45-30.77,7.53-46.87,6.44,2.19-1.43,3.62-2.47,5.15-3.34,14-8,24.49-19.39,32.65-33.11.66-1.1,1.88-2.37.84-3.55s-2.42.2-3.65.41a6.55,6.55,0,0,0-1.42.43,143.41,143.41,0,0,1-44.89,11.13,8.9,8.9,0,0,1-8.2-3.35A94.81,94.81,0,0,0,551,261.71c-17.73-11.09-37.37-12.5-57.32-9.64-34.86,5-61.36,29.83-70,64.3-1.76,7-1.33,14.09-1.48,21.15-.09,4.6-1.85,5.6-6.33,4.72a211.17,211.17,0,0,1-51.54-17.08,260.51,260.51,0,0,1-61-41.09,205.68,205.68,0,0,1-38.19-45.21c-4.65-7.55-4.23-7.44-9.07-.13-11.72,17.68-16.78,36.83-13.26,57.88,2.5,15,7.33,29,17.34,41,2.55,3,5.78,5.69,7.52,10.09-13.14-1.1-22.13-10.44-33.43-15.12-6.07,44.21,14.17,73.27,52.31,93.29-10.54,2.06-19.47.19-28.32-2.52-1.84-.56-3.9-2.34-5.54-.88s-.59,3.64-.19,5.62c3.89,19.49,15.57,33.93,30.22,46.29A81.6,81.6,0,0,0,319.81,492.57Z" transform="translate(-60.99 -51.99)"/><path class="cls-2" d="M61,376.13l1.06,0c-.66,6.27,1.12,12.67-1.06,18.86Z" transform="translate(-60.99 -51.99)"/><path class="cls-2" d="M62.06,423.82l-1.06,0V405C63.18,411.15,61.39,417.55,62.06,423.82Z" transform="translate(-60.99 -51.99)"/></svg>