<svg id="Слой_1" data-name="Слой 1" xmlns="http://www.w3.org/2000/svg" viewBox="0 0 693.8 693.44"><defs><style>.cls-1{fill:#7d51a0;}.cls-2{fill:#7d52a0;}.cls-3{fill:#8055a2;}.cls-4{fill:#7f54a1;}</style></defs><title>Viber</title><path class="cls-1" d="M63,401.69c0-68.41-1.12-136.84.34-205.22C64.67,136.17,94.8,93,149.08,67.15c18.31-8.73,38.07-12.22,58.45-12.21q202.36.08,404.72,0A143.58,143.58,0,0,1,756.4,198.93q.07,201.64,0,403.28c0,72.87-48.15,130.75-119.85,144.16a131.44,131.44,0,0,1-24.26,2q-202.72-.08-405.43-.05A143.37,143.37,0,0,1,64.16,621.91,159,159,0,0,1,63,602.61Q63,502.15,63,401.69Zm86-46c.31,36.67,2.58,70.93,11.63,104.45,13.25,49.11,41.17,85.62,89.4,104.94,5.53,2.22,10.7,5.31,16.21,7.61,4.9,2,6.33,5.28,6.31,10.54-.12,32.29.1,64.59.31,96.89,0,2.2-1.38,5.37,1.32,6.44,2.28.91,4.36-1.46,6.22-2.88,5.94-4.53,10.74-10.18,15.41-16,17.77-22,37-42.61,56.65-62.88,10.06-10.38,21.6-17.22,36.84-15.63,18.38,1.91,36.76,1.29,55.16-.15,35.31-2.75,70.32-7.21,104.39-17.41,43-12.87,77.41-35.86,94.89-79.31,4.64-11.54,9.1-23.13,12-35.21,16.8-69.14,14.55-138.42.54-207.6-6.51-32.14-20.23-60.72-45.72-82.48-21.15-18.06-45.94-29-72.6-36a520.8,520.8,0,0,0-203.34-12.58c-34.76,4.7-68.32,13.92-99.21,31.23C199,170.15,174,199.73,163,240.69,152.7,279.1,149.63,318.28,149.06,355.65Z" transform="translate(-62.63 -54.94)"/><path class="cls-2" d="M498.57,533.35c-5.07-.06-12-2.08-18.55-4.93-110.61-47.8-191-125.75-237.35-237.76-18.21-44,5.41-75.17,42.56-85.31,9.27-2.53,17.77-.66,24.74,5.73a208.65,208.65,0,0,1,49.6,67.85c4.91,10.78,2.57,19.8-6.05,28a77.58,77.58,0,0,1-7.83,6.27c-15.87,11.57-19.18,22.87-11.49,41.07,13.44,31.81,35.88,55.56,65.8,72.4,7.27,4.09,14.59,8.13,22.76,10.38,10.14,2.78,18.34-.13,25-8,.92-1.1,1.76-2.26,2.6-3.43,14.57-20.11,30.12-23.53,51.27-10.4A424.75,424.75,0,0,1,552.94,453c10.73,9.15,13.07,19.83,8.18,32.92C552.17,509.91,523.25,532.6,498.57,533.35Z" transform="translate(-62.63 -54.94)"/><path class="cls-3" d="M560.72,353c0,3.11.23,6.23-.05,9.31-.45,4.94-3.18,8-8.32,8.07-5.44.06-8.32-2.92-8.72-8.36a263.38,263.38,0,0,0-6.11-40.31c-13.74-59.28-53-90.64-110.92-101.57-6.79-1.28-13.67-2.11-20.53-3-4.76-.65-9.22-1.61-9.25-7.75s3.44-9.31,10.13-9.38c47-.43,85.24,18.73,115.83,53.5C547.67,281.83,560.67,315.07,560.72,353Z" transform="translate(-62.63 -54.94)"/><path class="cls-4" d="M520.48,338.26c-.09,13.32-2,16.56-8.8,16.66-6.22.09-8-2.87-9.12-14.28a126.34,126.34,0,0,0-10.19-38.56c-8-18.19-22.4-29.29-40.55-36.08A158.73,158.73,0,0,0,418,257.15c-5.43-.75-9.66-3.3-8.84-9.86.75-6,4.41-8.8,10.36-8.39,55,3.77,90.81,41.93,98.86,80.49A121.2,121.2,0,0,1,520.48,338.26Z" transform="translate(-62.63 -54.94)"/><path class="cls-4" d="M482.15,330.71a26.74,26.74,0,0,1-.39,4.3c-.91,4.38-3.33,7.47-8.12,7.65s-7.38-2.79-8.54-7.11c-.61-2.3-.92-4.67-1.35-7q-4.64-25.71-30.28-30.9c-1.63-.33-3.26-.68-4.89-1-4.27-.91-8.08-2.65-7.66-7.76.38-4.62,2.82-7.89,7.9-8.8a30.16,30.16,0,0,1,11.32,0C461.87,284.31,482.09,308,482.15,330.71Z" transform="translate(-62.63 -54.94)"/></svg>