<svg id="Слой_1" data-name="Слой 1" xmlns="http://www.w3.org/2000/svg" viewBox="0 0 695.71 695.7"><defs><style>.cls-1{fill:#436eaa;}</style></defs><title>VK</title><path class="cls-1" d="M409.42,52.89C602,52.75,759.18,209.63,757.36,404.41c-1.77,190-158.23,349.08-357.36,344.07C215.39,743.83,61.54,593.59,61.67,400.39,61.8,205.76,219.3,52.91,409.42,52.89Zm27.81,298.33c0-10.08.08-20.16,0-30.23-.1-9.73-4.83-15.2-13.34-15.25-18-.11-35.91,0-53.86,0a18.25,18.25,0,0,0-14.56,6.88c-3.34,3.94-3,5.28,2,6.38,8.47,1.87,13.23,7.22,14.67,15.59,2.34,13.64,2.32,27.38,1.3,41.15-.45,6.13-.89,12.26-3.83,17.84-2.34,4.45-5.69,5.45-10.11,3.09a28.59,28.59,0,0,1-8.8-7.75,239.62,239.62,0,0,1-20.86-32,306.72,306.72,0,0,1-16.52-34.79c-2.33-5.75-6.38-9.67-12.69-9.77-16.44-.25-32.9-.36-49.34,0-9.11.22-11.56,4.78-8.09,13.24.13.32.25.65.39,1,14,30.92,29.11,61.26,47.76,89.71,11.89,18.14,24.48,35.7,41,50,27.36,23.72,59.36,32,94.84,28.7,6.72-.63,9.28-3.45,10.39-10.11a45.72,45.72,0,0,0,.51-5.17c.42-8.16,1.47-16.16,5.92-23.27,3.34-5.33,7.77-6.53,13.39-3.73a26.48,26.48,0,0,1,6.65,5c7,6.89,13.31,14.47,20,21.7,7.2,7.8,15.15,14.33,26.12,16,5.43.81,10.87,0,16.3.1q19.63.25,39.25.22c6.93,0,11.16-4.37,11.32-11.3a16,16,0,0,0-1.75-7.7A92.19,92.19,0,0,0,562.17,458c-9.78-11.32-21-21.18-31.63-31.69-10.25-10.17-10.72-15.12-2.24-26.74C537,387.65,545.9,376,554.6,364.12c8.16-11.11,16.36-22.21,21-35.41,4-11.47.46-16.46-11.77-16.47H510.31c-7.77,0-10.89,2-13.69,9.23a298.12,298.12,0,0,1-16,34.64C473,370,464.53,383.18,453.15,394.31c-4.8,4.69-9.67,4-13-1.89a25.31,25.31,0,0,1-2.93-12.71Q437.24,365.46,437.23,351.22Z" transform="translate(-61.67 -52.89)"/></svg>