<svg id="Слой_1" data-name="Слой 1" xmlns="http://www.w3.org/2000/svg" viewBox="0 0 690.49 690.55"><defs><style>.cls-1{fill:#fff;}</style></defs><title>иконка сайт</title><path class="cls-1" d="M447,643.57c-5.24,8.25-10.16,16.45-15.56,24.33a51.43,51.43,0,0,1-15.75,15.33c-5.48,3.3-11.26,4.68-17.14,1.42a55.18,55.18,0,0,1-10.77-7.46c-9.84-9.1-16.58-20.5-22.62-32.3C355.08,625.23,348,604.43,342,583.23c-1.08-3.83-2.07-7.68-3.18-11.8h79.12c-.29-.95-.47-1.68-.74-2.36-6.93-17.32-13.94-34.6-20.74-52-1-2.61-2.34-3.28-5-3.26-20.23.11-40.46.06-60.69.06h-3.46c-10.67-76.92-11-153.44.43-230h155.1a722.89,722.89,0,0,1,8.19,86.1H348.59l-.1.57,199.87,60,.35-2.84H691.42a275.35,275.35,0,0,1-7.72,43.47l54.61,16.43c37.22-131.44-10-294.92-153.06-383.17C451.41,21.89,275.76,40.28,161.09,155.13,45.08,271.33,27,452,116.9,588.1c90.71,137.29,247.77,176.63,366.52,146.34ZM750.5,679.41l-94.71-78.65,65.93-58.1L434.1,456.37,549.15,744l54.06-77.29L693,744Z" transform="translate(-60.01 -53.5)"/><path d="M447,643.57l36.44,90.88C364.67,764.73,207.61,725.39,116.9,588.1,27,452,45.08,271.33,161.09,155.13,275.76,40.28,451.41,21.89,585.25,104.46c143,88.25,190.28,251.72,153.06,383.17L683.7,471.2a275.35,275.35,0,0,0,7.72-43.47H548.71l-.35,2.84-199.87-60,.1-.57H491.05a722.89,722.89,0,0,0-8.19-86.1H327.76c-11.45,76.52-11.1,153-.43,230h3.46c20.23,0,40.46,0,60.69-.06,2.65,0,4,.65,5,3.26,6.8,17.37,13.81,34.66,20.74,52,.28.69.45,1.42.74,2.36H338.83c1.11,4.12,2.1,8,3.18,11.8,6,21.2,13.07,42,23.13,61.66,6,11.8,12.78,23.2,22.62,32.3a55.18,55.18,0,0,0,10.77,7.46c5.88,3.26,11.66,1.88,17.14-1.42a51.43,51.43,0,0,0,15.75-15.33C436.83,660,441.74,651.81,447,643.57ZM261.59,369.9l7.19-86.14H267q-61.38,0-122.77,0c-1.87,0-2.6.69-3.29,2.31a286.39,286.39,0,0,0-19.08,64.13c-1.12,6.48-1.87,13-2.83,19.74ZM119.3,427.73c.07,1.36.08,2.59.22,3.79a289.09,289.09,0,0,0,21.25,79.8c.84,2,1.82,2.62,4,2.62q60.68-.11,121.36-.05h2.37l-7-86.16ZM548.94,369.9h142.3c0-.52.09-.89.07-1.25,0-.77-.05-1.53-.14-2.29a290,290,0,0,0-21.3-80.07c-.86-2-1.88-2.58-4-2.58q-60.67.1-121.34.05h-3c1.56,14.56,3.3,28.72,4.52,42.92S548,355.33,548.94,369.9ZM471.86,226.14c-2.3-8-4.36-15.68-6.68-23.25-6.63-21.62-14.58-42.7-26.25-62.19-5.63-9.4-11.9-18.33-21-24.85-8.37-6-15.62-6.21-24.14-.47a46.46,46.46,0,0,0-6.42,5.28c-8.95,8.72-15.35,19.27-21.27,30.13-12,22.09-19,46.06-25.92,70-.49,1.69-.84,3.42-1.3,5.32ZM313.77,671.35c-.76-1.69-1.2-2.61-1.59-3.54-5.28-12.49-11.36-24.71-15.63-37.54-6.18-18.56-11.09-37.54-16.4-56.38-.56-2-1.29-2.52-3.27-2.52q-49.15.09-98.31.05c-.78,0-1.56.12-2.73.22C211.95,618.6,257.38,651.76,313.77,671.35Zm0-544.91a285.9,285.9,0,0,0-76.49,39.49,291,291,0,0,0-61.32,59.95c.36.21.43.28.51.28q50.75,0,101.49,0a3,3,0,0,0,2.12-1.88c1.24-4.51,2.2-9.1,3.35-13.63,6-23.37,13.15-46.33,23-68.4C308.66,137.12,311.11,132.07,313.74,126.44Zm321.37,99.79c-36.37-47.13-81.89-80.31-138.12-99.87,3,6.47,5.78,12.13,8.28,17.92,10.89,25.26,18.79,51.5,24.86,78.29.64,2.81,1.57,3.77,4.62,3.75,32.21-.14,64.42-.09,96.63-.09Z" transform="translate(-60.01 -53.5)"/><path d="M750.5,679.41,693,744,603.21,666.7,549.15,744,434.1,456.37l287.62,86.28-65.93,58.1Z" transform="translate(-60.01 -53.5)"/></svg>