<svg id="Слой_1" data-name="Слой 1" xmlns="http://www.w3.org/2000/svg" viewBox="0 0 691.13 691.1"><defs><style>.cls-1{fill:#fe0000;}.cls-2{fill:#fe6060;}.cls-3{fill:#fe6363;}.cls-4{fill:#fe0101;}</style></defs><title>youtube</title><path class="cls-1" d="M401,52.35h9.68a50.67,50.67,0,0,0,9.35.33,320.42,320.42,0,0,1,40.18,3.91,338.58,338.58,0,0,1,68.15,18.15q94,36.08,154.45,116.64c41.82,56,64.35,119.13,68.13,188.9a344.46,344.46,0,0,1-83.56,243.39,345.6,345.6,0,0,1-324.69,114,337.66,337.66,0,0,1-71.31-21.38,346.92,346.92,0,0,1-190.27-200,339.69,339.69,0,0,1-16.55-64,326.86,326.86,0,0,1-3.92-40.18,52.13,52.13,0,0,0-.33-9.35v-19c.51-.22.32-.69.33-1.05a347.41,347.41,0,0,1,5.48-48.15,338.07,338.07,0,0,1,32.17-94.23A345,345,0,0,1,215.58,109.47,342.48,342.48,0,0,1,356.29,55.88a322.16,322.16,0,0,1,35.4-3.2A50.68,50.68,0,0,0,401,52.35Zm3.55,182.46c-40.57.29-83.51.86-126.41,3.39-16.32,1-32.6,2.2-48.76,4.86-22,3.62-41.71,21.5-47.12,43.16-3.27,13.1-4.87,26.46-6.13,39.86-1.9,20.24-2.83,40.55-3.14,60.87-.4,25.81.55,51.58,2.66,77.31,1.14,13.83,2.48,27.64,5.63,41.17,5.84,25.06,21.25,40.87,46.44,46.62,12.93,2.95,26.19,3.75,39.38,4.73,18.49,1.38,37,2.2,55.54,2.75,35.63,1.06,71.26,1.72,106.9,1.25,21.3-.28,42.6-.63,63.89-1.36,18.64-.64,37.28-1.42,55.88-2.89,11.65-.92,23.34-1.68,34.76-4.22,22.82-5.08,38.07-18.77,44.65-41.32,4.79-16.42,6.12-33.46,7.54-50.43,1.27-15.27,1.91-30.57,2.3-45.88.39-15.55.23-31.09-.35-46.63-.6-15.94-1.53-31.85-3.27-47.71a230.19,230.19,0,0,0-5.27-32c-6-23.4-20.65-38.24-44.12-44-11.08-2.74-22.48-3.63-33.83-4.61-21.34-1.84-42.74-2.76-64.15-3.46C460.75,235.35,433.87,235,404.59,234.8Z" transform="translate(-60.35 -52.35)"/><path class="cls-2" d="M391.7,52.67a1.23,1.23,0,0,0,.08-.22s0-.07-.06-.11H401A50.68,50.68,0,0,1,391.7,52.67Z" transform="translate(-60.35 -52.35)"/><path class="cls-2" d="M420,52.35l0,.33a50.67,50.67,0,0,1-9.35-.33Z" transform="translate(-60.35 -52.35)"/><path class="cls-3" d="M60.67,412.07l-.33,0v-9.33A52.13,52.13,0,0,1,60.67,412.07Z" transform="translate(-60.35 -52.35)"/><path class="cls-4" d="M480.52,398.06,359.75,467.48c-.55-.53-.35-1.08-.35-1.56q0-68,0-136c0-1.86,0-1.87,1.55-1l118.41,68.35C479.7,397.52,480,397.75,480.52,398.06Z" transform="translate(-60.35 -52.35)"/></svg>